<?xml version="1.0" encoding="UTF-8" standalone="no"?>
<!DOCTYPE svg PUBLIC "-//W3C//DTD SVG 1.1//EN" "http://www.w3.org/Graphics/SVG/1.1/DTD/svg11.dtd">
<svg width="100%" height="100%" viewBox="0 0 649 2135" version="1.1" xmlns="http://www.w3.org/2000/svg" xmlns:xlink="http://www.w3.org/1999/xlink" xml:space="preserve" xmlns:serif="http://www.serif.com/" style="fill-rule:evenodd;clip-rule:evenodd;stroke-linejoin:round;stroke-miterlimit:1.5;">
    <g id="Ebene1">
        <g id="path277" transform="matrix(1,0,0,1,1711.23,800.534)">
            <path d="M-1674.63,1333.53C-1674.63,1333.11 -1674.27,1332.78 -1673.83,1332.78C-1673.39,1332.78 -1673.25,1333.11 -1673.5,1333.53C-1673.76,1333.94 -1674.11,1334.28 -1674.3,1334.28C-1674.48,1334.28 -1674.63,1333.94 -1674.63,1333.53ZM-1365.9,1265.13C-1369.56,1265.22 -1627.52,1266.32 -1628.91,1264.49C-1630.71,1262.12 -1644.25,838.558 -1646.31,837.701C-1647.45,837.23 -1691.09,811.053 -1697.33,805.126C-1701.31,801.347 -1701.11,796.803 -1701.22,795.825C-1701.58,792.874 -1698.47,600.926 -1698.29,586.901C-1697.91,558.157 -1692.02,418.783 -1692.48,365.246C-1692.59,353.02 -1696.03,347.343 -1696.53,346.129C-1698.44,341.541 -1702.68,339.167 -1705.1,335.86C-1707.41,332.704 -1707.94,328.548 -1708.1,327.017C-1708.64,321.965 -1708.59,313.331 -1708.06,311.651C-1707.86,311.053 -1707.23,308.33 -1705.15,307.329C-1701.65,305.645 -1695.94,305.667 -1695.12,305.767C-1694.88,305.795 -1691.86,304.082 -1691.6,299.498C-1688.78,248.101 -1687.89,-68.509 -1687.67,-77.599C-1687.44,-87.499 -1687.91,-109.209 -1683.41,-112.391C-1679.05,-115.481 -1665.14,-114.411 -1665.14,-114.411C-1665.14,-114.411 -1666.08,-263.121 -1666.06,-265.286C-1666.04,-266.401 -1665.66,-269.51 -1669.81,-270.948C-1673.73,-272.303 -1682.17,-272.016 -1682.68,-272.153C-1684.55,-272.651 -1684.6,-272.837 -1684.55,-278.825C-1684.53,-282.213 -1684.1,-310.772 -1683.23,-371.224C-1683.09,-380.505 -1680.55,-517.425 -1679.51,-580.099C-1679.04,-608.277 -1678.37,-644.494 -1678.3,-644.974C-1678.27,-645.18 -1677.24,-693.978 -1674.89,-698.292C-1670.75,-705.875 -1662.87,-710.22 -1662.39,-709.738C-1662.05,-709.395 -1422.85,-799.432 -1421.32,-799.958C-1418.87,-800.801 -1418.36,-800.755 -1417.02,-799.573C-1416.18,-798.835 -1354.33,-770.453 -1346.4,-765.791C-1341.89,-763.144 -1336.17,-757.664 -1335.19,-755.913C-1329.96,-746.593 -1297,-679.231 -1296.29,-676.406C-1295.91,-674.858 -1294.08,-638.684 -1294.08,-638.684L-1305.09,-639.44L-1304.72,-555.475L-1289.16,-554.532C-1289.16,-554.532 -1287.49,-388.351 -1287.53,-385.174C-1287.58,-381.552 -1061.89,361.232 -1065.43,386.09C-1066.46,393.323 -1071.31,394.625 -1072.11,394.982C-1073.41,395.556 -1279.22,492.504 -1280.15,493.491C-1280.48,493.845 -1284.66,499.356 -1285.87,505.481C-1288.02,516.439 -1357.22,1257.93 -1357.94,1260.43C-1359.25,1264.95 -1359.25,1264.95 -1365.9,1265.13ZM-1528.82,-316.138L-1536.42,-313.66L-1517.84,-256.612L-1510.23,-259.09L-1528.82,-316.138ZM-1488.67,-572.314L-1496.27,-569.836L-1477.68,-512.788L-1470.08,-515.266L-1488.67,-572.314ZM-1367.01,583.996L-1443.89,583.996L-1443.89,592.318L-1367.01,592.318L-1367.01,583.996ZM-1466.97,-505.772L-1474.58,-503.293L-1455.99,-446.246L-1448.38,-448.724L-1466.97,-505.772ZM-1390.74,711.308C-1390.85,711.274 -1391.27,711.312 -1391.64,711.448C-1393.15,712.004 -1396.22,713.754 -1397.47,714.573C-1398.11,714.995 -1398.43,715.504 -1398.45,715.615C-1398.62,716.627 -1398.69,718.739 -1398.88,719.532C-1398.99,719.95 -1399.34,719.813 -1399.35,719.757C-1399.39,719.391 -1399.8,716.684 -1399.82,716.589C-1399.89,716.314 -1402.79,716.406 -1402.89,716.411C-1403.18,716.425 -1403.33,717.911 -1403.9,718.849C-1404.32,719.528 -1405.18,719.747 -1405.45,719.747C-1405.66,719.747 -1406.56,719.414 -1406.89,718.909C-1407.53,717.926 -1407.67,716.427 -1408,716.411C-1408.11,716.406 -1410.95,716.235 -1411.02,716.51C-1411.05,716.605 -1411.5,719.391 -1411.55,719.757C-1411.56,719.814 -1411.9,719.963 -1412.01,719.539C-1412.17,718.871 -1412.22,716.873 -1412.7,715.585C-1412.87,715.155 -1414.11,714.042 -1415.54,713.153C-1416.84,712.34 -1418.33,711.731 -1418.4,711.675C-1418.59,711.506 -1419.52,711.16 -1419.69,711.19C-1420.06,711.251 -1420.62,711.452 -1420.73,711.562C-1420.8,711.638 -1420.97,712.876 -1420.91,713.962C-1420.86,714.868 -1420.96,715.968 -1418.3,718.559C-1418.05,718.808 -1414.75,721.665 -1413.81,722.456C-1413.75,722.504 -1413.41,722.673 -1413.39,724.475C-1413.38,725.494 -1413.36,726.577 -1413.33,726.881C-1413.28,727.515 -1427.37,718.15 -1427.42,718.15C-1427.45,718.15 -1427.75,717.902 -1428.04,717.829C-1428.33,717.759 -1428.6,717.865 -1428.63,717.865C-1428.95,717.865 -1429.01,718.054 -1428.98,719.018C-1428.95,719.639 -1428.58,726.767 -1428.58,726.953C-1428.58,727.202 -1428.55,727.293 -1428.48,727.293C-1428.42,727.293 -1425.6,731.048 -1425.51,731.141C-1424.58,732.143 -1423.5,733.84 -1423.4,733.989C-1423.34,734.077 -1422.3,735.455 -1421.95,735.935C-1421.3,736.808 -1420.23,738.277 -1419.95,738.622C-1419.79,738.813 -1417.94,741.481 -1417.85,741.582C-1417.54,741.919 -1416.49,743.363 -1416.45,743.403C-1416.3,743.569 -1412.89,747.347 -1412.85,747.484C-1412.81,747.621 -1412.56,749.188 -1412.51,749.542C-1412.43,750.219 -1411.89,755.396 -1409.12,757.743C-1408.97,757.874 -1408.74,758.038 -1408.62,758.108C-1408.38,758.249 -1408.4,758.081 -1408.35,760.738C-1408.35,761.026 -1407.07,768.945 -1406.76,770.157C-1406.36,771.71 -1405.58,772.434 -1405.45,772.434C-1405.32,772.434 -1404.5,771.608 -1404.14,770.274C-1403.3,767.071 -1402.63,761.506 -1402.61,761.505C-1402.58,761.505 -1402.55,761.16 -1402.54,760.738C-1402.5,758.081 -1402.52,758.249 -1402.27,758.108C-1402.15,758.038 -1401.92,757.886 -1401.77,757.743C-1398.69,754.664 -1398.46,750.219 -1398.38,749.542C-1398.36,749.368 -1398.06,748.095 -1397.73,747.446C-1397.38,746.776 -1394.6,743.569 -1394.44,743.403C-1394.4,743.363 -1393.36,741.919 -1393.04,741.582C-1392.95,741.481 -1391.11,738.813 -1390.95,738.622C-1390.66,738.277 -1389.59,736.808 -1388.95,735.935C-1388.59,735.455 -1387.56,734.077 -1387.5,733.989C-1387.39,733.84 -1386.32,732.143 -1385.38,731.141C-1385.3,731.048 -1382.47,727.293 -1382.42,727.293C-1382.34,727.293 -1381.94,719.639 -1381.92,719.018C-1381.89,718.054 -1381.94,717.865 -1382.27,717.865C-1382.32,717.865 -1382.39,717.83 -1382.42,717.787C-1382.44,717.744 -1382.53,717.73 -1382.62,717.755C-1382.7,717.78 -1397.61,727.515 -1397.56,726.881C-1397.54,726.577 -1397.51,725.494 -1397.5,724.475C-1397.48,722.673 -1397.23,722.567 -1397.09,722.429C-1397.04,722.37 -1395.18,720.78 -1395.04,720.672C-1394.89,720.565 -1393.2,718.987 -1392.95,718.734C-1390.08,715.868 -1390.08,714.96 -1390.03,714.093C-1389.96,712.979 -1390.09,711.638 -1390.17,711.557C-1390.23,711.497 -1390.49,711.385 -1390.74,711.308ZM-1401.93,-306.113L-1409.53,-303.634L-1390.94,-246.587L-1383.34,-249.065L-1401.93,-306.113ZM-1670.02,-341.474C-1670.06,-341.363 -1670.02,-340.941 -1669.88,-340.572C-1669.33,-339.062 -1667.58,-335.994 -1666.76,-334.748C-1666.34,-334.105 -1665.83,-333.787 -1665.72,-333.768C-1664.7,-333.596 -1662.59,-333.521 -1661.8,-333.329C-1661.38,-333.228 -1661.52,-332.874 -1661.57,-332.867C-1661.94,-332.819 -1664.65,-332.419 -1664.74,-332.395C-1665.02,-332.326 -1664.92,-329.428 -1664.92,-329.319C-1664.91,-329.03 -1663.42,-328.886 -1662.48,-328.309C-1661.8,-327.892 -1661.58,-327.031 -1661.58,-326.767C-1661.58,-326.553 -1661.92,-325.655 -1662.42,-325.325C-1663.4,-324.684 -1664.9,-324.544 -1664.92,-324.214C-1664.92,-324.106 -1665.1,-321.262 -1664.82,-321.193C-1664.73,-321.169 -1661.94,-320.715 -1661.57,-320.667C-1661.52,-320.659 -1661.37,-320.31 -1661.79,-320.208C-1662.46,-320.047 -1664.46,-319.997 -1665.75,-319.509C-1666.18,-319.347 -1667.29,-318.101 -1668.18,-316.676C-1668.99,-315.374 -1669.6,-313.88 -1669.66,-313.817C-1669.83,-313.628 -1670.17,-312.698 -1670.14,-312.523C-1670.08,-312.157 -1669.88,-311.598 -1669.77,-311.488C-1669.69,-311.412 -1668.45,-311.242 -1667.37,-311.305C-1666.46,-311.359 -1665.36,-311.258 -1662.77,-313.91C-1662.52,-314.165 -1659.67,-317.462 -1658.88,-318.406C-1658.83,-318.463 -1658.66,-318.803 -1656.86,-318.821C-1655.84,-318.831 -1654.75,-318.859 -1654.45,-318.883C-1653.82,-318.933 -1663.18,-304.841 -1663.18,-304.792C-1663.18,-304.768 -1663.43,-304.463 -1663.5,-304.17C-1663.57,-303.886 -1663.47,-303.613 -1663.47,-303.586C-1663.47,-303.264 -1663.28,-303.207 -1662.31,-303.239C-1661.69,-303.259 -1654.56,-303.636 -1654.38,-303.635C-1654.13,-303.634 -1654.04,-303.66 -1654.04,-303.736C-1654.04,-303.793 -1650.28,-306.616 -1650.19,-306.704C-1649.19,-307.637 -1647.49,-308.712 -1647.34,-308.816C-1647.25,-308.877 -1645.88,-309.914 -1645.4,-310.267C-1644.52,-310.91 -1643.05,-311.982 -1642.71,-312.267C-1642.52,-312.424 -1639.85,-314.27 -1639.75,-314.364C-1639.41,-314.676 -1637.97,-315.722 -1637.93,-315.759C-1637.76,-315.915 -1633.98,-319.321 -1633.85,-319.361C-1633.71,-319.4 -1632.14,-319.659 -1631.79,-319.7C-1631.11,-319.78 -1625.93,-320.32 -1623.59,-323.093C-1623.46,-323.248 -1623.29,-323.472 -1623.22,-323.593C-1623.08,-323.835 -1623.25,-323.818 -1620.59,-323.861C-1620.31,-323.866 -1612.39,-325.144 -1611.17,-325.456C-1609.62,-325.857 -1608.9,-326.633 -1608.9,-326.767C-1608.9,-326.891 -1609.72,-327.715 -1611.06,-328.069C-1614.26,-328.919 -1619.83,-329.585 -1619.83,-329.606C-1619.83,-329.635 -1620.17,-329.665 -1620.59,-329.672C-1623.25,-329.716 -1623.08,-329.699 -1623.22,-329.941C-1623.29,-330.061 -1623.44,-330.297 -1623.59,-330.44C-1626.67,-333.519 -1631.11,-333.754 -1631.79,-333.833C-1631.96,-333.854 -1633.24,-334.157 -1633.88,-334.488C-1634.56,-334.829 -1637.76,-337.619 -1637.93,-337.774C-1637.97,-337.812 -1639.41,-338.857 -1639.75,-339.17C-1639.85,-339.263 -1642.52,-341.109 -1642.71,-341.266C-1643.05,-341.552 -1644.52,-342.623 -1645.4,-343.266C-1645.88,-343.62 -1647.25,-344.656 -1647.34,-344.718C-1647.49,-344.822 -1649.19,-345.897 -1650.19,-346.83C-1650.28,-346.917 -1654.04,-349.741 -1654.04,-349.798C-1654.04,-349.873 -1661.69,-350.274 -1662.31,-350.295C-1663.28,-350.326 -1663.47,-350.269 -1663.47,-349.948C-1663.47,-349.892 -1663.5,-349.824 -1663.54,-349.798C-1663.59,-349.771 -1663.6,-349.681 -1663.58,-349.597C-1663.55,-349.513 -1653.82,-334.601 -1654.45,-334.65C-1654.75,-334.674 -1655.84,-334.702 -1656.86,-334.712C-1658.66,-334.73 -1658.76,-334.982 -1658.9,-335.12C-1658.96,-335.179 -1660.55,-337.033 -1660.66,-337.179C-1660.77,-337.325 -1662.35,-339.014 -1662.6,-339.266C-1665.46,-342.132 -1666.37,-342.137 -1667.24,-342.189C-1668.35,-342.255 -1669.69,-342.121 -1669.77,-342.04C-1669.83,-341.98 -1669.95,-341.725 -1670.02,-341.474ZM-1315.17,-39.912L-1322.77,-37.434L-1304.18,19.614L-1296.58,17.135L-1315.17,-39.912ZM-1400.42,610.291L-1410.48,610.291L-1410.48,691.996L-1400.42,691.996L-1400.42,610.291ZM-1589.54,-501.994L-1597.14,-499.515L-1578.56,-442.468L-1570.95,-444.946L-1589.54,-501.994ZM-1400.42,797.488L-1410.48,797.488L-1410.48,1247.9L-1400.42,1247.9L-1400.42,797.488ZM-1420.3,-787.655L-1427.97,-785.383L-1411.67,-730.349L-1404.01,-732.621L-1420.3,-787.655ZM-1185.06,359.453L-1192.66,361.932L-1174.07,418.979L-1166.47,416.501L-1185.06,359.453ZM-1510.33,-638.887L-1517.93,-636.408L-1499.34,-579.361L-1491.74,-581.839L-1510.33,-638.887ZM-1676.02,514.243C-1676.06,514.354 -1676.02,514.776 -1675.88,515.145C-1675.33,516.655 -1673.58,519.723 -1672.76,520.969C-1672.34,521.612 -1671.83,521.93 -1671.72,521.949C-1670.7,522.121 -1668.59,522.196 -1667.8,522.388C-1667.38,522.489 -1667.52,522.843 -1667.57,522.85C-1667.94,522.898 -1670.65,523.299 -1670.74,523.322C-1671.02,523.391 -1670.92,526.289 -1670.92,526.398C-1670.91,526.688 -1669.42,526.832 -1668.48,527.408C-1667.8,527.825 -1667.58,528.686 -1667.58,528.95C-1667.58,529.164 -1667.92,530.062 -1668.42,530.392C-1669.4,531.033 -1670.9,531.173 -1670.92,531.503C-1670.92,531.611 -1671.1,534.455 -1670.82,534.524C-1670.73,534.548 -1667.94,535.003 -1667.57,535.05C-1667.52,535.058 -1667.37,535.407 -1667.79,535.509C-1668.46,535.67 -1670.46,535.72 -1671.75,536.208C-1672.18,536.371 -1673.29,537.616 -1674.18,539.041C-1674.99,540.343 -1675.6,541.837 -1675.66,541.9C-1675.83,542.089 -1676.17,543.019 -1676.14,543.194C-1676.08,543.56 -1675.88,544.119 -1675.77,544.229C-1675.69,544.305 -1674.45,544.475 -1673.37,544.412C-1672.46,544.359 -1671.36,544.459 -1668.77,541.807C-1668.52,541.552 -1665.67,538.256 -1664.88,537.311C-1664.83,537.254 -1664.66,536.914 -1662.86,536.896C-1661.84,536.886 -1660.75,536.858 -1660.45,536.834C-1659.82,536.784 -1669.18,550.877 -1669.18,550.925C-1669.18,550.949 -1669.43,551.254 -1669.5,551.548C-1669.57,551.832 -1669.47,552.104 -1669.47,552.131C-1669.47,552.453 -1669.28,552.51 -1668.31,552.478C-1667.69,552.458 -1660.56,552.081 -1660.38,552.082C-1660.13,552.084 -1660.04,552.057 -1660.04,551.981C-1660.04,551.924 -1656.28,549.101 -1656.19,549.013C-1655.19,548.08 -1653.49,547.006 -1653.34,546.902C-1653.25,546.84 -1651.88,545.803 -1651.4,545.45C-1650.52,544.807 -1649.05,543.736 -1648.71,543.45C-1648.52,543.293 -1645.85,541.447 -1645.75,541.353C-1645.41,541.041 -1643.97,539.995 -1643.93,539.958C-1643.76,539.802 -1639.98,536.396 -1639.85,536.356C-1639.71,536.317 -1638.14,536.058 -1637.79,536.017C-1637.11,535.937 -1631.93,535.397 -1629.59,532.624C-1629.46,532.469 -1629.29,532.245 -1629.22,532.124C-1629.08,531.882 -1629.25,531.899 -1626.59,531.856C-1626.31,531.851 -1618.39,530.573 -1617.17,530.261C-1615.62,529.86 -1614.9,529.084 -1614.9,528.95C-1614.9,528.826 -1615.72,528.002 -1617.06,527.648C-1620.26,526.798 -1625.83,526.132 -1625.83,526.111C-1625.83,526.082 -1626.17,526.052 -1626.59,526.045C-1629.25,526.001 -1629.08,526.018 -1629.22,525.776C-1629.29,525.656 -1629.44,525.42 -1629.59,525.277C-1632.67,522.198 -1637.11,521.963 -1637.79,521.884C-1637.96,521.864 -1639.24,521.56 -1639.88,521.229C-1640.56,520.888 -1643.76,518.099 -1643.93,517.943C-1643.97,517.905 -1645.41,516.86 -1645.75,516.547C-1645.85,516.454 -1648.52,514.608 -1648.71,514.451C-1649.05,514.165 -1650.52,513.094 -1651.4,512.451C-1651.88,512.097 -1653.25,511.061 -1653.34,510.999C-1653.49,510.895 -1655.19,509.82 -1656.19,508.887C-1656.28,508.8 -1660.04,505.976 -1660.04,505.92C-1660.04,505.844 -1667.69,505.443 -1668.31,505.422C-1669.28,505.391 -1669.47,505.448 -1669.47,505.769C-1669.47,505.825 -1669.5,505.893 -1669.54,505.919C-1669.59,505.946 -1669.6,506.036 -1669.58,506.12C-1669.55,506.204 -1659.82,521.116 -1660.45,521.067C-1660.75,521.043 -1661.84,521.015 -1662.86,521.005C-1664.66,520.987 -1664.76,520.735 -1664.9,520.597C-1664.96,520.538 -1666.55,518.684 -1666.66,518.538C-1666.77,518.392 -1668.35,516.703 -1668.6,516.451C-1671.46,513.585 -1672.37,513.58 -1673.24,513.528C-1674.35,513.462 -1675.69,513.596 -1675.77,513.677C-1675.83,513.737 -1675.95,513.992 -1676.02,514.243ZM-1348.52,237.108L-1356.13,239.587L-1337.54,296.634L-1329.93,294.156L-1348.52,237.108ZM-1353.61,-705.997L-1346.85,-706.823L-1351.92,-748.303L-1358.68,-747.477L-1353.61,-705.997ZM-1228.43,226.289L-1236.04,228.767L-1217.45,285.815L-1209.84,283.336L-1228.43,226.289ZM-1365.86,-603.453L-1373.53,-601.181L-1356.49,-543.65L-1348.82,-545.922L-1365.86,-603.453ZM-1327.35,-704.763L-1358.74,-700.925C-1360.07,-698.557 -1360.6,-695.988 -1360.29,-693.478C-1359.33,-685.585 -1350.42,-680.17 -1340.42,-681.393C-1330.42,-682.616 -1323.08,-690.017 -1324.05,-697.91C-1324.35,-700.42 -1325.49,-702.784 -1327.35,-704.763ZM-1340.22,-707.634L-1333.47,-708.46L-1338.54,-749.939L-1345.29,-749.114L-1340.22,-707.634ZM-1293.47,26.63L-1301.08,29.108L-1282.49,86.156L-1274.88,83.677L-1293.47,26.63ZM-1206.73,292.831L-1214.34,295.31L-1195.75,352.357L-1188.14,349.879L-1206.73,292.831ZM-1518.27,583.996L-1595.15,583.996L-1595.15,592.318L-1518.27,592.318L-1518.27,583.996ZM-1695.57,312.862C-1699.71,312.862 -1703.07,316.223 -1703.07,320.362C-1703.07,324.502 -1699.71,327.862 -1695.57,327.862C-1691.43,327.862 -1688.07,324.502 -1688.07,320.362C-1688.07,316.223 -1691.43,312.862 -1695.57,312.862ZM-1412.97,162.482C-1412.97,162.367 -1413.13,161.974 -1413.37,161.66C-1414.35,160.379 -1416.92,157.957 -1418.06,157.005C-1418.65,156.514 -1419.23,156.358 -1419.35,156.372C-1420.37,156.503 -1422.41,157.049 -1423.22,157.098C-1423.65,157.123 -1423.62,156.745 -1423.57,156.721C-1423.23,156.568 -1420.76,155.394 -1420.68,155.344C-1420.44,155.197 -1421.37,152.453 -1421.41,152.351C-1421.51,152.078 -1422.97,152.374 -1424.04,152.098C-1424.81,151.897 -1425.27,151.138 -1425.35,150.885C-1425.41,150.68 -1425.35,149.724 -1424.96,149.261C-1424.21,148.361 -1422.82,147.789 -1422.9,147.469C-1422.93,147.363 -1423.6,144.594 -1423.88,144.609C-1423.98,144.614 -1426.77,144.993 -1427.14,145.054C-1427.19,145.064 -1427.44,144.773 -1427.06,144.552C-1426.47,144.202 -1424.58,143.571 -1423.49,142.728C-1423.12,142.446 -1422.42,140.93 -1421.99,139.307C-1421.59,137.825 -1421.45,136.217 -1421.41,136.141C-1421.31,135.911 -1421.25,134.92 -1421.33,134.762C-1421.49,134.429 -1421.85,133.954 -1421.99,133.881C-1422.08,133.831 -1423.31,134.029 -1424.33,134.408C-1425.18,134.724 -1426.27,134.949 -1427.97,138.243C-1428.13,138.56 -1429.9,142.547 -1430.38,143.682C-1430.41,143.75 -1430.47,144.125 -1432.19,144.669C-1433.16,144.977 -1434.19,145.32 -1434.47,145.431C-1435.06,145.665 -1430.23,129.45 -1430.24,129.404C-1430.25,129.38 -1430.1,129.016 -1430.12,128.715C-1430.13,128.422 -1430.31,128.193 -1430.32,128.166C-1430.42,127.859 -1430.61,127.86 -1431.53,128.172C-1432.12,128.373 -1438.82,130.817 -1439,130.871C-1439.24,130.942 -1439.32,130.994 -1439.29,131.067C-1439.28,131.121 -1442.04,134.919 -1442.11,135.03C-1442.79,136.215 -1444.1,137.739 -1444.21,137.882C-1444.28,137.967 -1445.29,139.361 -1445.65,139.839C-1446.3,140.709 -1447.39,142.163 -1447.63,142.538C-1447.77,142.744 -1449.78,145.289 -1449.85,145.408C-1450.08,145.805 -1451.16,147.227 -1451.18,147.275C-1451.3,147.472 -1453.92,151.834 -1454.04,151.912C-1454.15,151.99 -1455.58,152.695 -1455.9,152.839C-1456.53,153.112 -1461.32,155.142 -1462.76,158.481C-1462.84,158.667 -1462.93,158.93 -1462.96,159.065C-1463.02,159.338 -1462.87,159.273 -1465.39,160.091C-1465.67,160.18 -1472.87,163.717 -1473.93,164.37C-1475.3,165.208 -1475.77,166.161 -1475.73,166.289C-1475.69,166.408 -1474.66,166.954 -1473.28,166.903C-1469.97,166.779 -1464.45,165.789 -1464.45,165.809C-1464.44,165.837 -1464.1,165.765 -1463.69,165.648C-1461.14,164.913 -1461.31,164.946 -1461.1,165.136C-1461,165.231 -1460.79,165.412 -1460.61,165.507C-1456.76,167.551 -1452.44,166.476 -1451.77,166.354C-1451.6,166.322 -1450.29,166.24 -1449.58,166.367C-1448.84,166.498 -1444.95,168.227 -1444.75,168.328C-1444.7,168.352 -1443.01,168.93 -1442.6,169.13C-1442.48,169.19 -1439.38,170.175 -1439.16,170.27C-1438.74,170.442 -1437.02,171.037 -1436,171.396C-1435.44,171.594 -1433.82,172.183 -1433.72,172.216C-1433.54,172.272 -1431.61,172.803 -1430.38,173.403C-1430.26,173.459 -1425.84,175.061 -1425.83,175.116C-1425.81,175.188 -1418.37,173.334 -1417.77,173.172C-1416.84,172.92 -1416.67,172.81 -1416.77,172.503C-1416.78,172.449 -1416.77,172.374 -1416.74,172.337C-1416.7,172.299 -1416.72,172.208 -1416.77,172.135C-1416.81,172.062 -1430.48,160.648 -1429.86,160.51C-1429.56,160.444 -1428.52,160.154 -1427.54,159.866C-1425.81,159.356 -1425.64,159.566 -1425.47,159.658C-1425.39,159.697 -1423.33,161.005 -1423.18,161.113C-1423.04,161.221 -1421.04,162.375 -1420.72,162.542C-1417.14,164.445 -1416.27,164.184 -1415.43,163.98C-1414.35,163.717 -1413.1,163.198 -1413.05,163.097C-1413.01,163.022 -1412.98,162.745 -1412.97,162.482ZM-1543.17,-739.364L-1550.78,-736.885L-1542.82,-712.451L-1535.21,-714.929L-1543.17,-739.364ZM-1289.72,417.761L-1297.33,420.24L-1277.63,480.706L-1270.02,478.227L-1289.72,417.761ZM-1663.87,-674.934L-1671.48,-672.456L-1293.96,486.079L-1286.36,483.601L-1663.87,-674.934ZM-1398,217.834C-1398,217.718 -1398.16,217.325 -1398.4,217.012C-1399.37,215.731 -1401.94,213.308 -1403.09,212.356C-1403.68,211.865 -1404.26,211.709 -1404.37,211.724C-1405.39,211.855 -1407.43,212.401 -1408.24,212.449C-1408.67,212.475 -1408.65,212.096 -1408.6,212.073C-1408.26,211.92 -1405.79,210.746 -1405.7,210.695C-1405.46,210.549 -1406.4,207.805 -1406.43,207.702C-1406.53,207.429 -1407.99,207.726 -1409.06,207.449C-1409.83,207.249 -1410.29,206.489 -1410.37,206.237C-1410.43,206.032 -1410.38,205.076 -1409.99,204.613C-1409.24,203.713 -1407.84,203.14 -1407.92,202.82C-1407.95,202.715 -1408.62,199.946 -1408.9,199.96C-1409,199.965 -1411.8,200.345 -1412.16,200.406C-1412.22,200.415 -1412.46,200.125 -1412.09,199.904C-1411.5,199.554 -1409.6,198.922 -1408.51,198.079C-1408.15,197.798 -1407.45,196.281 -1407.01,194.659C-1406.62,193.177 -1406.47,191.569 -1406.44,191.493C-1406.33,191.263 -1406.27,190.272 -1406.35,190.114C-1406.52,189.781 -1406.87,189.306 -1407.01,189.233C-1407.1,189.182 -1408.34,189.381 -1409.36,189.76C-1410.21,190.075 -1411.29,190.301 -1412.99,193.594C-1413.15,193.911 -1414.92,197.899 -1415.4,199.033C-1415.43,199.102 -1415.5,199.477 -1417.21,200.021C-1418.18,200.328 -1419.21,200.672 -1419.5,200.783C-1420.09,201.016 -1415.25,184.802 -1415.27,184.755C-1415.27,184.732 -1415.12,184.368 -1415.14,184.066C-1415.16,183.774 -1415.34,183.544 -1415.35,183.518C-1415.44,183.211 -1415.64,183.211 -1416.55,183.523C-1417.14,183.725 -1423.85,186.169 -1424.02,186.223C-1424.26,186.294 -1424.34,186.346 -1424.32,186.418C-1424.3,186.473 -1427.07,190.271 -1427.13,190.382C-1427.82,191.567 -1429.12,193.091 -1429.24,193.234C-1429.3,193.319 -1430.32,194.713 -1430.67,195.191C-1431.32,196.061 -1432.41,197.515 -1432.66,197.889C-1432.8,198.095 -1434.81,200.641 -1434.88,200.759C-1435.11,201.157 -1436.18,202.579 -1436.21,202.626C-1436.32,202.824 -1438.94,207.186 -1439.06,207.264C-1439.18,207.342 -1440.6,208.047 -1440.93,208.19C-1441.55,208.464 -1446.35,210.494 -1447.78,213.833C-1447.86,214.019 -1447.95,214.281 -1447.98,214.417C-1448.05,214.69 -1447.89,214.624 -1450.42,215.443C-1450.69,215.532 -1457.89,219.069 -1458.96,219.722C-1460.33,220.559 -1460.79,221.513 -1460.75,221.641C-1460.72,221.759 -1459.69,222.306 -1458.31,222.254C-1455,222.131 -1449.48,221.141 -1449.47,221.161C-1449.46,221.189 -1449.12,221.116 -1448.72,221C-1446.16,220.264 -1446.33,220.297 -1446.13,220.488C-1446.02,220.582 -1445.81,220.764 -1445.63,220.859C-1441.79,222.903 -1437.47,221.828 -1436.8,221.705C-1436.62,221.674 -1435.32,221.592 -1434.6,221.719C-1433.86,221.849 -1429.98,223.579 -1429.77,223.679C-1429.72,223.704 -1428.04,224.281 -1427.62,224.482C-1427.5,224.541 -1424.41,225.527 -1424.18,225.621C-1423.77,225.793 -1422.05,226.388 -1421.03,226.748C-1420.46,226.946 -1418.84,227.534 -1418.74,227.567C-1418.57,227.623 -1416.63,228.155 -1415.4,228.755C-1415.28,228.811 -1410.87,230.413 -1410.85,230.467C-1410.83,230.54 -1403.39,228.686 -1402.79,228.524C-1401.86,228.272 -1401.7,228.162 -1401.79,227.854C-1401.81,227.801 -1401.79,227.726 -1401.76,227.688C-1401.73,227.651 -1401.74,227.56 -1401.79,227.487C-1401.84,227.414 -1415.51,215.999 -1414.89,215.861C-1414.59,215.795 -1413.55,215.506 -1412.57,215.217C-1410.84,214.708 -1410.66,214.918 -1410.49,215.009C-1410.42,215.049 -1408.36,216.357 -1408.21,216.465C-1408.06,216.573 -1406.06,217.726 -1405.75,217.894C-1402.17,219.797 -1401.3,219.536 -1400.45,219.332C-1399.37,219.069 -1398.12,218.55 -1398.07,218.448C-1398.03,218.374 -1398,218.097 -1398,217.834ZM-1342.17,-572.018L-1332.43,-572.018L-1332.43,-588.706L-1322.64,-588.706L-1322.64,-572.018L-1312.91,-572.018L-1312.91,-618.706C-1312.91,-622.331 -1313.86,-625.456 -1315.78,-628.081C-1317.69,-630.706 -1319.98,-632.018 -1322.64,-632.018L-1332.43,-632.018C-1335.1,-632.018 -1337.39,-630.711 -1339.3,-628.096C-1341.21,-625.482 -1342.17,-622.351 -1342.17,-618.706L-1342.17,-572.018ZM-1332.43,-595.331L-1332.43,-614.706C-1332.43,-616.518 -1331.95,-618.075 -1330.99,-619.377C-1330.03,-620.679 -1328.88,-621.331 -1327.54,-621.331C-1326.21,-621.331 -1325.07,-620.679 -1324.1,-619.377C-1323.13,-618.075 -1322.64,-616.518 -1322.64,-614.706L-1322.64,-595.331L-1332.43,-595.331ZM-1650.95,-690.769L-1658.56,-688.291L-1638.78,-627.602L-1631.18,-630.08L-1650.95,-690.769ZM-1636.67,-707.745L-1644.27,-705.267L-1259.69,474.966L-1252.08,472.487L-1636.67,-707.745ZM-1433.86,-784.014L-1441.53,-781.743L-1094.18,391.271L-1086.51,388.999L-1433.86,-784.014ZM-1350.49,384.024C-1350.49,383.909 -1350.65,383.516 -1350.88,383.203C-1351.86,381.921 -1354.43,379.499 -1355.58,378.547C-1356.17,378.056 -1356.75,377.9 -1356.86,377.914C-1357.88,378.046 -1359.92,378.591 -1360.73,378.64C-1361.16,378.666 -1361.13,378.287 -1361.08,378.264C-1360.75,378.111 -1358.28,376.937 -1358.19,376.886C-1357.95,376.74 -1358.88,373.995 -1358.92,373.893C-1359.02,373.62 -1360.48,373.917 -1361.55,373.64C-1362.32,373.44 -1362.78,372.68 -1362.86,372.427C-1362.92,372.223 -1362.86,371.266 -1362.48,370.804C-1361.72,369.903 -1360.33,369.331 -1360.41,369.011C-1360.44,368.906 -1361.11,366.136 -1361.39,366.151C-1361.49,366.156 -1364.29,366.535 -1364.65,366.597C-1364.71,366.606 -1364.95,366.316 -1364.58,366.094C-1363.98,365.745 -1362.09,365.113 -1361,364.27C-1360.63,363.989 -1359.93,362.472 -1359.5,360.849C-1359.1,359.367 -1358.96,357.76 -1358.92,357.683C-1358.82,357.453 -1358.76,356.462 -1358.84,356.304C-1359,355.971 -1359.36,355.496 -1359.5,355.423C-1359.59,355.373 -1360.82,355.572 -1361.84,355.95C-1362.69,356.266 -1363.78,356.491 -1365.48,359.785C-1365.64,360.102 -1367.41,364.089 -1367.89,365.224C-1367.92,365.292 -1367.98,365.667 -1369.7,366.211C-1370.67,366.519 -1371.7,366.862 -1371.98,366.974C-1372.58,367.207 -1367.74,350.992 -1367.75,350.946C-1367.76,350.922 -1367.61,350.558 -1367.63,350.257C-1367.64,349.965 -1367.83,349.735 -1367.83,349.709C-1367.93,349.401 -1368.12,349.402 -1369.04,349.714C-1369.63,349.915 -1376.33,352.36 -1376.51,352.413C-1376.75,352.484 -1376.83,352.537 -1376.81,352.609C-1376.79,352.663 -1379.56,356.461 -1379.62,356.572C-1380.3,357.757 -1381.61,359.281 -1381.72,359.424C-1381.79,359.509 -1382.81,360.903 -1383.16,361.382C-1383.81,362.252 -1384.9,363.706 -1385.15,364.08C-1385.28,364.286 -1387.3,366.831 -1387.36,366.95C-1387.59,367.347 -1388.67,368.769 -1388.7,368.817C-1388.81,369.014 -1391.43,373.377 -1391.55,373.454C-1391.67,373.532 -1393.09,374.238 -1393.41,374.381C-1394.04,374.655 -1398.83,376.685 -1400.27,380.023C-1400.35,380.209 -1400.44,380.472 -1400.47,380.607C-1400.53,380.88 -1400.38,380.815 -1402.9,381.633C-1403.18,381.722 -1410.38,385.259 -1411.45,385.912C-1412.82,386.75 -1413.28,387.704 -1413.24,387.831C-1413.2,387.95 -1412.17,388.496 -1410.8,388.445C-1407.48,388.321 -1401.97,387.331 -1401.96,387.351C-1401.95,387.379 -1401.61,387.307 -1401.21,387.19C-1398.65,386.455 -1398.82,386.488 -1398.61,386.678C-1398.51,386.773 -1398.3,386.954 -1398.12,387.049C-1394.27,389.093 -1389.95,388.018 -1389.28,387.896C-1389.11,387.865 -1387.81,387.783 -1387.09,387.909C-1386.35,388.04 -1382.46,389.77 -1382.26,389.87C-1382.21,389.894 -1380.52,390.472 -1380.11,390.672C-1379.99,390.732 -1376.9,391.717 -1376.67,391.812C-1376.25,391.984 -1374.54,392.579 -1373.51,392.939C-1372.95,393.136 -1371.33,393.725 -1371.23,393.758C-1371.05,393.814 -1369.12,394.346 -1367.89,394.945C-1367.77,395.001 -1363.36,396.604 -1363.34,396.658C-1363.32,396.73 -1355.88,394.876 -1355.28,394.714C-1354.35,394.462 -1354.18,394.353 -1354.28,394.045C-1354.3,393.991 -1354.28,393.916 -1354.25,393.879C-1354.21,393.841 -1354.23,393.75 -1354.28,393.678C-1354.33,393.605 -1368,382.19 -1367.37,382.052C-1367.08,381.986 -1366.03,381.696 -1365.05,381.408C-1363.33,380.898 -1363.15,381.108 -1362.98,381.2C-1362.9,381.239 -1360.84,382.547 -1360.7,382.655C-1360.55,382.764 -1358.55,383.917 -1358.23,384.084C-1354.65,385.987 -1353.78,385.727 -1352.94,385.522C-1351.86,385.26 -1350.61,384.74 -1350.56,384.639C-1350.52,384.564 -1350.49,384.287 -1350.49,384.024ZM-1197.55,-35.497L-1205.22,-33.225L-1188.19,24.305L-1180.52,22.034L-1197.55,-35.497ZM-1144.97,141.912L-1152.64,144.184L-1135.6,201.714L-1127.93,199.443L-1144.97,141.912ZM-1380.23,-239.571L-1387.84,-237.092L-1369.25,-180.044L-1361.64,-182.523L-1380.23,-239.571ZM-1358.52,-173.027L-1366.13,-170.549L-1347.54,-113.501L-1339.93,-115.98L-1358.52,-173.027ZM-1601.88,222.032C-1601.66,221.67 -1567.62,195.335 -1562.93,190.702C-1558.56,186.378 -1558.54,186.378 -1558.49,162.051C-1558.44,141.259 -1557.64,112.626 -1589.78,92.372C-1610.37,79.397 -1647.25,83.676 -1658.83,87.905C-1673.49,93.258 -1679.07,110.782 -1679.88,113.455C-1682.74,122.854 -1682.66,203.095 -1682.13,203.158C-1681.69,203.21 -1660.6,218.276 -1659.64,219.172C-1658.06,220.647 -1601.88,222.032 -1601.88,222.032ZM-1594.1,119.869C-1583.15,119.869 -1574.26,128.762 -1574.26,139.716C-1574.26,150.67 -1583.15,159.563 -1594.1,159.563C-1605.06,159.563 -1613.95,150.67 -1613.95,139.716C-1613.95,128.762 -1605.06,119.869 -1594.1,119.869ZM-1639.59,149.006C-1623.04,149.006 -1609.6,162.447 -1609.6,179.003C-1609.6,195.558 -1623.04,208.999 -1639.59,208.999C-1656.15,208.999 -1669.59,195.558 -1669.59,179.003C-1669.59,162.447 -1656.15,149.006 -1639.59,149.006ZM-1647.49,100.022C-1636.54,100.022 -1627.64,108.916 -1627.64,119.869C-1627.64,130.823 -1636.54,139.716 -1647.49,139.716C-1658.44,139.716 -1667.34,130.823 -1667.34,119.869C-1667.34,108.916 -1658.44,100.022 -1647.49,100.022ZM-1468.59,-131.089L-1476.19,-128.61L-1457.6,-71.562L-1450,-74.041L-1468.59,-131.089ZM-1551.68,610.291L-1561.74,610.291L-1561.74,1247.9L-1551.68,1247.9L-1551.68,610.291ZM-1532.02,-705.429L-1539.63,-702.951L-1521.04,-645.903L-1513.43,-648.381L-1532.02,-705.429ZM-1405.9,61.19L-1413.51,63.669L-1394.92,120.716L-1387.31,118.238L-1405.9,61.19ZM-1310.2,-416.019L-1317.87,-413.747L-1300.83,-356.217L-1293.16,-358.488L-1310.2,-416.019ZM-1676.02,630.931C-1676.06,631.041 -1676.02,631.464 -1675.88,631.833C-1675.33,633.343 -1673.58,636.411 -1672.76,637.657C-1672.34,638.299 -1671.83,638.618 -1671.72,638.637C-1670.7,638.809 -1668.59,638.884 -1667.8,639.075C-1667.38,639.176 -1667.52,639.531 -1667.57,639.538C-1667.94,639.586 -1670.65,639.986 -1670.74,640.01C-1671.02,640.079 -1670.92,642.977 -1670.92,643.086C-1670.91,643.375 -1669.42,643.519 -1668.48,644.096C-1667.8,644.512 -1667.58,645.374 -1667.58,645.638C-1667.58,645.852 -1667.92,646.75 -1668.42,647.079C-1669.4,647.721 -1670.9,647.861 -1670.92,648.19C-1670.92,648.299 -1671.1,651.143 -1670.82,651.212C-1670.73,651.235 -1667.94,651.69 -1667.57,651.738C-1667.52,651.745 -1667.37,652.095 -1667.79,652.197C-1668.46,652.358 -1670.46,652.408 -1671.75,652.896C-1672.18,653.058 -1673.29,654.304 -1674.18,655.729C-1674.99,657.03 -1675.6,658.525 -1675.66,658.588C-1675.83,658.777 -1676.17,659.707 -1676.14,659.881C-1676.08,660.248 -1675.88,660.806 -1675.77,660.917C-1675.69,660.993 -1674.45,661.163 -1673.37,661.099C-1672.46,661.046 -1671.36,661.146 -1668.77,658.495C-1668.52,658.239 -1665.67,654.943 -1664.88,653.999C-1664.83,653.942 -1664.66,653.601 -1662.86,653.583C-1661.84,653.573 -1660.75,653.545 -1660.45,653.522C-1659.82,653.472 -1669.18,667.564 -1669.18,667.613C-1669.18,667.637 -1669.43,667.942 -1669.5,668.235C-1669.57,668.519 -1669.47,668.791 -1669.47,668.819C-1669.47,669.141 -1669.28,669.198 -1668.31,669.166C-1667.69,669.146 -1660.56,668.769 -1660.38,668.77C-1660.13,668.771 -1660.04,668.744 -1660.04,668.669C-1660.04,668.612 -1656.28,665.788 -1656.19,665.701C-1655.19,664.768 -1653.49,663.693 -1653.34,663.589C-1653.25,663.527 -1651.88,662.491 -1651.4,662.137C-1650.52,661.495 -1649.05,660.423 -1648.71,660.137C-1648.52,659.98 -1645.85,658.134 -1645.75,658.041C-1645.41,657.729 -1643.97,656.683 -1643.93,656.645C-1643.76,656.49 -1639.98,653.083 -1639.85,653.044C-1639.71,653.004 -1638.14,652.746 -1637.79,652.704C-1637.11,652.625 -1631.93,652.085 -1629.59,649.311C-1629.46,649.157 -1629.29,648.932 -1629.22,648.812C-1629.08,648.57 -1629.25,648.587 -1626.59,648.543C-1626.31,648.539 -1618.39,647.261 -1617.17,646.948C-1615.62,646.547 -1614.9,645.771 -1614.9,645.638C-1614.9,645.514 -1615.72,644.69 -1617.06,644.336C-1620.26,643.486 -1625.83,642.82 -1625.83,642.799C-1625.83,642.769 -1626.17,642.739 -1626.59,642.733C-1629.25,642.689 -1629.08,642.706 -1629.22,642.464C-1629.29,642.344 -1629.44,642.107 -1629.59,641.964C-1632.67,638.886 -1637.11,638.651 -1637.79,638.572C-1637.96,638.551 -1639.24,638.248 -1639.88,637.917C-1640.56,637.576 -1643.76,634.786 -1643.93,634.63C-1643.97,634.593 -1645.41,633.547 -1645.75,633.235C-1645.85,633.142 -1648.52,631.296 -1648.71,631.138C-1649.05,630.853 -1650.52,629.781 -1651.4,629.139C-1651.88,628.785 -1653.25,627.748 -1653.34,627.687C-1653.49,627.583 -1655.19,626.508 -1656.19,625.575C-1656.28,625.488 -1660.04,622.664 -1660.04,622.607C-1660.04,622.532 -1667.69,622.13 -1668.31,622.11C-1669.28,622.078 -1669.47,622.135 -1669.47,622.457C-1669.47,622.513 -1669.5,622.581 -1669.54,622.607C-1669.59,622.633 -1669.6,622.724 -1669.58,622.808C-1669.55,622.892 -1659.82,637.804 -1660.45,637.754C-1660.75,637.73 -1661.84,637.703 -1662.86,637.692C-1664.66,637.674 -1664.76,637.422 -1664.9,637.284C-1664.96,637.225 -1666.55,635.371 -1666.66,635.225C-1666.77,635.079 -1668.35,633.391 -1668.6,633.138C-1671.46,630.273 -1672.37,630.267 -1673.24,630.216C-1674.35,630.15 -1675.69,630.283 -1675.77,630.364C-1675.83,630.424 -1675.95,630.679 -1676.02,630.931ZM-1561.38,-111.165C-1541.88,-111.436 -1543.11,-111.017 -1545.58,-116.565C-1548.07,-122.143 -1580.28,-266.684 -1606.44,-267.431C-1610.73,-267.554 -1643.97,-269.226 -1649.13,-269.536C-1658.5,-270.099 -1658.5,-270.099 -1658.76,-251.849C-1658.9,-241.811 -1657.53,-114.154 -1657.53,-114.154C-1657.53,-114.154 -1571.07,-111.031 -1561.38,-111.165ZM-1642.32,-203.703C-1642.32,-203.703 -1635.34,-249.569 -1618.75,-249.569C-1602.15,-249.569 -1594.1,-203.703 -1594.1,-203.703L-1594.1,-123.332L-1642.32,-123.332L-1642.32,-203.703ZM-1381.99,273.239C-1381.99,273.124 -1382.15,272.731 -1382.39,272.418C-1383.36,271.136 -1385.93,268.714 -1387.08,267.762C-1387.67,267.271 -1388.25,267.115 -1388.36,267.129C-1389.38,267.261 -1391.42,267.806 -1392.24,267.855C-1392.67,267.881 -1392.64,267.502 -1392.59,267.479C-1392.25,267.326 -1389.78,266.152 -1389.7,266.101C-1389.45,265.955 -1390.39,263.21 -1390.43,263.108C-1390.52,262.835 -1391.99,263.132 -1393.05,262.855C-1393.82,262.655 -1394.28,261.895 -1394.36,261.642C-1394.42,261.438 -1394.37,260.482 -1393.98,260.019C-1393.23,259.118 -1391.84,258.546 -1391.92,258.226C-1391.94,258.121 -1392.61,255.352 -1392.9,255.366C-1392.99,255.371 -1395.79,255.75 -1396.15,255.812C-1396.21,255.821 -1396.46,255.531 -1396.08,255.309C-1395.49,254.96 -1393.59,254.328 -1392.5,253.485C-1392.14,253.204 -1391.44,251.687 -1391.01,250.065C-1390.61,248.582 -1390.46,246.975 -1390.43,246.899C-1390.32,246.669 -1390.26,245.678 -1390.34,245.519C-1390.51,245.187 -1390.86,244.712 -1391,244.638C-1391.1,244.588 -1392.33,244.787 -1393.35,245.165C-1394.2,245.481 -1395.28,245.707 -1396.98,249C-1397.15,249.317 -1398.92,253.305 -1399.4,254.439C-1399.43,254.507 -1399.49,254.882 -1401.21,255.426C-1402.18,255.734 -1403.2,256.077 -1403.49,256.189C-1404.08,256.422 -1399.25,240.207 -1399.26,240.161C-1399.27,240.138 -1399.12,239.773 -1399.13,239.472C-1399.15,239.18 -1399.33,238.95 -1399.34,238.924C-1399.43,238.616 -1399.63,238.617 -1400.54,238.929C-1401.13,239.13 -1407.84,241.575 -1408.02,241.628C-1408.26,241.7 -1408.33,241.752 -1408.31,241.824C-1408.3,241.878 -1411.06,245.677 -1411.12,245.787C-1411.81,246.973 -1413.12,248.496 -1413.23,248.64C-1413.3,248.724 -1414.31,250.118 -1414.67,250.597C-1415.31,251.467 -1416.4,252.921 -1416.65,253.295C-1416.79,253.501 -1418.8,256.047 -1418.87,256.165C-1419.1,256.562 -1420.17,257.985 -1420.2,258.032C-1420.32,258.23 -1422.93,262.592 -1423.05,262.67C-1423.17,262.748 -1424.6,263.453 -1424.92,263.596C-1425.55,263.87 -1430.34,265.9 -1431.77,269.238C-1431.85,269.424 -1431.94,269.687 -1431.97,269.823C-1432.04,270.095 -1431.88,270.03 -1434.41,270.848C-1434.68,270.937 -1441.88,274.475 -1442.95,275.127C-1444.32,275.965 -1444.79,276.919 -1444.75,277.047C-1444.71,277.165 -1443.68,277.711 -1442.3,277.66C-1438.99,277.537 -1433.47,276.547 -1433.46,276.567C-1433.46,276.595 -1433.12,276.522 -1432.71,276.405C-1430.16,275.67 -1430.32,275.703 -1430.12,275.893C-1430.02,275.988 -1429.8,276.169 -1429.62,276.264C-1425.78,278.309 -1421.46,277.233 -1420.79,277.111C-1420.62,277.08 -1419.31,276.998 -1418.59,277.124C-1417.85,277.255 -1413.97,278.985 -1413.77,279.085C-1413.72,279.109 -1412.03,279.687 -1411.62,279.887C-1411.49,279.947 -1408.4,280.932 -1408.17,281.027C-1407.76,281.199 -1406.04,281.794 -1405.02,282.154C-1404.46,282.352 -1402.84,282.94 -1402.73,282.973C-1402.56,283.029 -1400.62,283.561 -1399.39,284.16C-1399.28,284.216 -1394.86,285.819 -1394.84,285.873C-1394.82,285.945 -1387.39,284.091 -1386.79,283.929C-1385.85,283.678 -1385.69,283.568 -1385.78,283.26C-1385.8,283.207 -1385.79,283.132 -1385.75,283.094C-1385.72,283.056 -1385.73,282.966 -1385.78,282.893C-1385.83,282.82 -1399.5,271.405 -1398.88,271.267C-1398.58,271.201 -1397.54,270.911 -1396.56,270.623C-1394.83,270.113 -1394.66,270.324 -1394.48,270.415C-1394.41,270.454 -1392.35,271.762 -1392.2,271.871C-1392.06,271.979 -1390.05,273.132 -1389.74,273.3C-1386.16,275.202 -1385.29,274.942 -1384.45,274.738C-1383.36,274.475 -1382.12,273.955 -1382.06,273.854C-1382.02,273.779 -1381.99,273.503 -1381.99,273.239ZM-1366.8,328.602C-1366.8,328.487 -1366.96,328.094 -1367.2,327.781C-1368.17,326.499 -1370.74,324.077 -1371.89,323.125C-1372.48,322.634 -1373.06,322.478 -1373.17,322.492C-1374.19,322.624 -1376.23,323.169 -1377.05,323.218C-1377.48,323.244 -1377.45,322.865 -1377.4,322.842C-1377.06,322.689 -1374.59,321.515 -1374.51,321.464C-1374.27,321.318 -1375.2,318.573 -1375.24,318.471C-1375.34,318.198 -1376.8,318.495 -1377.86,318.218C-1378.63,318.018 -1379.1,317.258 -1379.17,317.005C-1379.24,316.801 -1379.18,315.844 -1378.79,315.382C-1378.04,314.481 -1376.65,313.909 -1376.73,313.589C-1376.76,313.484 -1377.42,310.714 -1377.71,310.729C-1377.81,310.734 -1380.6,311.113 -1380.97,311.175C-1381.02,311.184 -1381.27,310.894 -1380.89,310.672C-1380.3,310.323 -1378.4,309.691 -1377.31,308.848C-1376.95,308.567 -1376.25,307.05 -1375.82,305.427C-1375.42,303.945 -1375.28,302.338 -1375.24,302.261C-1375.13,302.031 -1375.07,301.041 -1375.15,300.882C-1375.32,300.55 -1375.67,300.074 -1375.81,300.001C-1375.91,299.951 -1377.14,300.15 -1378.16,300.528C-1379.01,300.844 -1380.09,301.069 -1381.8,304.363C-1381.96,304.68 -1383.73,308.667 -1384.21,309.802C-1384.24,309.87 -1384.3,310.245 -1386.02,310.789C-1386.99,311.097 -1388.02,311.44 -1388.3,311.552C-1388.89,311.785 -1384.06,295.57 -1384.07,295.524C-1384.08,295.5 -1383.93,295.136 -1383.94,294.835C-1383.96,294.543 -1384.14,294.313 -1384.15,294.287C-1384.24,293.979 -1384.44,293.98 -1385.35,294.292C-1385.94,294.493 -1392.65,296.938 -1392.83,296.991C-1393.07,297.063 -1393.14,297.115 -1393.12,297.187C-1393.11,297.241 -1395.87,301.039 -1395.93,301.15C-1396.62,302.335 -1397.93,303.859 -1398.04,304.002C-1398.11,304.087 -1399.12,305.481 -1399.48,305.96C-1400.12,306.83 -1401.21,308.284 -1401.46,308.658C-1401.6,308.864 -1403.61,311.41 -1403.68,311.528C-1403.91,311.925 -1404.99,313.347 -1405.01,313.395C-1405.13,313.593 -1407.74,317.955 -1407.86,318.033C-1407.98,318.11 -1409.41,318.816 -1409.73,318.959C-1410.36,319.233 -1415.15,321.263 -1416.58,324.601C-1416.66,324.787 -1416.75,325.05 -1416.79,325.186C-1416.85,325.458 -1416.69,325.393 -1419.22,326.211C-1419.5,326.3 -1426.7,329.837 -1427.76,330.49C-1429.13,331.328 -1429.6,332.282 -1429.56,332.409C-1429.52,332.528 -1428.49,333.074 -1427.11,333.023C-1423.8,332.9 -1418.28,331.91 -1418.28,331.929C-1418.27,331.958 -1417.93,331.885 -1417.52,331.768C-1414.97,331.033 -1415.13,331.066 -1414.93,331.256C-1414.83,331.351 -1414.61,331.532 -1414.43,331.627C-1410.59,333.671 -1406.27,332.596 -1405.6,332.474C-1405.43,332.443 -1404.12,332.361 -1403.4,332.487C-1402.66,332.618 -1398.78,334.348 -1398.58,334.448C-1398.53,334.472 -1396.84,335.05 -1396.43,335.25C-1396.3,335.31 -1393.21,336.295 -1392.98,336.39C-1392.57,336.562 -1390.85,337.157 -1389.83,337.517C-1389.27,337.714 -1387.65,338.303 -1387.54,338.336C-1387.37,338.392 -1385.43,338.924 -1384.2,339.523C-1384.09,339.579 -1379.67,341.182 -1379.65,341.236C-1379.63,341.308 -1372.2,339.454 -1371.6,339.292C-1370.66,339.04 -1370.5,338.931 -1370.6,338.623C-1370.61,338.569 -1370.6,338.495 -1370.56,338.457C-1370.53,338.419 -1370.54,338.329 -1370.59,338.256C-1370.64,338.183 -1384.31,326.768 -1383.69,326.63C-1383.39,326.564 -1382.35,326.274 -1381.37,325.986C-1379.64,325.476 -1379.47,325.686 -1379.3,325.778C-1379.22,325.817 -1377.16,327.125 -1377.01,327.233C-1376.87,327.342 -1374.87,328.495 -1374.55,328.663C-1370.97,330.565 -1370.1,330.305 -1369.26,330.1C-1368.17,329.838 -1366.93,329.318 -1366.88,329.217C-1366.84,329.142 -1366.8,328.865 -1366.8,328.602ZM-1406.36,-791.657L-1414.03,-789.385L-1357.41,-598.196L-1349.84,-572.018L-1349.74,-600.468L-1406.36,-791.657ZM-1423.59,-372.686L-1431.19,-370.207L-1412.6,-313.159L-1405,-315.638L-1423.59,-372.686ZM-1327.54,-484.534L-1317.8,-484.534L-1317.8,-501.222L-1308.01,-501.222L-1308.01,-484.534L-1298.28,-484.534L-1298.28,-531.222C-1298.28,-534.847 -1299.23,-537.972 -1301.14,-540.597C-1303.06,-543.222 -1305.35,-544.534 -1308.01,-544.534L-1317.8,-544.534C-1320.47,-544.534 -1322.76,-543.227 -1324.67,-540.612C-1326.58,-537.998 -1327.54,-534.868 -1327.54,-531.222L-1327.54,-484.534ZM-1317.8,-507.847L-1317.8,-527.222C-1317.8,-529.034 -1317.32,-530.592 -1316.36,-531.894C-1315.4,-533.196 -1314.25,-533.847 -1312.91,-533.847C-1311.58,-533.847 -1310.43,-533.196 -1309.47,-531.894C-1308.5,-530.592 -1308.01,-529.034 -1308.01,-527.222L-1308.01,-507.847L-1317.8,-507.847ZM-1091.09,324.093L-1098.76,326.364L-1080.7,387.342L-1073.03,385.071L-1091.09,324.093ZM-1255,-229.404L-1262.67,-227.133L-1245.64,-169.602L-1237.97,-171.874L-1255,-229.404ZM-1336.83,-106.485L-1344.43,-104.007L-1325.84,-46.959L-1318.24,-49.437L-1336.83,-106.485ZM-1676.02,572.587C-1676.06,572.697 -1676.02,573.12 -1675.88,573.489C-1675.33,574.999 -1673.58,578.067 -1672.76,579.313C-1672.34,579.955 -1671.83,580.274 -1671.72,580.293C-1670.7,580.465 -1668.59,580.54 -1667.8,580.732C-1667.38,580.833 -1667.52,581.187 -1667.57,581.194C-1667.94,581.242 -1670.65,581.642 -1670.74,581.666C-1671.02,581.735 -1670.92,584.633 -1670.92,584.742C-1670.91,585.031 -1669.42,585.175 -1668.48,585.752C-1667.8,586.169 -1667.58,587.03 -1667.58,587.294C-1667.58,587.508 -1667.92,588.406 -1668.42,588.736C-1669.4,589.377 -1670.9,589.517 -1670.92,589.847C-1670.92,589.955 -1671.1,592.799 -1670.82,592.868C-1670.73,592.892 -1667.94,593.346 -1667.57,593.394C-1667.52,593.402 -1667.37,593.751 -1667.79,593.853C-1668.46,594.014 -1670.46,594.064 -1671.75,594.552C-1672.18,594.714 -1673.29,595.96 -1674.18,597.385C-1674.99,598.686 -1675.6,600.181 -1675.66,600.244C-1675.83,600.433 -1676.17,601.363 -1676.14,601.537C-1676.08,601.904 -1675.88,602.462 -1675.77,602.573C-1675.69,602.649 -1674.45,602.819 -1673.37,602.755C-1672.46,602.702 -1671.36,602.803 -1668.77,600.151C-1668.52,599.895 -1665.67,596.599 -1664.88,595.655C-1664.83,595.598 -1664.66,595.258 -1662.86,595.24C-1661.84,595.229 -1660.75,595.202 -1660.45,595.178C-1659.82,595.128 -1669.18,609.22 -1669.18,609.269C-1669.18,609.293 -1669.43,609.598 -1669.5,609.891C-1669.57,610.175 -1669.47,610.448 -1669.47,610.475C-1669.47,610.797 -1669.28,610.854 -1668.31,610.822C-1667.69,610.802 -1660.56,610.425 -1660.38,610.426C-1660.13,610.427 -1660.04,610.401 -1660.04,610.325C-1660.04,610.268 -1656.28,607.444 -1656.19,607.357C-1655.19,606.424 -1653.49,605.349 -1653.34,605.245C-1653.25,605.184 -1651.88,604.147 -1651.4,603.794C-1650.52,603.151 -1649.05,602.079 -1648.71,601.794C-1648.52,601.636 -1645.85,599.79 -1645.75,599.697C-1645.41,599.385 -1643.97,598.339 -1643.93,598.302C-1643.76,598.146 -1639.98,594.74 -1639.85,594.7C-1639.71,594.66 -1638.14,594.402 -1637.79,594.361C-1637.11,594.281 -1631.93,593.741 -1629.59,590.968C-1629.46,590.813 -1629.29,590.588 -1629.22,590.468C-1629.08,590.226 -1629.25,590.243 -1626.59,590.2C-1626.31,590.195 -1618.39,588.917 -1617.17,588.605C-1615.62,588.204 -1614.9,587.428 -1614.9,587.294C-1614.9,587.17 -1615.72,586.346 -1617.06,585.992C-1620.26,585.142 -1625.83,584.476 -1625.83,584.455C-1625.83,584.425 -1626.17,584.396 -1626.59,584.389C-1629.25,584.345 -1629.08,584.362 -1629.22,584.12C-1629.29,584 -1629.44,583.764 -1629.59,583.621C-1632.67,580.542 -1637.11,580.307 -1637.79,580.228C-1637.96,580.207 -1639.24,579.904 -1639.88,579.573C-1640.56,579.232 -1643.76,576.442 -1643.93,576.287C-1643.97,576.249 -1645.41,575.203 -1645.75,574.891C-1645.85,574.798 -1648.52,572.952 -1648.71,572.795C-1649.05,572.509 -1650.52,571.438 -1651.4,570.795C-1651.88,570.441 -1653.25,569.405 -1653.34,569.343C-1653.49,569.239 -1655.19,568.164 -1656.19,567.231C-1656.28,567.144 -1660.04,564.32 -1660.04,564.263C-1660.04,564.188 -1667.69,563.786 -1668.31,563.766C-1669.28,563.734 -1669.47,563.791 -1669.47,564.113C-1669.47,564.169 -1669.5,564.237 -1669.54,564.263C-1669.59,564.29 -1669.6,564.38 -1669.58,564.464C-1669.55,564.548 -1659.82,579.46 -1660.45,579.411C-1660.75,579.387 -1661.84,579.359 -1662.86,579.349C-1664.66,579.331 -1664.76,579.079 -1664.9,578.941C-1664.96,578.882 -1666.55,577.028 -1666.66,576.882C-1666.77,576.735 -1668.35,575.047 -1668.6,574.795C-1671.46,571.929 -1672.37,571.923 -1673.24,571.872C-1674.35,571.806 -1675.69,571.939 -1675.77,572.021C-1675.83,572.081 -1675.95,572.336 -1676.02,572.587ZM-1445.28,-439.228L-1452.89,-436.749L-1434.3,-379.702L-1426.69,-382.18L-1445.28,-439.228ZM-1271.79,93.174L-1279.39,95.652L-1260.8,152.7L-1253.19,150.222L-1271.79,93.174ZM-1250.09,159.716L-1257.69,162.195L-1239.11,219.242L-1231.5,216.764L-1250.09,159.716ZM-1676.02,419.315C-1676.06,419.426 -1676.02,419.848 -1675.88,420.217C-1675.33,421.727 -1673.58,424.795 -1672.76,426.041C-1672.34,426.684 -1671.83,427.002 -1671.72,427.021C-1670.7,427.193 -1668.59,427.268 -1667.8,427.46C-1667.38,427.561 -1667.52,427.915 -1667.57,427.922C-1667.94,427.97 -1670.65,428.371 -1670.74,428.394C-1671.02,428.463 -1670.92,431.361 -1670.92,431.47C-1670.91,431.76 -1669.42,431.904 -1668.48,432.48C-1667.8,432.897 -1667.58,433.758 -1667.58,434.022C-1667.58,434.236 -1667.92,435.134 -1668.42,435.464C-1669.4,436.105 -1670.9,436.245 -1670.92,436.575C-1670.92,436.684 -1671.1,439.527 -1670.82,439.596C-1670.73,439.62 -1667.94,440.075 -1667.57,440.123C-1667.52,440.13 -1667.37,440.479 -1667.79,440.581C-1668.46,440.742 -1670.46,440.792 -1671.75,441.28C-1672.18,441.443 -1673.29,442.689 -1674.18,444.113C-1674.99,445.415 -1675.6,446.909 -1675.66,446.972C-1675.83,447.161 -1676.17,448.091 -1676.14,448.266C-1676.08,448.632 -1675.88,449.191 -1675.77,449.301C-1675.69,449.377 -1674.45,449.547 -1673.37,449.484C-1672.46,449.431 -1671.36,449.531 -1668.77,446.879C-1668.52,446.624 -1665.67,443.328 -1664.88,442.383C-1664.83,442.326 -1664.66,441.986 -1662.86,441.968C-1661.84,441.958 -1660.75,441.93 -1660.45,441.906C-1659.82,441.856 -1669.18,455.949 -1669.18,455.997C-1669.18,456.022 -1669.43,456.327 -1669.5,456.62C-1669.57,456.904 -1669.47,457.176 -1669.47,457.203C-1669.47,457.525 -1669.28,457.582 -1668.31,457.55C-1667.69,457.53 -1660.56,457.153 -1660.38,457.154C-1660.13,457.156 -1660.04,457.129 -1660.04,457.053C-1660.04,456.996 -1656.28,454.173 -1656.19,454.085C-1655.19,453.152 -1653.49,452.078 -1653.34,451.974C-1653.25,451.912 -1651.88,450.875 -1651.4,450.522C-1650.52,449.879 -1649.05,448.808 -1648.71,448.522C-1648.52,448.365 -1645.85,446.519 -1645.75,446.425C-1645.41,446.113 -1643.97,445.067 -1643.93,445.03C-1643.76,444.874 -1639.98,441.468 -1639.85,441.428C-1639.71,441.389 -1638.14,441.13 -1637.79,441.089C-1637.11,441.009 -1631.93,440.469 -1629.59,437.696C-1629.46,437.541 -1629.29,437.317 -1629.22,437.196C-1629.08,436.954 -1629.25,436.971 -1626.59,436.928C-1626.31,436.923 -1618.39,435.645 -1617.17,435.333C-1615.62,434.932 -1614.9,434.156 -1614.9,434.022C-1614.9,433.898 -1615.72,433.074 -1617.06,432.721C-1620.26,431.87 -1625.83,431.204 -1625.83,431.183C-1625.83,431.154 -1626.17,431.124 -1626.59,431.117C-1629.25,431.073 -1629.08,431.091 -1629.22,430.848C-1629.29,430.728 -1629.44,430.492 -1629.59,430.349C-1632.67,427.27 -1637.11,427.035 -1637.79,426.956C-1637.96,426.936 -1639.24,426.632 -1639.88,426.301C-1640.56,425.96 -1643.76,423.171 -1643.93,423.015C-1643.97,422.977 -1645.41,421.932 -1645.75,421.619C-1645.85,421.526 -1648.52,419.68 -1648.71,419.523C-1649.05,419.237 -1650.52,418.166 -1651.4,417.523C-1651.88,417.169 -1653.25,416.133 -1653.34,416.071C-1653.49,415.967 -1655.19,414.892 -1656.19,413.959C-1656.28,413.872 -1660.04,411.048 -1660.04,410.992C-1660.04,410.916 -1667.69,410.515 -1668.31,410.494C-1669.28,410.463 -1669.47,410.52 -1669.47,410.841C-1669.47,410.897 -1669.5,410.965 -1669.54,410.991C-1669.59,411.018 -1669.6,411.108 -1669.58,411.192C-1669.55,411.276 -1659.82,426.188 -1660.45,426.139C-1660.75,426.115 -1661.84,426.087 -1662.86,426.077C-1664.66,426.059 -1664.76,425.807 -1664.9,425.669C-1664.96,425.61 -1666.55,423.756 -1666.66,423.61C-1666.77,423.464 -1668.35,421.775 -1668.6,421.523C-1671.46,418.657 -1672.37,418.652 -1673.24,418.6C-1674.35,418.535 -1675.69,418.668 -1675.77,418.749C-1675.83,418.809 -1675.95,419.064 -1676.02,419.315ZM-1576.6,288.94C-1574.78,276.368 -1579,262.172 -1585.93,253.558C-1599.78,236.354 -1629.35,230.754 -1651.64,237.754C-1672,244.148 -1678.69,255.767 -1678.69,255.767L-1668.69,312.114L-1615.59,342.617C-1615.59,342.617 -1599.97,333.96 -1589.59,320.991C-1581.1,310.372 -1577.6,295.911 -1576.6,288.94ZM-1634.55,276.408L-1656.19,288.904L-1661.19,280.244L-1609.23,250.244L-1604.23,258.904L-1625.82,271.367L-1615.69,288.613L-1594.23,276.225L-1589.23,284.885L-1641.19,314.885L-1646.19,306.225L-1624.56,293.736L-1634.55,276.408Z"/>
        </g>
        <g transform="matrix(0.988768,0,0,1,1.7672,0)">
            <path d="M68.302,1707.85L149.494,1707.85" style="fill:none;stroke:white;stroke-width:6px;"/>
        </g>
        <g transform="matrix(1.00044,0,0,1,-0.103361,0)">
            <path d="M300.756,1707.85L159.552,1707.85" style="fill:none;stroke:white;stroke-width:6px;"/>
        </g>
        <g transform="matrix(1.01393,0,0,1,-4.38881,0)">
            <path d="M386.887,1707.85L310.814,1707.85" style="fill:none;stroke:white;stroke-width:6px;"/>
        </g>
        <g transform="matrix(1.00072,0,0,1,-0.0585335,0)">
            <path d="M16.342,1280.89L415.311,1280.89" style="fill:none;stroke:white;stroke-width:6px;"/>
        </g>
        <g transform="matrix(1.02994,0,0,1,-12.7318,0)">
            <path d="M458.709,1280.89L423.701,1280.89" style="fill:none;stroke:white;stroke-width:6px;"/>
        </g>
        <g transform="matrix(1,0,0,0.999175,0,1.07299)">
            <path d="M427,1301.19L427,1261.34" style="fill:none;stroke:white;stroke-width:6px;"/>
        </g>
        <g transform="matrix(1,0,0,0.973656,0,32.2092)">
            <path d="M427,1199.42L427,1235.33" style="fill:none;stroke:white;stroke-width:6px;"/>
        </g>
        <g transform="matrix(1,0,0,1.00983,0,-11.5329)">
            <path d="M427,884.398L427,1173.51" style="fill:none;stroke:white;stroke-width:6px;"/>
        </g>
        <g transform="matrix(1,0,0,0.984466,0,8.4327)">
            <path d="M427,549.414L427,858.832" style="fill:none;stroke:white;stroke-width:6px;"/>
        </g>
        <path d="M427,426.962L427,521.532" style="fill:none;stroke:white;stroke-width:3px;"/>
        <g transform="matrix(1.0045,0,0,1,-0.201385,0)">
            <path d="M28.134,426.962L136.752,426.962" style="fill:none;stroke:white;stroke-width:6px;"/>
        </g>
        <g transform="matrix(1.01648,0,0,1,-2.49479,0)">
            <path d="M174.829,426.962L145.578,426.962" style="fill:none;stroke:white;stroke-width:6px;"/>
        </g>
        <g transform="matrix(1.00725,0,0,1,-1.82788,0)">
            <path d="M390.319,426.962L183.794,426.962" style="fill:none;stroke:white;stroke-width:6px;"/>
        </g>
        <g transform="matrix(1.16465,0,0,1,-66.3894,0)">
            <path d="M405.298,426.962L399.083,426.962" style="fill:none;stroke:white;stroke-width:6px;"/>
        </g>
        <g transform="matrix(1.09673,0,0,1,-40.3034,0)">
            <path d="M427,426.962L413.726,426.962" style="fill:none;stroke:white;stroke-width:6px;"/>
        </g>
        <g transform="matrix(1.01114,0,0,1,-5.81711,0)">
            <path d="M553.895,853.924L525.242,853.924" style="fill:none;stroke:white;stroke-width:6px;"/>
        </g>
        <g transform="matrix(0.988829,0,0,1,5.77013,0)">
            <path d="M427,853.924L517.004,853.924" style="fill:none;stroke:white;stroke-width:6px;"/>
        </g>
        <g transform="matrix(1,0,0,1,1,0)">
            <path d="M427,853.924L425.376,853.924" style="fill:none;stroke:white;stroke-width:6px;"/>
        </g>
        <g transform="matrix(1.01344,0,0,1,-4.41893,0)">
            <path d="M322.563,853.924L417.018,853.924" style="fill:none;stroke:white;stroke-width:6px;"/>
        </g>
        <g transform="matrix(1.02363,0,0,1,-6.76189,0)">
            <path d="M284.651,853.924L313.935,853.924" style="fill:none;stroke:white;stroke-width:6px;"/>
        </g>
        <g transform="matrix(1,0,0,1,1,0)">
            <path d="M22.71,853.924L275.941,853.924" style="fill:none;stroke:white;stroke-width:6px;"/>
        </g>
    </g>
</svg>
