<?xml version="1.0" encoding="UTF-8" standalone="no"?>
<!DOCTYPE svg PUBLIC "-//W3C//DTD SVG 1.1//EN" "http://www.w3.org/Graphics/SVG/1.1/DTD/svg11.dtd">
<svg width="100%" height="100%" viewBox="0 0 473 473" version="1.1" xmlns="http://www.w3.org/2000/svg" xmlns:xlink="http://www.w3.org/1999/xlink" xml:space="preserve" xmlns:serif="http://www.serif.com/" style="fill-rule:evenodd;clip-rule:evenodd;stroke-linejoin:round;stroke-miterlimit:2;">
    <g transform="matrix(0.716255,0,0,0.716255,36.9207,-49.8126)">
        <g id="Ebene-1" serif:id="Ebene 1">
            <path id="path276" d="M123.823,719.641C121.18,718.829 118.503,717.65 117.873,717.02C117.022,716.168 115.623,702.086 116.315,690.39C116.854,681.294 116.909,671.751 147.002,641.658C149.652,639.008 167.382,622.439 168.915,621.308C170.449,620.177 189.917,603.478 190.537,602.859C191.985,601.411 194.632,600.302 194.822,581.382C194.929,570.675 195.221,559.307 195.471,556.117C195.993,549.456 39.405,651.68 38.524,651.943C37.642,652.206 36.694,652.055 36.417,651.606C36.14,651.158 35.431,650.791 34.841,650.791C31.464,650.791 30.866,648.802 31.198,638.68C31.412,632.154 35.626,551.791 36.42,551.791C37.015,551.791 66.666,512.361 67.581,511.378C77.38,500.861 78.002,498.93 78.002,479.037C78.002,460.291 78.002,460.291 74.627,460.291C72.77,460.291 71.252,460.125 71.252,459.922C71.252,459.169 82.869,436.291 83.252,436.291C83.634,436.291 95.252,459.169 95.252,459.922C95.252,460.125 93.733,460.291 91.877,460.291C88.502,460.291 88.502,460.291 88.541,471.728C88.578,482.343 88.665,483.045 89.758,481.478C90.405,480.55 101.289,466.081 105.002,461.041C111.752,451.878 111.752,451.878 111.752,435.834C111.752,419.791 111.752,419.791 108.372,419.791C104.993,419.791 104.993,419.791 111.002,407.791C114.307,401.191 117.175,395.791 117.377,395.791C117.578,395.791 120.447,401.191 123.752,407.791C129.761,419.791 129.761,419.791 126.381,419.791C123.002,419.791 123.002,419.791 123.002,428.123C123.002,436.454 123.002,436.454 126.002,432.824C127.652,430.827 147.036,402.803 148.015,401.748C151.295,398.213 151.502,397.151 151.502,383.84C151.502,371.041 151.502,371.041 148.127,371.041C146.27,371.041 144.752,370.875 144.752,370.672C144.752,369.919 156.369,347.041 156.752,347.041C157.134,347.041 168.752,369.919 168.752,370.672C168.752,370.875 167.233,371.041 165.377,371.041C162.002,371.041 162.002,371.041 162.002,377.191C162.002,380.82 162.275,383.049 162.67,382.628C164.305,380.884 193.594,347.209 197.179,340.173C200.654,333.354 203.838,319.993 204.052,318.166C204.886,311.055 207.35,264.376 239.679,232.047C241.181,230.545 243.66,228.952 244.924,228.218C247.467,226.741 247.286,228.504 247.744,200.605C247.817,196.172 248.13,192.544 248.439,192.543C248.658,192.542 255.655,134.098 264.582,100.468C268.299,86.465 276.949,77.791 278.252,77.791C279.654,77.791 287.802,85.389 292.013,101.703C295.295,114.42 308.71,197.573 308.76,200.605C309.218,228.504 309.038,226.741 311.581,228.218C312.844,228.952 315.204,230.675 316.825,232.047C345.949,256.692 351.619,311.055 352.452,318.166C352.888,321.878 355.602,338.332 356.017,339.773C356.432,341.214 392.2,380.884 393.835,382.628C394.229,383.049 394.503,380.82 394.503,377.191C394.503,371.041 394.503,371.041 391.128,371.041C389.272,371.041 387.753,370.875 387.753,370.672C387.753,369.919 399.37,347.041 399.753,347.041C400.135,347.041 411.753,369.919 411.753,370.672C411.753,370.875 410.234,371.041 408.378,371.041C405.003,371.041 405.003,371.041 405.003,383.84C405.003,397.151 405.21,398.213 408.49,401.748C409.469,402.803 428.853,430.827 430.503,432.824C433.503,436.454 433.503,436.454 433.503,428.123C433.503,419.791 433.503,419.791 430.123,419.791C426.744,419.791 426.744,419.791 432.753,407.791C436.058,401.191 438.926,395.791 439.128,395.791C439.329,395.791 442.198,401.191 445.503,407.791C451.512,419.791 451.512,419.791 448.132,419.791C444.753,419.791 444.753,419.791 444.753,435.834C444.753,451.878 444.753,451.878 451.503,461.041C455.215,466.081 466.1,480.55 466.747,481.478C467.84,483.045 467.927,482.343 467.964,471.728C468.003,460.291 468.003,460.291 464.628,460.291C462.772,460.291 461.253,460.125 461.253,459.922C461.253,459.169 472.87,436.291 473.253,436.291C473.635,436.291 485.253,459.169 485.253,459.922C485.253,460.125 483.734,460.291 481.878,460.291C478.503,460.291 478.503,460.291 478.503,479.037C478.503,498.93 479.125,500.861 488.924,511.378C489.839,512.361 519.49,551.791 520.085,551.791C520.879,551.791 521.161,552.739 521.145,555.353C521.134,557.313 525.093,632.154 525.307,638.68C525.639,648.802 525.041,650.791 521.664,650.791C521.374,650.791 518.514,651.899 515.532,651.161C512.455,650.399 509.253,647.791 508.995,647.791C508.487,647.791 360.511,549.456 361.034,556.117C361.284,559.307 361.576,570.675 361.683,581.382C361.873,600.302 365.447,602.075 366.043,602.575C375.961,610.883 410.571,640.882 413.253,643.502C441.099,670.705 440.044,682.257 440.602,691.771C441.271,703.175 439.482,716.169 438.685,716.966C437.526,718.125 431.664,720.236 427.813,720.881C425.982,721.188 416.213,717.555 414.229,715.784C413.57,715.196 397.876,708.798 384.21,700.267C369.25,690.929 356.168,679.237 354.46,674.727C349.339,661.2 348.816,640.22 347.125,633.204C346.053,628.756 342.384,630.324 342.306,630.916C341.803,634.767 337.028,664.012 336.777,665.013C336.053,667.897 306.195,666.103 305.055,666.049C301.593,665.882 300.121,650.146 293.388,639.826C289.928,634.523 280.498,631.026 278.252,631.026C275.476,631.026 266.434,633.32 262.056,640.448C256.004,650.302 254.493,665.903 251.451,666.049C250.311,666.103 219.881,667.069 219.157,664.184C218.906,663.183 214.704,634.767 214.2,630.916C214.123,630.329 210.403,628.897 209.343,633.285C207.334,641.611 206.545,663.781 204.739,674.41C204.54,675.582 201.193,680.917 194.447,685.352C181.364,693.951 149.148,712.328 133.294,718.166C129.417,719.593 124.981,719.996 123.824,719.641L123.823,719.641ZM130.992,705.146C131.555,704.591 131.917,700.257 132.029,692.729C132.123,686.369 132.277,679.281 132.372,676.977C132.536,672.977 132.466,672.803 130.823,673.118C128.182,673.622 127.981,674.791 127.665,691.48C127.351,708.062 127.484,708.607 130.992,705.146ZM428.828,689.041C428.497,674.798 428.263,673.611 425.68,673.118C424.037,672.803 423.968,672.977 424.132,676.977C424.226,679.281 424.381,686.369 424.475,692.729C424.646,704.291 424.926,705.549 427.515,706.427C429.033,706.941 429.194,704.804 428.828,689.041ZM49.516,635.416C51.364,634.178 194.035,538.291 195.093,538.289C195.891,538.287 196.178,536.493 196.353,530.414C196.5,525.267 196.305,522.541 195.79,522.541C195.356,522.541 48.248,620.768 44.627,624.972C43.722,626.023 43.575,630.916 43.506,630.916C43.437,630.916 43.294,631.928 43.19,633.166C42.925,636.305 47.668,636.653 49.516,635.416L49.516,635.416ZM513.308,634.349C513.395,632.647 512.63,629.463 512.533,628.199C512.257,624.578 366.056,526.137 363.564,524.852C362.43,524.266 361.502,523.507 361.502,523.164C361.502,522.821 361.147,522.541 360.714,522.541C360.198,522.541 360.003,525.267 360.151,530.414C360.325,536.493 360.612,538.287 361.411,538.289C362.469,538.291 513.055,639.308 513.308,634.349L513.308,634.349ZM258.417,547.291C258.417,557.157 257.02,613.87 278.252,614.249C299.485,614.628 298.086,555.235 298.086,547.291C298.086,545.833 316.725,258.827 316.267,257.177C315.81,255.527 312.986,239.556 311.995,238.659C310.612,237.408 291.429,565.436 291.001,569.51C288.098,597.177 285.181,605.382 278.251,605.382C271.321,605.382 268.405,597.177 265.501,569.51C265.073,565.436 245.892,237.408 244.509,238.659C243.518,239.556 241.24,252.213 240.859,257.05C240.576,260.638 258.417,545.833 258.417,547.291ZM78.805,566.577C79.812,563.533 81.743,521.934 81.102,517.088C80.827,515.011 80.827,515.011 78.852,516.984C76.67,519.164 74.801,568.853 77.283,567.524C78.091,567.092 78.776,566.666 78.805,566.577ZM481.785,561.242C481.554,558.725 481.123,554.42 480.828,551.676C480.532,548.931 480.002,531.554 480.002,527.324C480.002,519.094 476.25,510.693 475.409,517.04C474.158,526.474 476.925,565.831 478.943,567.307C481.245,568.991 482.292,566.758 481.785,561.242L481.785,561.242ZM197.02,510.353C197.354,509.838 197.658,500.641 197.696,489.916C197.764,470.494 198.613,440.698 200.286,398.981C201.246,375.047 201.11,373.064 198.538,373.43C196.702,373.691 196.277,377.956 195.454,404.416C195.262,410.603 194.691,427.141 194.186,441.166C193.256,466.977 192.697,509.695 193.275,510.728C193.782,511.633 196.359,511.375 197.02,510.353ZM363.338,489.541C363.315,477.785 362.871,456.353 362.348,441.916C361.825,427.478 361.24,410.603 361.048,404.416C360.229,377.981 359.802,373.691 357.966,373.43C355.393,373.064 355.258,375.047 356.217,398.981C357.89,440.698 358.739,470.494 358.808,489.916C358.879,510.15 359.071,511.529 361.76,511.146C363.373,510.916 363.377,510.873 363.338,489.541ZM140.808,499.103C141.451,498.288 142.418,469.569 142.771,440.791C142.873,432.481 142.817,432.157 141.254,431.935C139.203,431.643 138.536,433.503 138.347,440.041C136.701,496.904 136.994,503.937 140.808,499.103ZM418.523,498.89C419.401,497.833 419.283,478.961 418.156,440.041C417.967,433.503 417.3,431.643 415.25,431.935C413.375,432.202 413.407,430.604 414.397,473.791C414.99,499.62 415.473,502.565 418.523,498.89ZM282.988,313.424C284.149,312.938 285.729,312.541 286.498,312.541C288.823,312.541 293.812,274.897 294.379,261.728C294.526,258.325 294.359,257.791 293.15,257.791C292.381,257.791 264.122,257.791 263.353,257.791C262.144,257.791 261.977,258.325 262.124,261.728C262.691,274.897 267.703,312.535 270.242,312.552C271.141,312.558 272.72,313.009 273.752,313.554C275.961,314.721 280.023,314.664 282.988,313.424L282.988,313.424ZM262.689,248.069C262.792,248.085 293.13,248.13 293.439,248.098C293.616,248.08 295.177,228.143 291.52,211.429C288.793,198.96 281.28,188.45 278.252,188.45C275.157,188.45 266.984,198.314 264.167,211.124C260.534,227.643 262.631,248.06 262.689,248.069ZM291.752,149.791C291.752,149.791 285.501,140.708 278.252,140.699C271.523,140.691 264.443,149.791 264.443,149.791L291.752,149.791Z" style="fill-rule:nonzero;"/>
        </g>
    </g>
</svg>
