<?xml version="1.0" encoding="UTF-8" standalone="no"?>
<!DOCTYPE svg PUBLIC "-//W3C//DTD SVG 1.1//EN" "http://www.w3.org/Graphics/SVG/1.1/DTD/svg11.dtd">
<svg width="100%" height="100%" viewBox="0 0 473 473" version="1.1" xmlns="http://www.w3.org/2000/svg" xmlns:xlink="http://www.w3.org/1999/xlink" xml:space="preserve" xmlns:serif="http://www.serif.com/" style="fill-rule:evenodd;clip-rule:evenodd;stroke-linejoin:round;stroke-miterlimit:2;">
    <g id="Ebene-1" serif:id="Ebene 1" transform="matrix(0.747558,0,0,0.770792,1.04563,-64.4342)">
        <path id="path311" d="M556.818,656.633L532.701,681.636C532.701,681.636 539.767,694.423 537.16,696.358C533.308,699.215 510.244,664.31 510.244,664.31L537.16,634.716L543.34,641.164L546.718,636.667L511.632,601.642C511.632,601.642 505.887,607.121 504.965,608.094C502.218,610.993 495.517,617.287 494.137,617.994C491.401,619.395 481.44,625.946 480.789,626.509C480.138,627.072 476.736,628.996 473.23,630.786C469.724,632.575 461.492,637.209 458.605,638.698C446.847,644.763 431.355,651.559 430.48,652.525C429.995,653.06 398.23,666.271 394.105,667.814C385.374,671.08 356.549,679.376 350.98,680.431C345.411,681.486 337.311,682.737 332.98,683.211C328.649,683.684 322.574,684.426 319.48,684.859C309.749,686.221 281.756,686.062 275.23,684.608C272.062,683.902 264.473,683.172 257.856,682.936C239.95,682.297 223.363,678.485 218.98,674.003C212.85,667.733 216.749,662.792 225.629,665.575C227.541,666.175 231.805,667.253 235.105,667.971C238.405,668.689 241.442,669.518 241.855,669.812C242.267,670.106 246.824,670.547 251.98,670.793C268.381,671.574 305.72,674.265 314.23,672.981C316.5,672.638 333.883,672.891 347.582,670.37C353.792,669.227 378.119,663.024 394.919,656.484C401.088,654.082 418.363,647.328 434.775,638.77C441.785,635.116 463.913,624.727 477.178,616.69C483.744,612.712 499.534,596.707 499.307,595.836C499.088,594.999 490.377,586.943 479.652,577.662C475.966,574.471 471.559,570.511 469.86,568.861C459.657,558.956 458.685,558.487 454.735,561.556C450.769,564.637 441.326,570.622 438.622,572.774C433.522,576.831 422.535,582.673 410.23,587.87C406.311,589.524 400.742,592.057 397.855,593.498C394.967,594.939 389.905,596.856 386.605,597.757C383.305,598.659 379.93,599.671 379.105,600.008C377.773,600.55 375.292,601.185 373.105,601.543C372.692,601.61 371.511,601.997 370.48,602.403C366.483,603.974 358.202,606.036 354.492,606.383C352.354,606.583 349.761,606.918 348.73,607.127C347.699,607.336 343.311,607.672 338.98,607.874C334.649,608.076 328.742,608.434 325.855,608.67C322.967,608.907 319.086,609.036 317.23,608.958C315.374,608.88 313.433,608.798 312.917,608.776C312.402,608.754 311.98,608.435 311.98,608.067C311.98,607.699 311.673,607.587 311.298,607.819C309.823,608.73 308.318,607.226 307.833,604.359C307.069,599.834 309.328,598.296 317.051,598.082C322.602,597.929 330.865,597.416 342.099,596.529C349.382,595.954 356.891,594.439 367.356,591.435C372.444,589.974 376.831,588.823 377.106,588.878C377.38,588.933 378.617,588.556 379.855,588.039C381.092,587.523 384.223,586.44 386.813,585.632C389.402,584.824 392.74,583.336 394.23,582.325C395.72,581.313 397.252,580.486 397.634,580.486C398.308,580.486 411.567,574.802 419.98,570.908C422.249,569.858 430.272,565.663 432.157,564.003C434.043,562.344 448.556,554.41 450.627,552.339C451.034,551.932 447.985,548.02 443.764,543.535C440.228,539.778 440.592,539.928 424.855,535.77C422.38,535.116 405.006,526.73 396.619,521.615C391.006,518.191 365.724,505.486 364.524,505.486C364.053,505.486 362.999,504.863 362.181,504.102C361.364,503.341 358.763,501.738 356.4,500.541C352.694,498.663 351.012,497.579 346.855,494.388C346.442,494.071 344.924,493.233 343.48,492.525C342.036,491.818 339.505,490.234 337.855,489.006C336.205,487.778 333.505,485.869 331.855,484.764C330.205,483.66 326.957,480.783 324.638,478.371C323.454,477.139 319.688,475.424 317.857,471.476C316.103,467.695 316.215,461.69 318.059,459.887C320.389,457.609 320.389,457.609 314.973,452.485C308.492,446.353 308.632,446.397 303.52,448.816C301.287,449.872 247.707,478.949 247.707,478.949C247.707,478.949 254.799,485.778 257.727,491.888C259.445,495.475 258.602,499.027 257.055,500.236C256.264,500.855 255.565,502.052 250.012,504.599C247.006,505.978 238.996,500.951 237.79,499.198C236.913,497.924 207.27,471.689 194.833,452.421C190.149,445.165 192.121,435.275 192.855,433.347C194.288,429.582 200.314,428.641 203.864,431.629C205.883,433.328 212.635,438.954 215.91,434.616C220.927,427.972 239.997,393.503 242.138,389.178C242.665,388.114 244.036,386.258 245.187,385.053C245.622,384.596 247.588,379.714 245.287,376.701C236.192,364.789 207.715,340.921 207.704,340.674C207.66,339.702 125.727,256.823 121.811,252.59C120.391,251.056 99.134,214.654 98.216,212.199C97.745,210.938 95.143,204.618 96.8,197.815C98.37,191.375 104.111,184.453 106.782,182.657C110.854,179.919 116.247,177.96 117.026,177.57C119.17,176.497 134.264,176.657 148.72,180.514C162.401,184.163 175.511,191.467 176.534,192.351C177.733,193.388 179.167,194.235 179.721,194.235C180.276,194.235 180.73,194.525 180.73,194.879C180.73,195.233 182.587,196.756 184.857,198.263C189.529,201.365 191.176,202.657 194.543,205.86C199.034,210.132 206.147,216.373 210.786,220.11C213.346,222.173 219.52,227.826 224.505,232.673C229.491,237.52 257.399,264.26 260.959,268.62C264.139,272.513 306.183,315.735 306.786,315.735C307.167,315.735 307.48,316.097 307.48,316.539C307.48,316.587 311.26,318.927 311.26,318.927C311.26,318.927 360.991,290.986 361.892,290.986C364.191,290.986 364.267,289.815 362.042,288.67C357.144,286.151 353.393,277.384 353.641,270.164C353.778,266.181 355.915,260.533 362.397,262.019C370.831,263.952 387.259,281.328 388.401,282.463C394.988,289.009 402.351,295.815 405.329,298.111C430.319,317.375 436.044,326.705 429.224,337.055C424.696,343.926 422.045,344.704 417.314,340.55C415.864,339.277 414.037,338.236 413.254,338.236C412.456,338.236 411.606,337.526 411.318,336.62C410.788,334.948 369.585,379.743 369.585,379.743L389.602,398.779L401.416,400.214C401.416,400.214 458.614,509.997 458.932,510.658C459.249,511.32 460.092,513.078 460.804,514.565C462.253,517.589 472.48,528.124 472.48,526.592C472.48,526.053 475.43,521.169 479.036,515.737C486.152,505.016 488.216,501.504 488.255,500.051C488.345,496.629 493.106,494.636 494.98,497.236C495.574,498.061 496.477,498.736 496.986,498.736C500.818,498.736 498.603,506.116 491.523,516.933C488.759,521.156 485.65,525.961 484.615,527.611C483.579,529.261 481.95,531.78 480.994,533.209C479.255,535.807 479.255,535.807 483.93,540.337C486.501,542.828 491.474,548.052 494.98,551.946C498.486,555.839 503.042,560.764 505.105,562.89C511.502,569.482 521.036,580.319 521.918,579.774C522.435,579.454 522.852,578.893 522.844,578.527C522.835,578.16 523.856,576.734 525.109,575.356C526.363,573.978 527.779,572.122 528.256,571.231C528.733,570.34 530.722,567.182 532.676,564.213C533.758,562.571 557.059,535.17 572.183,501.803C584.398,474.853 588.935,442.131 590.36,430.579C592.552,412.811 594.225,374.432 590.739,355.048C586.924,333.835 581.93,304.278 575.938,285.745C561.481,241.033 524.98,197.343 520.867,193.971C519.895,193.174 518.836,189.517 519.903,187.454C521.29,184.769 525.245,183.723 527.128,184.315C531.843,185.799 537.404,193.337 538.938,195.7C540.13,197.536 545.647,204.34 546.808,206.147C547.969,207.955 557.268,220.223 559.097,223.111C559.969,224.487 575.16,246.684 584.045,270.806C593.803,297.297 602.728,341.492 603.178,345.456C603.195,345.605 608.779,385.285 604.786,427.639C603.669,439.483 598.892,477.591 586.01,505.026C570.063,538.988 543.112,567.053 536.851,577.977C535.387,580.532 540.752,583.432 541.143,583.784C542.772,585.251 544.343,586.459 544.633,586.468C544.924,586.477 545.989,587.245 547,588.173C548.012,589.101 550.258,591.042 551.992,592.486C553.726,593.929 555.698,595.659 556.375,596.329C559.601,599.525 574.1,611.32 574.1,611.32L574.983,609.941L566.721,601.885C566.721,601.885 589.161,578.613 591.188,578.687C592.333,578.728 594.021,579.419 594.938,580.221C595.855,581.023 630.86,604.863 630.579,608.137C630.196,612.594 612.896,603.93 612.896,603.93L590.606,623.932L580.573,614.918L579.48,616.088C579.48,616.088 583.653,620.058 586.722,623.048C589.79,626.039 617.091,649.292 617.091,649.292L611.228,657.692L592.991,642.05L585.614,651.143C585.614,651.143 609.352,671.525 612.643,677.197C613.72,679.053 612.327,694.167 604.165,686.493C601.687,684.163 584.428,666.874 577.64,662.687C576.428,661.94 573.978,663.537 573.698,663.634C567.52,665.788 561.892,657.507 561.892,657.507L553.284,645.99L551.129,649.425L556.818,656.633ZM532.188,586.599C531.593,585.749 530.98,584.924 530.98,585.133C530.98,585.538 530.22,586.516 529.292,587.306C527.556,588.782 560.154,621.288 560.154,621.288L563.692,616.99C563.692,616.99 538.985,594.253 537.478,593.226M443.417,527.93C443.571,527.945 451.449,530.926 453.251,527.874C455.082,524.774 450.832,515.625 450.359,513.617C449.421,509.633 400.633,411.909 399.211,409.686C396.81,405.933 390.992,411.654 385.047,406.02C380.364,401.58 372.259,393.954 367.331,389.35C367.044,389.081 364.758,386.691 362.253,384.039C356.478,377.927 354.618,378.537 358.851,385.154C362.516,390.884 367.019,395.641 380.744,408.282C384.914,412.123 383.323,413.493 383.323,413.493L337.785,456.447C337.785,456.447 315.396,434.953 314.604,435.413C313.325,436.156 313.48,437.713 313.48,438.297C313.48,438.718 335.647,458.877 335.647,458.877C335.647,458.877 331.724,462.912 330.765,466.374C330.055,468.935 331.984,472.254 333.037,473.325C338.402,478.781 441.927,527.785 443.417,527.93ZM448.599,523.759C448.599,523.759 341.938,476.219 339.209,473.41C338.199,472.37 334.099,467.892 337.308,463.614C349.684,447.118 391.415,414.58 391.415,414.58C391.415,414.58 393.93,413.672 396.888,415.476C398.245,416.303 448.599,523.759 448.599,523.759ZM194.764,666.603C190.695,665.735 186.026,663.475 179.49,659.208C176.354,657.161 165.167,650.522 163.105,649.497C161.042,648.472 130.594,629.683 129.73,629.62C129.524,629.606 65.23,572.771 65.23,571.992C65.23,571.5 61.816,567.465 57.167,562.462C55.002,560.132 35.693,528.75 33.008,522.735C32.547,521.704 21.168,498.679 20.518,497.235C19.869,495.792 8.781,466.167 8.24,463.485C7.698,460.804 6.981,458.254 6.646,457.817C5.644,456.514 2.305,443.323 1.911,439.11C1.795,437.873 1.103,433.485 0.373,429.36C-3.415,407.961 -0.829,387.643 5.278,390.818C5.87,391.125 6.883,391.536 7.529,391.73C9.309,392.264 10.514,398.902 10.823,409.86C11.092,419.425 17.063,456.285 22.542,470.967C30.882,493.315 44.1,519.489 45.211,520.86C46.144,522.011 48.752,526.416 51.207,530.985C58.25,544.095 67.771,556.255 83.7,572.485C89.326,578.216 137.762,618.815 141.299,620.952C144.836,623.088 159.172,631.757 162.268,633.923C170.408,639.617 189.449,651.014 190.48,651.465C191.511,651.916 193.199,652.649 194.23,653.094C204.158,657.38 203.98,657.212 203.98,662.27C203.98,666.451 200.882,667.907 194.764,666.603L194.764,666.603ZM277.75,649.664C265.135,647.572 257.57,646.034 256.43,645.329C255.494,644.751 255.536,642.194 256.492,641.603C256.911,641.344 257.058,640.815 256.819,640.427C255.961,639.039 259.797,638.517 268.008,638.904C292.183,640.045 316.245,639.063 329.23,636.404C340.212,634.155 345.965,632.673 353.605,630.122C358.555,628.469 363.786,626.89 365.23,626.614C368.654,625.96 371.999,624.913 377.98,622.628C383.05,620.69 386.276,619.786 390.73,619.058C394.263,618.48 401.914,615.758 404.23,614.255C406.5,612.781 409.481,611.469 413.98,609.965C418.414,608.482 420.976,607.365 430.855,602.607C435.392,600.421 440.455,598.185 442.105,597.637C443.755,597.089 446.516,595.516 448.24,594.141C452.096,591.066 457.116,590.221 460.063,592.152C462.311,593.625 462.545,595.205 460.606,595.82C459.851,596.06 458.251,597.488 457.05,598.994C455.635,600.769 452.889,602.661 449.236,604.379C443.542,607.055 427.037,616.167 424.204,617.121C421.371,618.076 417.659,619.687 415.954,620.701C414.25,621.716 410.999,623.381 408.73,624.401C406.461,625.421 404.019,626.589 403.303,626.996C402.586,627.403 401.429,627.735 400.731,627.735C400.033,627.735 398.425,628.051 397.158,628.437C395.891,628.823 392.661,629.738 389.98,630.472C387.299,631.205 384.261,632.237 383.23,632.766C382.199,633.294 380.972,633.728 380.503,633.731C380.035,633.733 378.709,634.224 377.557,634.822C376.405,635.42 375.17,635.728 374.813,635.507C374.456,635.287 373.621,635.557 372.957,636.108C372.293,636.659 371.211,637.138 370.552,637.172C368.632,637.27 365.488,638.178 354.92,641.687C349.456,643.501 344.329,644.985 343.527,644.985C342.725,644.985 341.887,645.279 341.665,645.639C341.443,645.998 339.651,646.475 337.683,646.7C335.715,646.924 331.289,647.633 327.848,648.274C316.432,650.401 287.102,651.215 277.75,649.664L277.75,649.664ZM186.811,621.12C185.095,619.376 166.076,609.014 145.847,593.334C132.01,582.609 103.767,560.578 85.718,538.327C77.18,527.803 64.169,500.677 55.492,477.176C52.921,470.214 43.387,441.809 39.308,414.489C34.397,381.594 35.219,349.456 36.882,347.435C37.3,346.926 37.974,342.708 38.379,338.06C39.022,330.691 39.597,328.365 42.875,319.868C44.943,314.51 51.575,294.498 52.498,292.11C52.817,291.285 53.505,289.429 54.026,287.985C58.669,275.121 64.952,268.263 67.586,273.184C68.398,274.701 65.952,285.142 64.391,286.823C64.028,287.215 63.73,288.164 63.73,288.932C63.73,290.562 53.867,319.289 52.813,321.517C51.361,324.588 50.649,327.93 49.874,335.314C49.312,340.674 48.531,345.465 48.139,345.96C46.12,348.509 44.463,376.595 45.874,384.36C46.024,385.181 45.816,398.879 48.586,413.365C52.774,435.27 60.939,462.04 64.988,473.087C74.424,498.834 89.404,524.906 97.164,534.564C113.579,554.994 138.245,574.303 150.801,584.665C169.298,599.929 187.849,610.985 191.038,614.545C193.674,617.487 195.574,621.583 194.642,623.147C193.607,624.882 189.453,623.805 186.811,621.12ZM176.98,565.462C176.98,565.062 176.257,564.735 175.374,564.735C174.106,564.735 161.85,558.455 145.668,540.96C133.856,528.19 119.253,507.017 108.764,489.961C90.744,460.661 84.504,421.718 86.262,421.465C86.88,421.376 93.477,427.162 99.312,444.237C103.422,456.264 111.825,472.291 120.324,484.895C130.541,500.046 139.277,513.348 149.333,525.568C164.5,543.999 179.23,558.206 179.23,558.565C179.23,558.927 180.074,560.017 181.105,560.985C183.539,563.272 183.479,564.597 180.917,565.159C179.783,565.407 178.433,565.741 177.917,565.9C177.402,566.058 176.98,565.862 176.98,565.462L176.98,565.462ZM345.972,543.151C344.165,542.868 342.243,540.972 342.998,540.217C343.482,539.734 371.721,534.273 372.78,533.721C375.317,532.398 392.996,526.868 392.953,528.243C392.784,533.655 374.868,540.973 359.605,541.863C355.892,542.079 351.674,542.515 350.23,542.832C348.786,543.148 346.87,543.292 345.972,543.151ZM240.926,534.446C241.527,535.419 227.641,531.111 213.06,521.412C202.417,514.333 191.07,502.903 186.363,495.869C176.917,481.754 170.79,462.249 170.128,460.989C167.905,456.763 168.738,452.235 171.738,452.235C173.533,452.235 174.005,452.673 174.773,455.048C175.192,456.345 182.888,480.018 191.652,490.08C198.943,498.45 204.717,504.493 213.404,512.762C227.666,526.339 240.028,529.485 240.269,529.485C242.294,529.485 243.349,531.675 241.852,532.77C241.109,533.313 240.692,534.068 240.926,534.446ZM520.855,528.367C520.442,528.229 519.202,527.918 518.098,527.676C515.565,527.119 515.537,522.428 518.053,519.913C519.622,518.343 532.107,502.268 539.7,485.275C542.528,478.946 554.185,453.483 558.507,425.363C561.192,407.891 566.493,373.891 563.358,344.001C561.987,330.925 553.407,299.905 541.053,275.155C526.196,245.391 507.142,222.493 505.345,221.553C504.117,220.911 500.886,213.267 502.871,211.099C503.59,210.315 508.424,205.99 515.314,212.895C525.901,223.505 540.943,249.596 550.242,269.719C558.565,287.728 563.803,312.422 569.78,330.939C579.23,360.214 574.49,391.815 574.3,393.36C574.158,394.512 572.434,414.446 567.709,434.539C562.279,457.63 553.496,481.736 548.802,491.205C539.721,509.528 526.126,525.493 524.387,526.232C523.03,526.809 522.121,527.608 522.369,528.008C522.814,528.729 522.303,528.85 520.855,528.367L520.855,528.367ZM448.482,458.617C448.092,457.589 447.93,456.324 448.124,455.804C448.318,455.285 449.151,451.654 449.976,447.735C450.802,443.817 451.951,439.598 452.531,438.36C453.11,437.123 453.947,435.182 454.391,434.048C455.251,431.849 459.781,430.999 460.91,432.824C463.253,436.617 462.488,441.442 458.129,450.36C453.27,460.301 450.141,462.979 448.482,458.617ZM199.708,406.642C198.806,406.069 197.555,401.492 196.936,396.504C196.753,395.026 196.172,391.858 195.646,389.463C193.164,378.174 195.216,354.981 199.103,350.395C199.204,350.276 200.13,350.564 201.162,351.034C203.038,351.889 203.038,351.889 202.633,363.625C201.933,383.969 202.317,398.402 203.616,400.503C205.38,403.358 202.258,408.264 199.708,406.642ZM139.672,399.548C138.535,398.109 133.687,386.28 132.68,382.485C129.247,369.548 134.975,341.61 141.061,341.61C142.855,341.61 142.855,341.61 142.493,350.985C142.001,363.733 142.323,373.377 143.495,380.985C144.585,388.067 144.272,399.058 142.955,399.911C141.689,400.732 140.504,400.6 139.672,399.548ZM1.593,383.356C-0.346,381.855 -0.999,365.744 0.653,360.173C1.05,358.832 1.247,357.735 1.091,357.735C0.934,357.735 1.31,356.531 1.925,355.058C2.54,353.585 3.533,349.788 4.131,346.62C5.991,336.772 6.086,336.379 6.792,335.648C7.17,335.256 7.48,334.422 7.48,333.794C7.48,331.78 26.23,283.319 26.23,282.607C26.23,280.876 29.737,269.619 31.447,265.86C32.197,264.21 34.323,259.654 36.171,255.735C38.019,251.817 40.828,245.742 42.414,242.235C44,238.729 46.576,233.717 48.139,231.096C49.701,228.476 50.986,226.113 50.993,225.846C51.01,225.249 78.433,186.585 80.247,184.11C82.06,181.635 85.499,177.659 87.887,175.275C90.276,172.89 92.23,170.682 92.23,170.366C92.23,170.054 108.33,149.457 134.56,131.767C157.825,116.076 190.458,103.373 206.013,98.674C242.921,87.524 281.147,84.306 283.105,84.14C296.369,83.014 338.228,83.763 341.98,85.194C342.599,85.43 345.636,85.772 348.73,85.954C353.77,86.25 385.623,88.514 422.264,103.413C455.627,116.979 460.731,121.855 475.314,132.438C489.224,142.533 505.336,159.78 505.936,160.147C508.839,161.923 511.547,166.834 512.004,171.267C512.786,178.837 507.898,178.268 499.071,169.761C498.622,169.328 486.061,156.634 467.378,143.774C449.864,131.718 432.236,121.517 413.275,113.931C384.994,102.616 358.153,99.08 351.355,98.28C344.342,97.455 336.749,96.552 334.48,96.275C328.746,95.573 289.568,95.036 288.075,95.638C287.751,95.769 246.995,96.58 209.811,108.943C189.696,115.631 160.881,127.155 141.623,139.986C122.761,152.554 100.54,176.574 95.403,182.415C86.379,192.677 79.007,205.235 75.185,210.654C68.912,219.551 62.416,231.056 61.827,232.11C58.59,237.915 45.62,265.223 44.41,268.11C41.146,275.903 26.722,317.209 23.689,324.735C22.609,327.417 15.093,352.358 13.783,357.608C12.165,364.092 11.162,372.339 11.172,374.79C11.208,383.466 6.811,387.397 1.593,383.356ZM523.018,381.918C521.532,380.928 521.292,378.61 521.124,363.617C521.006,353.146 522.02,338.375 519.553,327.928C517.217,318.037 511.415,312.197 510.532,311.497C506.263,308.11 507.974,301.526 513.132,301.497C515.744,301.482 525.964,310.208 529.439,325.935C534.397,348.367 532.064,380.235 529.299,380.235C528.986,380.235 528.73,380.673 528.73,381.207C528.73,382.281 524.376,382.822 523.018,381.918ZM404.426,246.791C403.09,246.044 401.571,245.088 401.051,244.666C399.859,243.699 390.804,239.149 385.855,237.03C383.792,236.146 370.04,230.524 368.732,229.943C366.392,228.904 362.496,227.61 355.105,225.416C348.53,223.465 334.329,220.561 327.355,219.743C323.642,219.307 319.761,218.648 318.73,218.279C316.147,217.355 287.551,216.671 283.855,217.446C282.205,217.791 277.311,218.827 272.98,219.748C268.649,220.668 263.586,221.673 261.73,221.98C258.377,222.534 253.642,224.1 250.579,225.667C246.839,227.581 246.136,227.825 242.951,228.313C241.111,228.596 238.628,229.205 237.434,229.667C235.535,230.402 235.096,230.3 233.924,228.852C233.305,228.088 231.72,224.558 236.429,220.975C241.683,216.977 253.884,212.779 265.773,209.542C282.936,204.869 312.793,204.948 315.73,205.489C317.999,205.906 322.049,206.57 324.73,206.963C327.411,207.357 331.124,207.993 332.98,208.378C334.836,208.763 339.73,209.781 343.855,210.641C347.98,211.5 354.73,213.256 358.855,214.541C362.98,215.826 367.367,217.134 368.605,217.447C380.48,220.452 406.48,235.136 406.48,238.838C406.48,239.381 406.986,240.019 407.605,240.257C408.399,240.561 408.73,241.8 408.73,244.462C408.73,248.673 408.253,248.931 404.426,246.791ZM181.292,191.175C177.764,189.12 184.034,179.954 191.969,175.568C194.16,174.357 219.684,159.913 249.174,153.007C278.435,146.154 311.672,146.833 311.98,146.825C313.632,146.778 324.821,147.652 328.997,148.154C330.982,148.392 335.98,148.878 340.105,149.234C344.23,149.589 349.292,150.219 351.355,150.633C353.417,151.046 356.455,151.605 358.105,151.873C359.118,152.038 369.576,153.88 374.728,157.167C377.969,159.235 377.078,163.124 376.779,163.609C376.138,164.645 370.988,164.321 363.974,162.802C353.644,160.565 347.554,159.742 338.23,159.322C333.486,159.108 327.074,158.738 323.98,158.5C318.01,158.04 281.688,155.528 251.165,162.797C218.357,170.61 191.348,188.32 189.022,190.057C186.326,192.07 183.524,192.475 181.292,191.175L181.292,191.175ZM144.917,176.726C143.989,175.809 143.23,174.465 143.23,173.741C143.23,172.9 149.991,162.892 161.544,154.625C174.134,145.616 191.666,138.298 193.324,137.522C194.976,136.749 229.55,121.458 261.78,115.701C277.65,112.866 302.296,111.52 319.769,113.411C335.096,115.069 358.72,122.825 358.916,125.381C358.977,126.19 359.062,127.274 359.103,127.79C359.197,128.958 329.971,123.518 317.864,122.691C299.307,121.423 273.146,123.586 261.399,125.826C249.889,128.021 231.944,131.942 215.036,138.058C196.61,144.723 179.39,153.678 172.445,157.808C158.008,166.392 148.181,177.613 148.061,177.807C147.443,178.806 146.796,178.584 144.917,176.726L144.917,176.726Z" style="fill-rule:nonzero;"/>
        <g transform="matrix(1,0,0,1,-1.39873,83.5947)">
            <path d="M532.379,501.538L538.25,494.382L544.739,500.872L537.167,508.443L532.379,501.538Z" style="fill:white;"/>
        </g>
    </g>
    <g id="Ebene1" transform="matrix(0.747558,0,0,0.770792,-9.01194e-08,5.99735e-07)">
        <g transform="matrix(0.663658,-0.663658,0.916663,0.916663,-174.138,218.007)">
            <ellipse cx="306.046" cy="297.544" rx="31.964" ry="29.754" style="fill:white;"/>
        </g>
        <g transform="matrix(1,0,0,1,-19.5197,30.4444)">
            <circle cx="326.701" cy="262.662" r="24.982"/>
        </g>
        <g transform="matrix(0.880046,0.880046,-0.859699,0.859699,138.255,-106.375)">
            <path d="M171.396,130.555C171.396,127.718 169.147,125.414 166.376,125.414L136.241,125.414C133.471,125.414 131.221,127.718 131.221,130.555L131.221,140.836C131.221,143.673 133.471,145.977 136.241,145.977L166.376,145.977C169.147,145.977 171.396,143.673 171.396,140.836L171.396,130.555Z" style="fill:white;"/>
        </g>
        <g transform="matrix(0.537521,-0.537521,1.43379,1.43379,-189.194,113.551)">
            <path d="M271.386,156.98L252.689,164.28L252.689,189.995L271.386,189.995L271.386,156.98Z" style="fill:white;"/>
        </g>
        <g transform="matrix(0.537521,-0.537521,1.43379,1.43379,-152.324,76.6819)">
            <path d="M271.934,164.075L252.689,156.98L252.689,189.995L271.386,189.995L271.934,164.075Z" style="fill:white;"/>
        </g>
        <g transform="matrix(1.07504,-1.07504,1.43379,1.43379,-311.609,235.967)">
            <rect x="252.689" y="156.98" width="18.697" height="33.015" style="fill:white;"/>
        </g>
        <g transform="matrix(0.4594,0.4594,-0.707107,0.707107,345.048,-95.8213)">
            <path d="M397.769,199.618L473.236,213.216L397.769,226.813L322.302,213.216L397.769,199.618Z"/>
        </g>
        <g transform="matrix(0.4594,0.4594,-0.707107,0.707107,327.16,-82.9169)">
            <path d="M397.769,199.618L473.236,213.216L397.769,226.813L322.302,213.216L397.769,199.618Z"/>
        </g>
        <g transform="matrix(0.4594,0.4594,-0.707107,0.707107,214.279,28.7094)">
            <path d="M397.769,199.618L473.236,213.216L397.769,226.813L322.302,213.216L397.769,199.618Z"/>
        </g>
        <g transform="matrix(0.4594,0.4594,-0.707107,0.707107,230.265,11.1546)">
            <path d="M397.769,199.618L473.236,213.216L397.769,226.813L322.302,213.216L397.769,199.618Z"/>
        </g>
    </g>
</svg>
