<?xml version="1.0" encoding="UTF-8" standalone="no"?>
<!DOCTYPE svg PUBLIC "-//W3C//DTD SVG 1.1//EN" "http://www.w3.org/Graphics/SVG/1.1/DTD/svg11.dtd">
<svg width="100%" height="100%" viewBox="0 0 473 945" version="1.1" xmlns="http://www.w3.org/2000/svg" xmlns:xlink="http://www.w3.org/1999/xlink" xml:space="preserve" xmlns:serif="http://www.serif.com/" style="fill-rule:evenodd;clip-rule:evenodd;stroke-linejoin:round;stroke-miterlimit:1.5;">
    <g id="Ebene-1" serif:id="Ebene 1" transform="matrix(2.08333,0,0,2.08333,-389.975,337.393)">
        <g id="path404" transform="matrix(0.364486,0,0,0.364486,175.147,-102.921)">
            <path d="M230.938,1082.39C223.387,1082.44 192.178,1080.55 190.37,1080.03C187.082,1079.08 187.082,1079.08 187.239,1045.35C187.325,1026.8 187.525,981.748 187.684,945.242C187.843,908.736 188.046,878.698 188.135,878.492C188.224,878.286 188.242,877.82 188.176,877.458C187.689,874.81 187.842,767.492 188.332,767.492C188.676,767.492 188.704,767.082 188.394,766.58C188.084,766.079 187.917,762.451 188.023,758.518C188.129,754.585 188.356,741.917 188.529,730.367C188.701,718.817 188.864,708.861 188.891,708.242C188.93,707.352 188.958,697.6 188.961,684.242C188.962,683.623 188.936,670.292 188.905,654.617C188.873,638.942 189.006,604.011 189.2,576.992C189.393,549.973 189.729,485.848 189.946,434.492C190.593,281.556 191.153,193.602 191.506,189.617C192.366,179.911 196.864,166.567 197.404,159.242C197.754,154.481 198.687,146.026 200.505,131.117C200.707,129.467 201.386,125.923 202.014,123.242C202.643,120.561 211.361,75.354 211.625,74.117C211.89,72.879 225.471,29.192 225.974,28.367C226.476,27.542 241.011,-9.874 242.408,-12.804C247.848,-24.223 273.073,-75.877 273.588,-76.258C274.057,-76.607 293.938,-109.86 295.658,-113.563C296.117,-114.553 302.151,-126.624 302.151,-126.624L313.871,-124.006C313.871,-124.006 312.167,-138.524 311.77,-139.002C311.283,-139.589 338.228,-160.053 338.965,-160.72C340.775,-162.358 347.463,-162.358 349.273,-160.72C350.01,-160.053 376.955,-139.589 376.467,-139.002C376.071,-138.524 374.367,-124.006 374.367,-124.006L386.826,-126.538C386.826,-126.538 392.152,-114.485 392.58,-113.563C394.3,-109.86 405.15,-91.975 406.514,-89.642C413.042,-78.479 414.18,-76.607 414.65,-76.258C415.165,-75.877 440.39,-24.223 445.83,-12.804C447.227,-9.874 458.097,17.057 459.251,20.538C460.406,24.019 461.762,27.542 462.264,28.367C462.767,29.192 464.442,33.917 465.987,38.867C467.531,43.817 469.03,48.036 469.317,48.242C469.78,48.575 481.523,100.377 482.222,101.683C482.609,102.407 490.484,154.481 490.834,159.242C491.374,166.567 495.872,179.911 496.732,189.617C497.085,193.602 497.645,281.556 498.292,434.492C498.509,485.848 498.845,549.973 499.038,576.992C499.232,604.011 499.365,638.942 499.333,654.617C499.302,670.292 499.276,683.623 499.277,684.242C499.279,697.6 499.308,707.352 499.347,708.242C499.372,708.861 499.537,718.817 499.709,730.367C499.882,741.917 500.109,754.585 500.215,758.518C500.321,762.451 500.154,766.079 499.844,766.58C499.534,767.082 499.562,767.492 499.906,767.492C500.396,767.492 500.549,874.81 500.062,877.458C499.996,877.82 500.014,878.286 500.103,878.492C500.192,878.698 500.395,908.736 500.554,945.242C500.712,981.748 500.913,1026.8 500.999,1045.35C501.155,1079.08 501.155,1079.08 497.93,1080.01C496.157,1080.52 464.851,1082.44 457.3,1082.39C450.532,1082.34 399.6,1082.3 344.119,1082.3C288.638,1082.3 237.706,1082.34 230.938,1082.39ZM279.727,750.278C282.46,750.242 282.461,750.241 281.869,747.617C281.543,746.173 282.561,348.339 281.685,335.117C281.525,332.689 280.585,332.518 267.833,332.597C255.672,332.673 255.672,332.673 255.663,447.895C255.657,511.267 255.473,588.429 255.252,619.367C255.032,650.304 254.853,677.642 254.855,680.117C254.907,737.426 255.038,746.169 255.859,747.185C256.549,748.039 256.538,748.156 255.806,747.717C254.7,747.052 254.611,747.608 255.544,749.354C256.134,750.456 257.54,750.598 266.607,750.466C272.32,750.383 278.224,750.298 279.727,750.279L279.727,750.278ZM432.686,749.409C433.642,747.9 433.516,747.065 432.431,747.717C431.7,748.156 431.688,748.039 432.379,747.185C433.2,746.169 433.331,737.426 433.382,680.117C433.385,677.642 433.206,650.304 432.986,619.367C432.765,588.429 432.58,511.267 432.575,447.895C432.566,332.673 432.566,332.673 420.405,332.597C407.653,332.518 406.713,332.689 406.552,335.117C405.677,348.339 406.698,746.156 406.377,747.578C405.794,750.164 405.794,750.164 408.894,750.391C417.534,751.021 432.044,750.423 432.686,749.409L432.686,749.409ZM393.085,728.617C392.855,697.385 392.979,493.425 392.888,483.383C392.865,480.83 392.888,478.051 392.888,478.051C392.888,478.051 366.817,481.069 365.682,481.033C362.733,480.94 363.094,481.86 367.635,486.011C374.03,491.855 374.196,492.575 369.993,496.227C368.055,497.911 360.49,504.247 359.414,505.245C357.496,507.023 355.2,507.338 344.12,507.338C333.04,507.338 330.744,507.023 328.826,505.245C327.75,504.247 320.185,497.911 318.247,496.227C314.044,492.575 314.21,491.855 320.604,486.011C325.146,481.86 325.507,480.94 322.557,481.033C321.423,481.069 295.188,478.051 295.188,478.051C295.188,478.051 295.212,480.776 295.188,483.383C295.097,493.425 295.384,697.385 295.155,728.617C294.997,750.118 294.997,750.118 344.122,750.118C393.247,750.118 393.247,750.118 393.088,728.617L393.085,728.617ZM298.369,466.484C304.707,466.704 383.531,466.704 389.869,466.484C393.244,466.367 393.244,466.367 393.245,449.671C393.246,436.211 393.264,433.051 393.264,433.051L381.03,433.051C381.03,433.051 362.351,456.431 344.119,456.431C325.887,456.43 307.208,433.051 307.208,433.051L294.974,433.051C294.974,433.051 294.991,436.211 294.993,449.671C294.994,466.367 294.994,466.367 298.369,466.484ZM344.119,399.787C314.418,399.787 314.418,443.798 344.119,443.798C373.82,443.798 373.82,399.787 344.119,399.787ZM307.45,414.815C312.092,414.779 312.888,414.259 313.481,410.867C313.701,409.613 316.035,405.865 319.733,400.83C321.461,398.477 326.177,393.992 326.923,393.992C329.519,393.992 329.777,392.932 330.24,380.351C330.336,377.734 337.228,350.132 344.119,350.132C351.01,350.132 357.902,377.734 357.998,380.351C358.461,392.932 358.719,393.992 361.315,393.992C362.061,393.992 366.777,398.477 368.505,400.83C372.203,405.865 374.537,409.613 374.757,410.867C375.36,414.315 376.097,414.746 381.769,414.968C388.461,415.229 392.184,415.177 392.545,414.816C393.396,413.965 394.295,332.302 394.295,332.302L295.557,332.744C295.557,332.744 295.474,356.331 295.397,366.9C295.32,377.469 295.222,389.322 295.178,393.241C294.926,415.98 294.977,416.175 300.858,415.2C302.02,415.007 304.987,414.834 307.45,414.815L307.45,414.815ZM385.369,320.891C394.65,320.641 409.926,320.411 419.316,320.378C428.901,320.345 449.499,319.288 456.383,319.192C470.963,318.988 470.296,319.594 469.416,307.367C469.297,305.717 469.384,298.207 469.608,290.679C469.898,280.988 469.608,277.475 469.856,277.227C470.467,276.616 441.908,233.684 440.896,232.598C437.981,229.469 250.257,229.469 247.342,232.598C246.33,233.684 219.498,276.992 219.045,276.992C218.462,276.992 218.34,280.988 218.63,290.679C218.854,298.207 218.941,305.717 218.822,307.367C217.942,319.594 217.275,318.988 231.855,319.192C238.739,319.288 259.337,320.345 268.922,320.378C292.019,320.458 319.368,320.991 319.745,321.368C320.156,321.779 364.234,321.459 385.369,320.891L385.369,320.891ZM344.119,220.881C390.627,220.883 432.188,220.751 432.188,220.751C432.188,220.751 432.275,191.448 432.288,181.742C432.293,177.649 431.497,176.02 428.618,174.241C426.969,173.222 389.428,150.997 388.54,150.064C382.139,143.342 386.73,143.972 344.119,143.972C301.508,143.972 306.099,143.342 299.698,150.064C298.809,150.997 263.269,173.222 261.62,174.241C258.741,176.02 257.945,177.649 257.95,181.742C257.963,191.398 258.208,220.751 258.208,220.751C258.208,220.751 259.169,221.169 282.994,220.999C292.069,220.933 319.575,220.881 344.119,220.881L344.119,220.881ZM346.364,109.538C347.909,106.444 365.879,84.242 367.758,84.242C372.286,84.242 376.65,85.166 378.619,80.746C380.708,76.058 381.23,65.761 381.23,65.761L364.216,63.429C364.216,63.429 362.325,69.533 361.871,79.022C361.796,80.602 352.957,98.181 344.119,98.181C335.281,98.181 326.442,80.602 326.367,79.022C325.912,69.533 324.022,63.429 324.022,63.429L308.832,63.129C308.832,63.129 308.815,75.292 308.822,75.389C309.492,84.168 311.147,84.242 320.48,84.242C322.359,84.242 323.141,84.631 323.494,85.742C323.756,86.567 340.329,106.444 341.874,109.538C342.754,111.3 343.764,112.742 344.119,112.742C344.474,112.742 345.484,111.3 346.364,109.538L346.364,109.538ZM345.558,81.108C346.892,78.094 350.147,75.714 350.181,74.349C350.216,72.984 350.697,40.648 350.625,27.242C350.495,2.867 350.495,2.867 348.62,3.071C347.588,3.184 345.563,3.276 344.12,3.276C342.676,3.276 340.651,3.184 339.62,3.071C337.745,2.867 337.745,2.867 337.614,27.242C337.542,40.648 338.024,72.984 338.058,74.349C338.092,75.714 341.347,78.094 342.681,81.108C343.262,82.419 343.909,83.492 344.12,83.492C344.332,83.492 344.979,82.419 345.56,81.108L345.558,81.108Z" style="fill-rule:nonzero;"/>
        </g>
        <g transform="matrix(0.364486,0,0,0.364486,241.552,-162.093)">
            <circle cx="141.079" cy="721.513" r="15.853"/>
        </g>
        <g transform="matrix(0.364486,0,0,0.364486,256.753,-162.093)">
            <circle cx="141.079" cy="721.513" r="15.853"/>
        </g>
        <g transform="matrix(0.364486,0,0,0.364486,175.147,-102.921)">
            <g transform="matrix(1,0,0,1.09109,187.188,-248.905)">
                <path d="M193.636,802.235C193.636,792.952 185.413,785.415 175.284,785.415L138.579,785.415C128.45,785.415 120.226,792.952 120.226,802.235L120.226,870.849C120.226,880.133 128.45,887.67 138.579,887.67L175.284,887.67C185.413,887.67 193.636,880.133 193.636,870.849L193.636,802.235Z"/>
            </g>
            <g transform="matrix(1,0,0,1,179.262,-169.775)">
                <path d="M193.636,789.617C193.636,788.452 192.69,787.506 191.525,787.506L138.19,787.506C137.025,787.506 136.079,788.452 136.079,789.617L136.079,793.84C136.079,795.006 137.025,795.952 138.19,795.952L191.525,795.952C192.69,795.952 193.636,795.006 193.636,793.84L193.636,789.617Z" style="fill:white;"/>
            </g>
            <g transform="matrix(1,0,0,1,179.262,-153.558)">
                <path d="M193.636,789.617C193.636,788.452 192.69,787.506 191.525,787.506L138.19,787.506C137.025,787.506 136.079,788.452 136.079,789.617L136.079,793.84C136.079,795.006 137.025,795.952 138.19,795.952L191.525,795.952C192.69,795.952 193.636,795.006 193.636,793.84L193.636,789.617Z" style="fill:white;"/>
            </g>
            <g transform="matrix(1,0,0,1,179.262,-169.775)">
                <path d="M193.636,789.617C193.636,788.452 192.69,787.506 191.525,787.506L138.19,787.506C137.025,787.506 136.079,788.452 136.079,789.617L136.079,793.84C136.079,795.006 137.025,795.952 138.19,795.952L191.525,795.952C192.69,795.952 193.636,795.006 193.636,793.84L193.636,789.617Z" style="fill:white;"/>
            </g>
            <g transform="matrix(1,0,0,1,179.262,-137.342)">
                <path d="M193.636,789.617C193.636,788.452 192.69,787.506 191.525,787.506L138.19,787.506C137.025,787.506 136.079,788.452 136.079,789.617L136.079,793.84C136.079,795.006 137.025,795.952 138.19,795.952L191.525,795.952C192.69,795.952 193.636,795.006 193.636,793.84L193.636,789.617Z" style="fill:white;"/>
            </g>
            <g transform="matrix(1,0,0,1,179.262,-121.126)">
                <path d="M193.636,789.617C193.636,788.452 192.69,787.506 191.525,787.506L138.19,787.506C137.025,787.506 136.079,788.452 136.079,789.617L136.079,793.84C136.079,795.006 137.025,795.952 138.19,795.952L191.525,795.952C192.69,795.952 193.636,795.006 193.636,793.84L193.636,789.617Z" style="fill:white;"/>
            </g>
            <g transform="matrix(1,0,0,1,179.262,-104.91)">
                <path d="M193.636,789.617C193.636,788.452 192.69,787.506 191.525,787.506L138.19,787.506C137.025,787.506 136.079,788.452 136.079,789.617L136.079,793.84C136.079,795.006 137.025,795.952 138.19,795.952L191.525,795.952C192.69,795.952 193.636,795.006 193.636,793.84L193.636,789.617Z" style="fill:white;"/>
            </g>
            <g transform="matrix(1,0,0,1,179.262,-88.6934)">
                <path d="M193.636,789.617C193.636,788.452 192.69,787.506 191.525,787.506L138.19,787.506C137.025,787.506 136.079,788.452 136.079,789.617L136.079,793.84C136.079,795.006 137.025,795.952 138.19,795.952L191.525,795.952C192.69,795.952 193.636,795.006 193.636,793.84L193.636,789.617Z" style="fill:white;"/>
            </g>
        </g>
        <g transform="matrix(5.43366e-17,-0.887385,0.157264,9.62962e-18,144.314,150)">
            <path d="M51.827,759.678L10.752,759.678L21.021,713.325L41.558,713.325L51.827,759.678Z" style="fill:white;"/>
        </g>
        <g transform="matrix(5.43366e-17,0.887385,-0.157264,9.62962e-18,456.15,94.468)">
            <path d="M51.827,759.678L10.752,759.678L21.021,713.325L41.558,713.325L51.827,759.678Z" style="fill:white;"/>
        </g>
        <g transform="matrix(0.728972,0,0,0.25209,230.255,-97.651)">
            <rect x="35.994" y="543.682" width="10" height="144.586" style="fill:white;"/>
        </g>
        <g transform="matrix(0.728972,0,0,0.25209,310.442,-97.651)">
            <rect x="35.994" y="543.682" width="10" height="144.586" style="fill:white;"/>
        </g>
        <g transform="matrix(0.364486,0,0,0.364486,175.147,-102.921)">
            <g transform="matrix(0.982331,0,0,0.982331,193.761,-141.396)">
                <circle cx="153.063" cy="1108.78" r="117.069" style="fill:white;"/>
            </g>
            <g transform="matrix(0.854201,0,0,0.854201,213.373,0.672487)">
                <circle cx="153.063" cy="1108.78" r="117.069"/>
            </g>
            <g>
                <g transform="matrix(1.01134,0,0,1,188.03,-165.788)">
                    <rect x="120.226" y="1059.65" width="8.899" height="107.857" style="fill:white;"/>
                </g>
                <g transform="matrix(1,0,0,1.30333,187.188,-503.063)">
                    <rect x="126.931" y="1109.74" width="60" height="6.905" style="fill:white;"/>
                </g>
                <g transform="matrix(1.01134,0,0,1,248.03,-165.788)">
                    <rect x="120.226" y="1059.65" width="8.899" height="107.857" style="fill:white;"/>
                </g>
            </g>
        </g>
        <g transform="matrix(0.48,0,0,0.48,187.188,-161.949)">
            <path d="M144.387,472.441L159.574,472.441" style="fill:none;stroke:rgb(8,6,5);stroke-width:6px;"/>
        </g>
        <g transform="matrix(0.48,-9.84474e-17,-7.45334e-17,0.48,267.375,-161.949)">
            <path d="M144.387,472.441L159.574,472.441" style="fill:none;stroke:rgb(8,6,5);stroke-width:6px;"/>
        </g>
        <g transform="matrix(0.48,0,0,0.48,187.188,-161.949)">
            <path d="M159.574,472.441L169.053,472.441" style="fill:none;stroke:white;stroke-width:6px;"/>
        </g>
        <g transform="matrix(0.499263,0,0,0.48,238.801,-161.949)">
            <path d="M159.574,472.441L169.053,472.441" style="fill:none;stroke:white;stroke-width:6px;"/>
        </g>
        <g transform="matrix(0.407593,0,0,0.48,267.776,-161.949)">
            <path d="M159.574,472.441L169.053,472.441" style="fill:none;stroke:white;stroke-width:6px;"/>
        </g>
        <g transform="matrix(1.35661,0,0,0.48,127.49,-161.949)">
            <path d="M159.574,472.441L169.053,472.441" style="fill:none;stroke:white;stroke-width:6px;"/>
        </g>
        <g transform="matrix(0.500774,0,0,0.48,198.051,-161.949)">
            <path d="M159.574,472.441L169.053,472.441" style="fill:none;stroke:white;stroke-width:6px;"/>
        </g>
        <g transform="matrix(0.48,0,0,0.48,187.188,-161.949)">
            <path d="M119.064,472.441L144.387,472.441" style="fill:none;stroke:white;stroke-width:6px;"/>
        </g>
    </g>
</svg>
