<?xml version="1.0" encoding="UTF-8" standalone="no"?>
<!DOCTYPE svg PUBLIC "-//W3C//DTD SVG 1.1//EN" "http://www.w3.org/Graphics/SVG/1.1/DTD/svg11.dtd">
<svg width="100%" height="100%" viewBox="0 0 630 630" version="1.1" xmlns="http://www.w3.org/2000/svg" xmlns:xlink="http://www.w3.org/1999/xlink" xml:space="preserve" xmlns:serif="http://www.serif.com/" style="fill-rule:evenodd;clip-rule:evenodd;stroke-linejoin:round;stroke-miterlimit:2;">
    <g transform="matrix(0.804319,0.464374,-0.464374,0.804319,277.261,-149.361)">
        <g id="Ebene-1" serif:id="Ebene 1">
            <path id="path179" d="M284.834,710.461C172.968,710.461 142.787,709.922 111.034,678.169C109.893,677.028 110.084,624.107 110.084,412.502L110.084,148.608L112.115,144.275C144.59,111.8 238.906,117.356 284.834,117.356C332.004,117.356 422.765,112.418 457.552,144.275L459.584,148.608L459.584,412.502C459.584,624.107 459.774,677.028 458.633,678.169C426.184,710.617 400.2,710.461 284.834,710.461ZM171.584,665.233L171.584,448.078L171.584,232.626L122.084,232.55L122.084,436.687L122.084,642.333L171.584,665.233ZM398.084,665.233L447.584,642.333L447.584,232.55L398.084,232.626L398.084,665.233ZM383.834,661.567L383.834,624.067L380.459,624.064C378.602,624.063 335.571,624.061 284.834,624.061C234.096,624.061 191.065,624.063 189.209,624.064L185.834,624.067L185.834,661.567L383.834,661.567ZM211.06,594.816L203.459,577.565L203.284,593.427C203.148,604.038 203.284,612.033 203.284,612.033L212.114,612.033L218.662,612.067L211.06,594.816ZM260.834,612.067L260.834,581.317L241.334,581.317L221.834,581.333L221.834,612.067L260.834,612.067ZM278.684,612.033C278.684,612.033 278.862,607.431 278.684,593.954L278.459,578.619L271.214,595.343L263.97,612.067L270.184,612.033L278.684,612.033ZM298.453,595.343L291.209,578.619L291.006,593.954C290.872,604.08 290.984,612.033 290.984,612.033C290.984,612.033 295.333,612.067 299.507,612.067L305.697,612.067L298.453,595.343ZM347.834,612.067L347.834,581.317L308.834,581.317L308.834,612.067L347.834,612.067ZM366.384,612.033C366.384,612.033 366.562,607.395 366.384,593.427L366.209,577.565L358.607,594.816L351.006,612.067L357.553,612.067C362.973,612.067 366.384,612.033 366.384,612.033ZM218.568,581.333C218.568,581.333 216.085,581.21 213.425,581.333L208.392,581.333L213.524,592.942L218.459,604.192L218.667,593.025C218.763,587.855 218.568,581.333 218.568,581.333ZM263.784,603.732L274.055,581.333C274.055,581.333 271.39,581.317 268.709,581.317L263.784,581.333L263.784,603.732ZM305.834,592.567L305.884,581.317L300.959,581.333L296.084,581.333C296.084,581.333 305.293,603.817 305.576,603.817C305.718,603.817 305.834,598.754 305.834,592.567L305.834,592.567ZM356.414,592.321L361.254,581.317L350.834,581.317L350.834,592.692C350.834,598.948 351,603.9 351.204,603.696C351.408,603.492 353.753,598.373 356.414,592.321ZM218.584,578.317L218.584,574.567L205.366,574.567L207.053,578.27L218.584,578.317ZM260.834,578.333L260.834,574.533L241.334,574.567L221.834,574.567L221.834,578.317L241.334,578.317L260.834,578.333ZM275.077,578.333L277.016,574.533L263.784,574.533L263.784,578.333L275.077,578.333ZM305.884,578.333L305.884,574.533L293.084,574.533L294.76,578.333L305.884,578.333ZM347.834,578.233L347.834,574.567L308.834,574.567L308.834,578.317L328.334,578.317L347.834,578.233ZM362.614,578.27L364.301,574.567L350.884,574.533L350.884,578.233L362.614,578.27ZM278.834,538.935L278.834,509.303L203.459,509.692L203.262,539.13L203.066,568.567L278.834,568.567L278.834,538.935ZM233.828,562.999C225.497,560.698 218.366,553.451 216.116,545C210.956,525.624 228.391,508.189 247.767,513.349C264.175,517.718 271.989,537.529 262.9,551.72C256.555,561.628 245.038,566.096 233.828,562.999ZM243.744,548.504L243.959,541.192L258.584,540.763L258.584,535.621L243.959,535.192L243.744,527.88L243.529,520.567L238.388,520.567L238.173,527.88L237.959,535.192L223.334,535.621L223.334,540.763L237.959,541.192L238.173,548.504L238.388,555.817L243.529,555.817L243.744,548.504ZM366.405,539.129L366.209,509.692L328.521,509.498L290.834,509.303L290.834,568.567L366.601,568.567L366.405,539.129ZM321.578,562.999C313.247,560.698 306.116,553.451 303.866,545C298.706,525.624 316.141,508.189 335.517,513.349C354.859,518.5 360.994,543.499 346.228,556.994C339.296,563.33 330.517,565.468 321.578,562.999ZM331.494,548.504L331.709,541.192L346.334,540.763L346.334,535.621L331.709,535.192L331.494,527.88L331.279,520.567L326.138,520.567L325.923,527.88L325.709,535.192L311.084,535.621L311.084,540.763L325.709,541.192L325.923,548.504L326.138,555.817L331.279,555.817L331.494,548.504ZM234.209,501.383C232.146,499.526 228.665,496.441 226.472,494.528L222.485,491.051L215.602,497.934L208.719,504.817L237.959,504.759L234.209,501.383L234.209,501.383ZM267.959,497.77L260.459,490.754L256.334,494.387C254.065,496.386 250.521,499.537 248.459,501.39L244.709,504.759L275.459,504.788L267.959,497.771L267.959,497.77ZM321.209,501.39C319.146,499.537 315.602,496.386 313.334,494.387L309.209,490.754L294.209,504.787L324.959,504.758L321.209,501.389L321.209,501.39ZM354.065,497.934L347.182,491.051L343.195,494.528C341.003,496.441 337.521,499.526 335.459,501.383L331.709,504.759L360.948,504.817L354.065,497.934L354.065,497.934ZM211.566,481.028C207.519,477.225 203.955,474.104 203.646,474.091C203.337,474.076 203.084,480.727 203.084,488.866L203.084,503.665L211.003,495.804L218.923,487.942L211.566,481.028ZM366.247,474.231C366.044,474.027 362.471,477.002 358.308,480.841L350.738,487.82L358.473,495.583L366.209,503.346L366.413,488.973C366.525,481.068 366.45,474.434 366.247,474.231L366.247,474.231ZM249.584,494.277L256.709,487.541L248.834,480.073L240.959,472.605L233.459,480.128L225.959,487.651L233.084,494.332C237.002,498.007 240.715,501.013 241.334,501.013C241.952,501.013 245.665,497.982 249.584,494.277ZM278.674,480.881L278.459,474.196L271.157,481.069L263.855,487.942L271.157,494.629L278.459,501.316L278.674,494.442C278.793,490.661 278.793,484.558 278.674,480.881ZM299.711,493.45L305.808,487.708L298.321,480.805L290.834,473.902L290.834,487.527C290.834,503.329 289.889,502.699 299.711,493.45ZM336.584,494.332L343.709,487.651L336.209,480.128L328.709,472.605L320.834,480.073L312.959,487.541L320.084,494.277C324.002,497.982 327.715,501.013 328.334,501.013C328.952,501.013 332.665,498.007 336.584,494.332ZM229.709,477.817L236.427,471.067L207.367,471.067L212.163,475.436C220.692,483.205 222.202,484.523 222.599,484.545C222.814,484.556 226.013,481.529 229.709,477.817ZM272.318,473.902L275.459,471.112L246.209,471.14L253.279,477.812L260.349,484.484L264.763,480.587C267.19,478.444 270.59,475.435 272.318,473.9L272.318,473.902ZM321.161,473.388L323.364,471.067L308.824,471.067C299.969,471.067 294.562,471.337 294.996,471.756C295.388,472.135 298.735,475.143 302.433,478.44L309.158,484.434L314.058,480.071C316.753,477.672 319.95,474.664 321.161,473.388ZM349.985,482.193C351.483,480.887 354.867,477.85 357.505,475.443L362.301,471.067L333.24,471.067L339.959,477.817C343.654,481.529 346.809,484.567 346.969,484.567C347.129,484.567 348.486,483.499 349.985,482.193ZM284.834,463.208C288.352,463.208 288.055,463.708 288.055,424.192L288.124,407.692L281.543,407.692L281.612,424.192C282.043,463.912 281.315,463.208 284.834,463.208ZM247.334,373.403L247.334,341.739L243.396,337.753L239.459,333.766L239.246,303.305L239.034,272.844L240.934,270.103L242.834,267.361L242.834,217.613L245.468,217.712C246.917,217.766 248.388,218.178 248.737,218.626C249.086,219.075 249.335,224.926 249.29,231.63C249.221,241.97 249.379,243.828 250.334,243.889C253.546,244.093 318.375,244.174 319.334,243.974C320.282,243.777 320.446,241.831 320.377,231.591C320.332,224.909 320.581,219.075 320.93,218.626C321.279,218.178 322.75,217.766 324.199,217.712L326.834,217.613L326.834,267.361L328.733,270.103L330.633,272.844L330.421,303.305L330.209,333.766L326.271,337.753L322.334,341.739L322.334,405.033L328.97,405.067L335.607,405.067L336.023,354.629C336.591,285.956 336.832,239.737 336.697,225.817L336.584,214.192L233.084,214.192L232.971,225.817C232.835,239.737 233.077,285.956 233.644,354.629L234.061,405.067L247.334,405.067L247.334,373.403ZM275.084,405.033L275.084,362.534L254.984,352.641L254.992,405.033L275.084,405.033ZM315.584,405.033L315.584,352.641L294.384,362.534L294.384,405.033L315.584,405.033ZM138.584,228.233L138.584,189.233L120.084,189.233L122.084,228.233L138.584,228.233ZM171.584,222.529C171.584,217.047 171.612,216.966 174.461,214.467C178.754,210.699 196.084,198.869 196.084,198.869L196.084,189.233L144.084,189.233L144.084,228.233L171.584,228.233L171.584,222.529ZM425.834,228.067L425.834,189.233L373.084,189.233L373.084,198.869C373.084,198.869 390.913,210.699 395.207,214.467C398.055,216.966 398.084,228.067 398.084,228.067L425.834,228.067ZM447.584,228.067L450.084,189.233L431.084,189.233L431.278,228.067L447.584,228.067ZM196.084,184.233L196.084,151.233L120.084,151.233L120.084,184.233L196.084,184.233ZM450.084,184.192L450.084,151.233L373.084,151.233L373.084,183.636L450.084,184.192Z" style="fill-rule:nonzero;"/>
        </g>
    </g>
</svg>
