<?xml version="1.0" encoding="UTF-8" standalone="no"?>
<!DOCTYPE svg PUBLIC "-//W3C//DTD SVG 1.1//EN" "http://www.w3.org/Graphics/SVG/1.1/DTD/svg11.dtd">
<svg width="100%" height="100%" viewBox="0 0 1418 473" version="1.1" xmlns="http://www.w3.org/2000/svg" xmlns:xlink="http://www.w3.org/1999/xlink" xml:space="preserve" xmlns:serif="http://www.serif.com/" style="fill-rule:evenodd;clip-rule:evenodd;stroke-linejoin:round;stroke-miterlimit:2;">
    <g transform="matrix(4.51344e-17,0.7371,-0.7371,4.51344e-17,1163.33,6.92491)">
        <g id="Ebene-1" serif:id="Ebene 1">
            <path id="path214" d="M311,1568.16C298.643,1568.16 294.246,1516.83 294.142,1516.71C294.038,1516.6 287.916,1517.84 280.538,1519.48C266.101,1522.68 251.427,1525.54 218.374,1531.58C206.824,1533.7 195.531,1535.9 193.279,1536.49C187.401,1538.01 184.475,1537.87 183.483,1536.02C182.323,1533.85 182.782,1419.46 183.956,1418.29C184.414,1417.83 188.126,1416.32 192.206,1414.93C200.949,1411.95 243.448,1399.19 247.249,1398.4C253.137,1397.18 253.325,1396.99 252.138,1393.39C251.062,1390.13 229.179,1322.92 215.991,1272.63C209.212,1246.79 192.431,1183.17 191.81,1180.25C191.058,1176.71 191.81,-216.829 191.81,-216.829C191.81,-216.829 201.505,-334.638 310.999,-334.638C420.494,-334.638 428.503,-242.444 428.81,-239.751C429.867,-230.498 428.996,1175.65 428.81,1180.25C428.727,1182.31 409.769,1250.34 402.708,1277.26C389.534,1327.48 370.921,1390.18 369.861,1393.39C368.674,1396.99 368.862,1397.18 374.75,1398.4C378.55,1399.19 421.05,1411.95 429.793,1414.93C433.873,1416.32 437.585,1417.83 438.043,1418.29C439.216,1419.46 439.676,1533.85 438.516,1536.02C437.524,1537.87 434.598,1538.01 428.72,1536.49C426.467,1535.9 415.175,1533.7 403.625,1531.58C370.572,1525.54 355.898,1522.68 341.461,1519.48C334.083,1517.84 327.961,1516.6 327.857,1516.71C327.753,1516.83 323.357,1568.16 311,1568.16ZM218.87,1524.78C254.107,1518.15 290.712,1510.81 293.177,1509.87C294.716,1509.29 294.999,1508.77 294.72,1507.04C294.531,1505.88 285.081,1491.62 284.466,1490.49C280.265,1482.74 271.184,1456.97 269.774,1453.92C268.814,1451.85 255.311,1406.42 254.629,1405.06C253.929,1403.66 243.62,1406.84 226.929,1411.83C215.211,1415.32 202.195,1419.14 198.003,1420.31L190.382,1422.42L189.984,1446.05C189.637,1466.61 190.162,1530.05 190.679,1530.05C190.781,1530.05 203.467,1527.68 218.87,1524.78ZM431.959,1499.86C432.209,1483.26 432.234,1459.04 432.014,1446.05L431.616,1422.42L423.995,1420.31C419.804,1419.14 406.787,1415.32 395.07,1411.83C378.378,1406.84 368.07,1403.66 367.37,1405.06C366.688,1406.42 353.185,1451.85 352.224,1453.92C350.814,1456.97 341.734,1482.74 337.532,1490.49C336.917,1491.62 327.467,1505.88 327.279,1507.04C326.999,1508.77 327.281,1509.29 328.821,1509.87C331.74,1510.98 426.362,1529.67 430.69,1529.99C431.258,1530.03 431.643,1520.89 431.959,1499.86ZM293.109,1480.55C293.488,1480.55 295.828,1416.42 310.999,1416.42C326.171,1416.42 328.51,1480.55 328.889,1480.55C332,1480.55 330.672,1409.59 310.999,1409.49C291.327,1409.4 289.975,1480.55 293.109,1480.55ZM229.61,1249.55L229.61,668.249L212.31,668.249L212.31,1160.25C212.31,1177.08 229.61,1249.55 229.61,1249.55ZM392.31,1249.55C392.31,1249.55 410.81,1192.67 410.81,1160.25L410.81,668.249L392.352,668.249L392.31,1249.55ZM302.81,950.249L302.81,910.249C302.81,910.249 273.39,843.582 266.68,810.249C258.561,769.915 254.096,668.249 254.096,668.249L241.129,668.249C241.129,668.249 236.671,739.417 252.152,810.249C267.471,880.343 302.731,950.108 302.81,950.249ZM316.81,950.249C316.81,950.249 358.012,856.915 368.612,810.249C379.289,763.249 380.869,668.249 380.869,668.249L367.902,668.249C367.902,668.249 362.438,769.915 353.923,810.249C346.885,843.582 316.81,910.249 316.81,910.249L316.81,950.249ZM281.81,623.249L339.81,623.249C339.81,623.249 335.415,579.504 310.999,579.504C286.583,579.504 281.81,623.249 281.81,623.249ZM255.995,604.249C255.995,604.249 262.445,549.025 310.999,549.025C359.554,549.025 365.911,604.249 365.911,604.249L382.419,604.249C382.419,604.249 380.212,531.324 310.999,531.324C241.787,531.324 239.579,604.249 239.579,604.249L255.995,604.249ZM226.859,604.249C226.859,604.249 228.665,-212.55 228.854,-213.092C228.956,-213.385 227.468,-229.353 233.204,-253.659C238.032,-274.119 250.249,-303.551 250.249,-304.008C250.249,-304.594 212.998,-276.511 209.613,-235.751C209.325,-232.279 208.934,604.249 208.934,604.249L226.859,604.249ZM410.81,604.249C410.81,604.249 409.527,-233.963 409.527,-235.751C409.527,-283.372 371.749,-303.297 371.749,-302.711C371.749,-302.204 382.022,-284.062 387.015,-264.005C391.881,-244.459 391.463,-223.028 392.016,-219.326C392.448,-216.438 394.957,604.249 394.957,604.249L410.81,604.249Z" style="fill-rule:nonzero;"/>
        </g>
    </g>
</svg>
