<?xml version="1.0" encoding="UTF-8" standalone="no"?>
<!DOCTYPE svg PUBLIC "-//W3C//DTD SVG 1.1//EN" "http://www.w3.org/Graphics/SVG/1.1/DTD/svg11.dtd">
<svg width="100%" height="100%" viewBox="0 0 420 1714" version="1.1" xmlns="http://www.w3.org/2000/svg" xmlns:xlink="http://www.w3.org/1999/xlink" xml:space="preserve" xmlns:serif="http://www.serif.com/" style="fill-rule:evenodd;clip-rule:evenodd;stroke-linejoin:round;stroke-miterlimit:2;">
    <g transform="matrix(1,0,0,1,1254.84,188.401)">
        <g id="layer1">
            <path id="path125" d="M-924.247,1503.92C-925.231,1505.95 -985.111,1521.76 -1045.05,1521.76C-1105.11,1521.76 -1165.22,1505.96 -1166.21,1503.92C-1168.97,1498.22 -1201.45,1217.05 -1202.43,1208.86C-1203.85,1196.99 -1204.06,1180.77 -1204.07,1082.61C-1204.08,924.202 -1204.93,379.519 -1205.25,321.36C-1205.4,293.929 -1205.28,264.566 -1204.98,256.11C-1204.49,242.429 -1187.35,119.797 -1187,117.735C-1185.67,109.832 -1151.93,-1.746 -1151.45,-3.765C-1151.35,-4.178 -1108.45,-106.391 -1107.84,-106.9C-1107.23,-107.408 -1101.73,-120.941 -1085.01,-125.179C-1079.91,-126.47 -1083.08,-131.26 -1084.4,-133.853C-1085.44,-135.902 -1065.22,-185.168 -1045.05,-185.162C-1025,-185.156 -1005.02,-135.89 -1006.06,-133.853C-1007.38,-131.26 -1010.72,-126.021 -1005.45,-125.179C-992.285,-123.076 -983.227,-107.408 -982.614,-106.9C-982.002,-106.391 -939.104,-4.178 -939.006,-3.765C-938.524,-1.746 -904.782,109.832 -903.456,117.735C-903.11,119.797 -885.962,242.429 -885.477,256.11C-885.178,264.566 -885.056,293.929 -885.207,321.36C-885.527,379.519 -886.372,924.202 -886.388,1082.61C-886.4,1180.77 -886.609,1196.99 -888.028,1208.86C-889.007,1217.05 -921.483,1498.21 -924.247,1503.92ZM-1063.11,1317.8L-1063.14,1288.94L-1027.44,1288.94L-1027.48,1317.78C-1027.48,1317.78 -1017.6,1316.68 -1012.05,1311.86C-1007.15,1307.6 -1006.5,1299.67 -1006.62,1297.88C-1007.01,1291.92 -1004.86,1283.38 -1014.75,1274.38C-1023.07,1266.8 -1033.97,1258.11 -1045.23,1258.11C-1058.1,1258.11 -1066.85,1265.54 -1076.17,1274.42C-1084.99,1282.83 -1083.48,1292.55 -1083.84,1297.88C-1083.96,1299.74 -1082.53,1309.26 -1077.56,1313.78C-1072.31,1318.56 -1063.49,1318.28 -1063.14,1317.8L-1063.11,1317.8ZM-1072.12,1235.27L-1018.52,1235.33L-978.532,1202.95L-976.655,1173.73L-910.085,1100.17L-912.79,1097.48L-981.411,1171.06L-983.409,1200.52L-1022.41,1231.53L-1068.04,1231.53L-1107.49,1198.87L-1109.06,1170.79C-1109.06,1170.79 -1178.53,1090.86 -1179.45,1090.86C-1179.65,1090.86 -1182.48,1094.67 -1182.48,1094.67L-1113.8,1173.73L-1112.83,1199.09L-1072.12,1235.27ZM-1094.42,1160.59C-1093.63,1160.6 -1084.71,1150.83 -1085.61,1149.92C-1086.09,1149.45 -1139.89,1088.61 -1140.88,1088.61C-1141.48,1088.61 -1147.83,1093.63 -1150.06,1095.87C-1151.76,1097.58 -1095.87,1160.56 -1094.42,1160.59ZM-988.5,1154.24C-985.05,1150.73 -982.228,1147.53 -982.228,1147.11C-982.228,1146.7 -981.762,1146.36 -981.194,1146.36C-980.625,1146.36 -978.701,1144.42 -976.918,1142.05C-975.135,1139.68 -973.087,1137.23 -972.368,1136.61C-970.61,1135.1 -946.773,1104.84 -941.839,1100.41C-938.693,1097.58 -938.693,1097.58 -940.398,1095.87C-942.628,1093.63 -948.972,1088.61 -949.577,1088.61C-950.562,1088.61 -953.671,1092.78 -953.355,1093.67C-953.174,1094.19 -953.493,1094.61 -954.065,1094.61C-954.637,1094.61 -955.881,1095.88 -956.83,1097.42C-959.336,1101.51 -962.824,1105.99 -966.396,1109.7C-968.117,1111.5 -970.274,1114.06 -971.189,1115.41C-972.104,1116.76 -973.443,1118.05 -974.165,1118.29C-974.887,1118.52 -975.478,1119.03 -975.478,1119.42C-975.478,1120.13 -976.607,1121.35 -990.766,1135.86C-994.991,1140.19 -999.693,1145.17 -1001.21,1146.92C-1002.73,1148.68 -1003.98,1149.88 -1003.98,1149.59C-1003.98,1149.3 -1004.35,1149.44 -1004.81,1149.9C-1005.77,1150.86 -1005.27,1151.72 -1000.6,1157.12C-998.953,1159.03 -996.966,1160.59 -996.187,1160.6C-995.395,1160.61 -992.011,1157.81 -988.5,1154.24ZM-1077.78,1143.87C-1072.48,1138.01 -1072.64,1138.36 -1074.15,1136.05C-1074.89,1134.91 -1077.07,1132.3 -1078.97,1130.24C-1080.88,1128.17 -1124.37,1076.41 -1124.97,1076.18C-1126.23,1075.7 -1135.24,1084.08 -1135.21,1085.71C-1135.2,1086.27 -1086.31,1140.2 -1084.73,1142.65C-1083.16,1145.1 -1081.61,1147.11 -1081.29,1147.11C-1080.97,1147.11 -1079.39,1145.65 -1077.78,1143.87ZM-1005.72,1142.65C-1004.14,1140.2 -1002.51,1138.17 -1002.09,1138.15C-1001.68,1138.13 -999.912,1136.68 -998.177,1134.92C-991.519,1128.2 -983.728,1119.79 -983.728,1119.33C-983.728,1119.07 -982.378,1117.43 -980.728,1115.7C-979.078,1113.97 -977.728,1112.3 -977.728,1112.01C-977.728,1111.71 -974.019,1107.76 -969.486,1103.23C-964.37,1098.11 -961.242,1094.4 -961.236,1093.44C-961.231,1092.58 -959.907,1090.75 -958.245,1089.32C-956.604,1087.9 -955.254,1086.27 -955.245,1085.71C-955.219,1084.08 -964.229,1075.7 -965.483,1076.18C-966.082,1076.41 -966.377,1076.92 -966.138,1077.3C-965.898,1077.69 -966.316,1078.45 -967.065,1079C-967.815,1079.54 -968.86,1081.05 -969.388,1082.35C-969.916,1083.65 -971.165,1085.48 -972.163,1086.42C-973.161,1087.35 -973.978,1088.57 -973.978,1089.12C-973.978,1089.66 -974.255,1090.11 -974.593,1090.11C-975.469,1090.11 -981.568,1096.12 -983.353,1098.75C-984.178,1099.96 -986.371,1102.53 -988.228,1104.46C-995.729,1112.25 -997.286,1113.84 -999.862,1116.36C-1001.34,1117.8 -1003.78,1120.67 -1005.28,1122.74C-1006.78,1124.8 -1009.57,1128.17 -1011.48,1130.24C-1016.84,1136.03 -1017.87,1137.85 -1016.63,1139.38C-1013.83,1142.81 -1009.68,1147.11 -1009.17,1147.11C-1008.85,1147.11 -1007.3,1145.1 -1005.72,1142.65ZM-1045.68,1103.53C-1044.48,1103.55 -1025.41,1101.92 -1009.77,1092.85C-994.092,1083.77 -981.848,1067.23 -981.432,1066.38C-980.925,1065.34 -978.135,1059.84 -981.833,1053.81C-988.711,1042.6 -1004.66,1028.24 -1005.29,1028.04C-1005.59,1027.94 -1007.54,1034.28 -1012.88,1040.17C-1018.25,1046.09 -1027,1051.58 -1028.2,1052.17C-1030.24,1053.18 -1037.73,1056.1 -1045.23,1056.1C-1052.72,1056.1 -1060.22,1053.18 -1062.25,1052.17C-1063.48,1051.57 -1071.41,1048.34 -1076.89,1042.29C-1082.09,1036.55 -1084.88,1027.94 -1085.16,1028.04C-1086.13,1028.35 -1108.53,1059.08 -1109.24,1060.57C-1110.48,1063.17 -1110.47,1063.4 -1109.02,1066.38C-1108.19,1068.09 -1106.58,1070.44 -1105.43,1071.61C-1102.57,1074.52 -1089.72,1086.49 -1075.59,1093.88C-1062.11,1100.93 -1047.31,1103.49 -1045.68,1103.53ZM-1060.23,1040.76C-1059.16,1041.17 -1052.17,1043.99 -1045.23,1044.03C-1038.62,1044.07 -1032.06,1041.35 -1030.68,1040.89C-1026.81,1039.6 -1014.09,1026.43 -1012.7,1012.35C-1011.29,998.053 -1021.26,982.837 -1022.91,981.97C-1030.33,978.078 -1033.98,977.316 -1045.23,977.316C-1056.47,977.316 -1060.13,978.078 -1067.54,981.97C-1069.2,982.841 -1078.33,997.114 -1077.01,1011.41C-1075.73,1025.34 -1064.09,1039.3 -1060.23,1040.76ZM-1131.46,1038.65C-1127.82,1036.67 -1122.48,1031.96 -1122.48,1030.74C-1122.48,1030.39 -1122.01,1030.11 -1121.44,1030.11C-1120.87,1030.11 -1119.8,1028.84 -1119.07,1027.3C-1118.34,1025.75 -1116.66,1022.92 -1115.34,1021C-1114.03,1019.08 -1112.37,1015.2 -1111.66,1012.37C-1110.21,1006.61 -1109.93,996.524 -1111.17,994.221C-1111.61,993.389 -1111.98,992.096 -1111.98,991.347C-1111.99,990.598 -1113.32,988.635 -1114.95,986.985C-1116.57,985.335 -1117.92,983.543 -1117.94,983.004C-1118,981.521 -1124.03,975.873 -1127.39,974.157C-1130.12,972.763 -1135.43,972.312 -1136.5,973.383C-1136.92,973.801 -1135.78,976.374 -1133.03,981.207C-1132.06,982.92 -1131.75,984.555 -1132.01,986.536C-1132.32,988.826 -1132.07,989.702 -1130.74,990.941C-1129.33,992.253 -1129.15,992.96 -1129.6,995.585C-1130.2,999.17 -1135.59,1005.12 -1140.49,1007.62C-1142.11,1008.44 -1143.8,1009.81 -1144.25,1010.65C-1145.95,1013.82 -1150.18,1013.73 -1153.44,1010.46C-1154.18,1009.72 -1155.45,1009.11 -1156.26,1009.11C-1157.07,1009.11 -1157.73,1008.85 -1157.73,1008.52C-1157.73,1008.2 -1158.74,1007.33 -1159.99,1006.6C-1161.23,1005.87 -1162.92,1003.94 -1163.75,1002.31C-1164.58,1000.69 -1165.57,999.36 -1165.94,999.36C-1166.94,999.36 -1167.6,1001.96 -1167.12,1003.98C-1166.89,1004.95 -1166.42,1009.2 -1166.08,1013.43C-1165.64,1018.83 -1165.08,1021.53 -1164.21,1022.49C-1163.53,1023.24 -1162.98,1024.37 -1162.98,1024.99C-1162.98,1025.62 -1162.3,1026.74 -1161.48,1027.49C-1160.65,1028.23 -1159.96,1029.21 -1159.95,1029.66C-1159.91,1030.84 -1155.53,1035.59 -1152.74,1037.5C-1151.22,1038.53 -1149.2,1039.11 -1147.11,1039.12C-1145.32,1039.13 -1143.46,1039.38 -1142.98,1039.68C-1142.51,1039.99 -1140.55,1040.33 -1138.64,1040.45C-1136.01,1040.62 -1134.28,1040.19 -1131.46,1038.65ZM-943.603,1039.34C-942.519,1039.22 -929.99,1025.72 -925.302,1019.59C-921.065,1014.06 -923.515,999.36 -924.513,999.36C-924.889,999.36 -925.875,1000.69 -926.703,1002.31C-927.532,1003.94 -933.641,1009.26 -934.379,1010C-935.704,1011.34 -943.918,1011.44 -948.343,1008.82C-954.806,1004.98 -960.497,997.714 -960.857,995.585C-961.076,994.287 -962.567,991.927 -960.754,986.807C-958.901,981.576 -953.743,973.594 -953.954,973.383C-955.025,972.312 -960.34,972.763 -963.069,974.157C-964.696,974.988 -979.018,984.297 -982.508,995.443C-986.224,1007.31 -978.943,1021.18 -974.609,1026.63C-965.477,1038.12 -944.677,1039.45 -943.603,1039.34ZM-1148.4,1002.84C-1146.2,1001.08 -1146.2,1001.08 -1149.36,997.887C-1151.1,996.13 -1153.07,993.633 -1153.73,992.339C-1154.39,991.044 -1155.39,989.715 -1155.95,989.385C-1156.52,989.055 -1156.98,988.127 -1156.98,987.323C-1156.98,986.518 -1157.4,985.857 -1157.91,985.854C-1158.97,985.846 -1160.73,982.5 -1160.73,980.498C-1160.73,979.775 -1161.16,978.915 -1161.68,978.585C-1162.2,978.255 -1163.07,977.141 -1163.59,976.11C-1165.99,971.437 -1167.24,969.418 -1169.15,967.186C-1170.88,965.153 -1171.42,964.911 -1172.71,965.6C-1174.52,966.571 -1174.69,968.795 -1173.04,970.158C-1172.39,970.699 -1171.02,972.681 -1170,974.563C-1166.61,980.806 -1164.24,984.595 -1162.89,985.946C-1162.16,986.68 -1161.18,988.666 -1160.73,990.359C-1160.27,992.052 -1159.45,993.61 -1158.9,993.821C-1158.35,994.033 -1157.71,995.156 -1157.47,996.317C-1157.24,997.479 -1156.59,998.892 -1156.03,999.457C-1155.46,1000.02 -1154.4,1001.41 -1153.65,1002.55C-1152.01,1005.06 -1151.23,1005.11 -1148.4,1002.84ZM-938.656,1004.43L-914.374,965.72L-919.879,962.736L-943.593,1000.96L-938.656,1004.43ZM-1139.73,993.36C-1138.45,993.36 -1138.43,993.108 -1139.38,989.517C-1139.93,987.403 -1141.01,984.956 -1141.76,984.079C-1142.51,983.202 -1143.79,981.135 -1144.61,979.485C-1145.43,977.835 -1146.69,975.831 -1147.41,975.031C-1148.14,974.231 -1148.73,973.134 -1148.73,972.593C-1148.73,972.053 -1149.06,971.61 -1149.47,971.61C-1150.33,971.61 -1153.98,966.064 -1153.98,964.759C-1153.98,962.981 -1157.39,956.649 -1158.57,956.242C-1160.33,955.63 -1163.73,957.126 -1163.73,958.516C-1163.73,960.162 -1162.25,962.803 -1160.71,963.893C-1160.01,964.393 -1158.53,966.587 -1157.42,968.768C-1155.32,972.934 -1154.46,974.434 -1152.27,977.746C-1151.54,978.856 -1149.77,982.148 -1148.33,985.062C-1146.88,987.976 -1145.38,990.36 -1144.99,990.36C-1144.59,990.36 -1143.7,991.457 -1143,992.797C-1142.31,994.138 -1141.59,994.813 -1141.42,994.297C-1141.25,993.782 -1140.49,993.36 -1139.73,993.36ZM-949.372,995.073L-926.728,958.516L-931.889,956.242L-953.452,992.102L-949.372,995.073ZM-1082.66,848.98C-1082.66,848.98 -1087.09,924.854 -1086.25,925.469C-1085.52,926.005 -1085.4,931.31 -1087.04,931.964C-1094.29,934.855 -1098.26,937.358 -1100.56,940.5C-1102.86,943.634 -1085.02,986.076 -1085,986.797C-1084.96,988.869 -1081.11,979.133 -1080.55,977.786C-1080.06,976.604 -1062.64,967.7 -1045.23,967.7C-1027.81,967.7 -1010.39,976.604 -1009.9,977.786C-1009.34,979.133 -1005.49,988.869 -1005.45,986.797C-1005.44,986.076 -987.596,943.634 -989.894,940.5C-992.198,937.358 -996.163,934.855 -1003.42,931.964C-1005.06,931.31 -1004.94,926.005 -1004.2,925.469M-1183.55,883.86C-1183.28,883.86 -1181.85,882.805 -1180.38,881.516C-1178.91,880.227 -1176.61,878.713 -1175.27,878.152C-1173.93,877.591 -1172.34,876.438 -1171.75,875.589C-1171.15,874.741 -1170.37,874.143 -1170.01,874.261C-1169.09,874.563 -1156.98,868.723 -1156.98,867.975C-1156.98,867.637 -1156.2,867.36 -1155.25,867.36C-1154.3,867.36 -1153.14,866.969 -1152.66,866.491C-1152.18,866.013 -1150.68,865.501 -1149.32,865.354C-1146.73,865.073 -1140.69,863.044 -1139.28,861.981C-1138.43,861.344 -1134.09,862.501 -1132.41,863.811C-1131.9,864.214 -1131.47,864.418 -1131.47,864.264C-1131.31,858.703 -1130.74,807.337 -1130.76,800.985C-1130.78,796.035 -1130.8,790.297 -1130.81,788.235C-1130.82,786.172 -1130.81,781.785 -1130.79,778.485C-1130.77,775.185 -1130.76,771.979 -1130.76,771.36C-1130.78,766.278 -1129.81,708.056 -1129.47,694.11C-1129.24,684.416 -1129.07,675.641 -1129.09,674.61C-1129.11,673.579 -1129.22,669.137 -1129.33,664.74C-1129.44,660.094 -1129.2,656.325 -1128.75,655.74C-1127.73,654.406 -1128,628.693 -1129.08,624.735C-1129.53,623.085 -1130.45,619.71 -1131.13,617.235C-1131.8,614.76 -1132.65,611.047 -1133.02,608.985C-1133.38,606.922 -1133.8,604.729 -1133.95,604.11C-1134.66,601.213 -1140.27,589.976 -1141.74,588.494C-1142.29,587.949 -1142.73,586.936 -1142.74,586.244C-1142.75,585.551 -1143.23,584.141 -1143.82,583.11C-1144.41,582.079 -1145.43,580.066 -1146.09,578.636C-1146.75,577.207 -1147.53,575.857 -1147.83,575.636C-1148.13,575.416 -1149.2,573.593 -1150.21,571.587C-1151.22,569.58 -1152.49,567.772 -1153.02,567.569C-1153.55,567.366 -1153.98,566.81 -1153.98,566.335C-1153.98,565.86 -1154.65,565.049 -1155.48,564.534C-1156.3,564.019 -1156.98,563.233 -1156.98,562.787C-1156.98,562.053 -1161.16,557.173 -1163.58,555.079C-1166.77,552.32 -1171.02,547.84 -1172.87,545.299C-1174.88,542.513 -1179.39,538.86 -1180.8,538.86C-1181.16,538.86 -1182.84,537.679 -1184.53,536.235C-1186.21,534.791 -1187.76,533.61 -1187.97,533.61C-1188.17,533.61 -1188.24,536.563 -1188.11,540.172C-1187.88,546.735 -1187.88,546.735 -1184.61,549.194C-1182.82,550.547 -1180.34,552.188 -1179.1,552.842C-1177.87,553.496 -1176.11,554.869 -1175.2,555.893C-1174.3,556.918 -1171.82,559.051 -1169.69,560.634C-1166.13,563.295 -1158.9,570.7 -1158.82,571.771C-1158.74,572.88 -1155.35,578.671 -1154.07,579.894C-1153.3,580.631 -1152.41,582.079 -1152.1,583.11C-1151.78,584.141 -1150.39,586.252 -1149,587.8C-1147.61,589.348 -1146.48,591.109 -1146.48,591.714C-1146.48,592.319 -1145.76,594.09 -1144.88,595.65C-1144,597.209 -1142.63,600.828 -1141.84,603.691C-1141.04,606.554 -1139.92,609.761 -1139.35,610.816C-1137.95,613.378 -1134.34,624.21 -1134.01,626.792C-1133.87,627.923 -1133.42,630.96 -1133.01,633.542C-1131.65,642.04 -1130.99,664.777 -1131.76,676.11C-1132.53,687.386 -1133.7,752.659 -1133.65,781.485C-1133.64,790.972 -1133.63,799.072 -1133.65,799.485C-1133.68,800.67 -1134.35,807.085 -1135.29,815.235C-1136.15,822.713 -1136.3,838.347 -1135.54,843.394C-1135.1,846.412 -1136.2,849.924 -1138.13,851.6C-1140,853.222 -1144.16,855.36 -1145.44,855.36C-1146.05,855.36 -1147.79,855.999 -1149.32,856.78C-1150.85,857.56 -1152.27,858.214 -1152.48,858.231C-1154.58,858.41 -1163.57,861.543 -1165.98,862.934C-1166.6,863.291 -1168.47,864.241 -1170.14,865.046C-1171.81,865.85 -1174,867.325 -1175.01,868.323C-1176.03,869.322 -1177.61,870.538 -1178.54,871.026C-1179.47,871.514 -1180.23,872.323 -1180.23,872.824C-1180.23,873.325 -1181.45,874.709 -1182.94,875.899C-1184.43,877.089 -1186.29,879.5 -1187.07,881.256C-1187.84,883.012 -1188.98,884.643 -1189.6,884.881C-1190.3,885.149 -1190.73,886.289 -1190.73,887.879C-1190.73,890.445 -1190.73,890.445 -1187.39,887.152C-1185.55,885.341 -1183.82,883.86 -1183.55,883.86L-1183.55,883.86ZM-900.902,884.856C-901.614,884.336 -902.786,882.592 -903.507,880.98C-904.229,879.369 -906.036,877.079 -907.523,875.893C-909.011,874.706 -910.228,873.325 -910.228,872.824C-910.228,872.323 -910.987,871.514 -911.915,871.026C-912.843,870.538 -914.431,869.322 -915.443,868.323C-916.456,867.325 -918.65,865.85 -920.318,865.046C-921.987,864.241 -923.859,863.291 -924.478,862.934C-926.885,861.543 -935.879,858.41 -937.978,858.231C-938.184,858.214 -939.605,857.56 -941.135,856.78C-942.666,855.999 -944.41,855.36 -945.012,855.36C-946.297,855.36 -950.453,853.222 -952.322,851.6C-954.253,849.924 -955.361,846.412 -954.912,843.394C-954.16,838.347 -954.301,822.713 -955.165,815.235C-956.106,807.085 -956.776,800.67 -956.809,799.485C-956.82,799.072 -956.818,790.972 -956.801,781.485C-956.751,752.659 -957.925,687.386 -958.696,676.11C-959.47,664.777 -958.803,642.04 -957.446,633.542C-957.034,630.96 -956.582,627.923 -956.441,626.792C-956.12,624.21 -952.504,613.378 -951.108,610.816C-950.533,609.761 -949.412,606.554 -948.617,603.691C-947.821,600.828 -946.452,597.209 -945.574,595.65C-944.696,594.09 -943.978,592.319 -943.978,591.714C-943.978,591.109 -942.841,589.348 -941.452,587.8C-940.063,586.252 -938.671,584.141 -938.359,583.11C-938.047,582.079 -937.159,580.631 -936.385,579.894C-935.103,578.671 -931.718,572.88 -931.637,571.771C-931.558,570.7 -924.327,563.295 -920.76,560.634C-918.639,559.051 -916.161,556.918 -915.253,555.893C-914.345,554.869 -912.59,553.496 -911.353,552.842C-910.115,552.188 -907.635,550.547 -905.842,549.194C-902.58,546.735 -902.58,546.735 -902.347,540.172C-902.218,536.563 -902.282,533.61 -902.489,533.61C-902.695,533.61 -904.244,534.791 -905.931,536.235C-907.618,537.679 -909.292,538.86 -909.653,538.86C-911.067,538.86 -915.571,542.513 -917.59,545.299C-919.433,547.84 -923.687,552.32 -926.877,555.079C-929.299,557.173 -933.478,562.053 -933.478,562.787C-933.478,563.233 -934.153,564.019 -934.978,564.534C-935.803,565.049 -936.478,565.86 -936.478,566.335C-936.478,566.81 -936.911,567.366 -937.441,567.569C-937.97,567.772 -939.232,569.58 -940.243,571.587C-941.255,573.593 -942.327,575.416 -942.626,575.636C-942.925,575.857 -943.709,577.207 -944.369,578.636C-945.028,580.066 -946.049,582.079 -946.637,583.11C-947.225,584.141 -947.711,585.551 -947.717,586.244C-947.722,586.936 -948.171,587.949 -948.713,588.494C-950.186,589.976 -955.792,601.213 -956.503,604.11C-956.655,604.729 -957.076,606.922 -957.439,608.985C-957.801,611.047 -958.652,614.76 -959.329,617.235C-960.006,619.71 -960.928,623.085 -961.378,624.735C-962.457,628.693 -962.726,654.406 -961.703,655.74C-961.255,656.325 -961.014,660.094 -961.129,664.74C-961.238,669.137 -961.345,673.579 -961.368,674.61C-961.39,675.641 -961.217,684.416 -960.982,694.11C-960.644,708.056 -959.674,766.278 -959.695,771.36C-959.697,771.979 -959.684,775.185 -959.665,778.485C-959.646,781.785 -959.637,786.172 -959.646,788.235C-959.654,790.297 -959.676,796.035 -959.695,800.985C-959.72,807.337 -959.144,858.703 -958.986,864.264C-958.98,864.418 -958.556,864.214 -958.041,863.811C-956.366,862.501 -952.028,861.344 -951.18,861.981C-949.764,863.044 -943.721,865.073 -941.135,865.354C-939.777,865.501 -938.275,866.013 -937.797,866.491C-937.319,866.969 -936.152,867.36 -935.203,867.36C-934.254,867.36 -933.478,867.637 -933.478,867.975C-933.478,868.723 -921.371,874.563 -920.446,874.261C-920.084,874.143 -919.302,874.741 -918.708,875.589C-918.114,876.438 -916.529,877.591 -915.186,878.152C-913.843,878.713 -911.543,880.227 -910.075,881.516C-908.606,882.805 -907.112,883.883 -906.754,883.911C-906.396,883.94 -904.753,885.374 -903.103,887.099C-900.103,890.235 -900.103,890.235 -899.857,888.018C-899.695,886.567 -900.057,885.474 -900.903,884.856L-900.902,884.856ZM-1004.2,925.469C-1005.29,900.532 -1007.47,850.659 -1007.79,848.98C-1008.19,846.914 -1008.46,842.189 -1008.39,838.48C-1008.33,834.77 -1008.66,828.529 -1009.12,824.61C-1010.28,814.652 -1010.24,814.259 -1007.78,811.802C-1005.98,809.997 -1004.97,809.61 -1002.04,809.61C-999.053,809.61 -997.887,809.142 -994.672,806.652C-992.571,805.025 -990.296,803.035 -989.615,802.231C-988.935,801.427 -987.794,800.442 -987.079,800.042C-986.036,799.458 -985.72,797.978 -985.477,792.524C-985.289,788.317 -985.468,785.549 -985.95,785.252C-986.378,784.988 -986.728,785.061 -986.728,785.415C-986.728,785.77 -989.442,787.85 -992.759,790.038C-999.373,794.402 -1003.04,795.237 -1005.79,793.007C-1007.26,791.82 -1007.36,790.942 -1007.46,778.738C-1007.72,747.088 -1008.44,711.564 -1008.87,708.995C-1009.13,707.454 -1009.49,692.759 -1009.66,676.339C-1009.83,659.919 -1010.04,640.885 -1010.13,634.04C-1010.28,621.844 -1010.25,621.547 -1008.44,619.259C-1007.43,617.974 -1006.1,616.985 -1005.48,617.06C-1004.86,617.136 -1003.95,616.946 -1003.47,616.64C-1002.24,615.87 -996.478,618.283 -996.478,619.566C-996.478,620.14 -996.14,620.644 -995.728,620.685C-993.176,620.94 -986.697,620.786 -979.094,620.29C-970.335,619.719 -970.335,619.719 -970.172,609.477C-969.969,596.729 -969.86,595.077 -969.108,593.341C-968.776,592.574 -968.717,587.751 -968.977,582.624C-969.441,573.471 -968.709,566.612 -967.048,564.547C-966.536,563.911 -966.552,563.61 -967.097,563.61C-968.28,563.61 -971.06,560.783 -974.505,556.075C-976.18,553.786 -979.155,550.412 -981.116,548.575C-988.014,542.114 -994.785,535.141 -996.168,533.074C-999.734,527.743 -1000.11,526.495 -999.672,521.543C-999.436,518.899 -999.271,516.229 -999.304,515.61C-999.828,505.98 -998.771,484.042 -997.607,480.375C-997.365,479.611 -997.477,478.794 -997.856,478.56C-998.697,478.04 -999.069,457.244 -998.69,431.985C-998.271,404.009 -998.66,386.817 -999.912,377.985C-1000.27,375.473 -999.993,374.532 -998.22,372.2C-997.055,370.668 -995.498,369.402 -994.76,369.387C-994.021,369.373 -992.502,368.686 -991.385,367.863C-989.554,366.515 -988.201,366.37 -977.728,366.406C-965.408,366.448 -963.125,366.592 -961.065,367.459C-960.357,367.757 -959.344,367.853 -958.815,367.671C-958.286,367.489 -956.84,367.634 -955.603,367.993C-954.365,368.352 -951.665,368.836 -949.603,369.069C-945.853,369.493 -945.853,369.493 -945.842,355.926C-945.836,348.465 -946.109,342.36 -946.448,342.36C-946.788,342.36 -946.848,342.006 -946.581,341.574C-946.314,341.142 -945.998,338.189 -945.879,335.012C-945.76,331.834 -945.459,327.885 -945.21,326.235C-944.962,324.585 -944.586,315.211 -944.376,305.405C-943.993,287.576 -943.993,287.576 -955.423,288.035C-961.709,288.287 -967.865,288.785 -969.103,289.141C-971.187,289.741 -988.887,289.923 -1045.23,289.923C-1101.57,289.923 -1119.27,289.741 -1121.35,289.141C-1122.59,288.785 -1128.75,288.287 -1135.03,288.035C-1146.46,287.576 -1146.46,287.576 -1146.08,305.405C-1145.87,315.211 -1145.49,324.585 -1145.25,326.235C-1145,327.885 -1144.7,331.834 -1144.58,335.012C-1144.46,338.189 -1144.14,341.142 -1143.88,341.574C-1143.61,342.006 -1143.67,342.36 -1144.01,342.36C-1144.35,342.36 -1144.62,348.465 -1144.61,355.926C-1144.6,369.493 -1144.6,369.493 -1140.85,369.069C-1138.79,368.836 -1136.09,368.352 -1134.85,367.993C-1133.62,367.634 -1132.17,367.489 -1131.64,367.671C-1131.11,367.853 -1130.1,367.757 -1129.39,367.459C-1127.33,366.592 -1125.05,366.448 -1112.73,366.406C-1102.25,366.37 -1100.9,366.515 -1099.07,367.863C-1097.95,368.686 -1096.43,369.372 -1095.7,369.387C-1094.96,369.401 -1093.4,370.668 -1092.24,372.2C-1090.46,374.532 -1090.19,375.473 -1090.54,377.985C-1091.8,386.817 -1092.18,404.009 -1091.77,431.985C-1091.39,457.244 -1091.76,478.04 -1092.6,478.56C-1092.98,478.795 -1093.09,479.611 -1092.85,480.375C-1091.68,484.042 -1090.63,505.98 -1091.15,515.61C-1091.18,516.229 -1091.02,518.899 -1090.78,521.543C-1090.34,526.495 -1090.72,527.743 -1094.29,533.074C-1095.67,535.141 -1102.44,542.114 -1109.34,548.575C-1111.3,550.412 -1114.28,553.786 -1115.95,556.075C-1119.39,560.783 -1122.17,563.61 -1123.36,563.61C-1123.9,563.61 -1123.92,563.911 -1123.41,564.547C-1121.75,566.612 -1121.02,573.471 -1121.48,582.624C-1121.74,587.751 -1121.68,592.574 -1121.35,593.341C-1120.6,595.077 -1120.49,596.729 -1120.28,609.477C-1120.12,619.719 -1120.12,619.719 -1111.36,620.29C-1103.76,620.786 -1097.28,620.94 -1094.73,620.685C-1094.32,620.644 -1093.98,620.14 -1093.98,619.566C-1093.98,618.283 -1088.22,615.87 -1086.99,616.64C-1086.5,616.947 -1085.6,617.136 -1084.98,617.06C-1084.36,616.985 -1083.02,617.974 -1082.01,619.259C-1080.21,621.547 -1080.17,621.844 -1080.33,634.04C-1080.42,640.885 -1080.63,659.919 -1080.8,676.339C-1080.97,692.759 -1081.32,707.454 -1081.58,708.995C-1082.02,711.564 -1082.74,747.088 -1083,778.738C-1083.1,790.942 -1083.2,791.82 -1084.66,793.007C-1087.42,795.237 -1091.08,794.402 -1097.7,790.038C-1101.01,787.85 -1103.73,785.77 -1103.73,785.415C-1103.73,785.061 -1104.08,784.988 -1104.51,785.252C-1104.99,785.549 -1105.17,788.317 -1104.98,792.524C-1104.74,797.978 -1104.42,799.458 -1103.38,800.042C-1102.66,800.442 -1101.52,801.427 -1100.84,802.231C-1100.16,803.035 -1097.88,805.025 -1095.78,806.652C-1092.57,809.142 -1091.4,809.61 -1088.41,809.61C-1085.49,809.61 -1084.48,809.997 -1082.67,811.802C-1080.21,814.259 -1080.17,814.652 -1081.34,824.61C-1081.8,828.529 -1082.12,834.77 -1082.06,838.48C-1082,842.189 -1082.27,846.914 -1082.66,848.98M-1050.48,818.912C-1051.1,818.68 -1052.11,818.296 -1052.73,818.057C-1053.35,817.819 -1054.3,817.697 -1054.85,817.787C-1055.39,817.878 -1056.29,817.581 -1056.83,817.129C-1057.37,816.677 -1058.11,816.373 -1058.46,816.453C-1058.81,816.533 -1059.61,816.43 -1060.23,816.225C-1060.85,816.02 -1063.71,815.074 -1066.6,814.123C-1080.65,809.498 -1081.7,808.76 -1080.83,804.132C-1080.41,801.867 -1080.05,801.601 -1076.19,800.705C-1072.37,799.815 -1071.85,799.854 -1070.06,801.174C-1068.4,802.395 -1065.63,803.111 -1059.46,803.909C-1058.84,803.99 -1058,804.25 -1057.59,804.487C-1057.18,804.725 -1055.26,805.15 -1053.31,805.433C-1051.36,805.715 -1049.57,806.265 -1049.33,806.653C-1049.09,807.042 -1047.24,807.36 -1045.23,807.36C-1043.21,807.36 -1041.37,807.042 -1041.13,806.653C-1040.89,806.265 -1039.1,805.715 -1037.15,805.433C-1035.2,805.15 -1033.27,804.725 -1032.87,804.487C-1032.46,804.25 -1031.62,803.99 -1030.99,803.909C-1024.83,803.111 -1022.06,802.395 -1020.4,801.174C-1018.6,799.854 -1018.09,799.815 -1014.26,800.705C-1010.41,801.601 -1010.05,801.867 -1009.62,804.132C-1008.76,808.76 -1009.81,809.498 -1023.85,814.123C-1026.74,815.074 -1029.61,816.02 -1030.23,816.225C-1030.85,816.43 -1031.64,816.533 -1031.99,816.453C-1032.35,816.373 -1033.1,816.695 -1033.67,817.168C-1034.24,817.641 -1035.18,817.848 -1035.75,817.627C-1036.33,817.407 -1037.15,817.588 -1037.6,818.029C-1038.47,818.899 -1048.65,819.597 -1050.48,818.912L-1050.48,818.912ZM-1073.23,764.735C-1074.37,763.546 -1075.29,761.934 -1075.28,761.154C-1075.26,760.373 -1075.25,757.841 -1075.26,755.527C-1075.26,750.865 -1074.74,750.145 -1070.58,749.01C-1068.14,748.345 -1067.69,748.44 -1066.78,749.806C-1065.84,751.229 -1065.56,751.273 -1063.44,750.332C-1061.24,749.36 -1061.14,749.128 -1061.49,745.896C-1062,741.141 -1062.01,736.956 -1061.53,728.021C-1061.17,721.273 -1060.88,719.993 -1059.21,717.81C-1056.47,714.212 -1053.05,713.67 -1050.39,716.409C-1048.37,718.479 -1048.36,718.538 -1047.38,736.485C-1046.12,759.589 -1046.16,760.572 -1048.57,762.469C-1049.62,763.294 -1050.48,764.597 -1050.48,765.364C-1050.48,766.429 -1051.01,766.744 -1052.73,766.696C-1053.96,766.66 -1054.98,766.3 -1054.98,765.894C-1054.98,765.441 -1056.35,765.356 -1058.54,765.674C-1060.5,765.958 -1064.14,766.35 -1066.63,766.545C-1070.86,766.874 -1071.3,766.755 -1073.23,764.735L-1073.23,764.735ZM-1039.98,765.364C-1039.98,764.597 -1040.84,763.294 -1041.88,762.469C-1044.3,760.572 -1044.34,759.589 -1043.08,736.485C-1042.09,718.538 -1042.08,718.479 -1040.07,716.409C-1037.4,713.67 -1033.99,714.212 -1031.25,717.81C-1029.58,719.993 -1029.29,721.273 -1028.93,728.021C-1028.45,736.956 -1028.46,741.141 -1028.97,745.896C-1029.32,749.128 -1029.21,749.36 -1027.02,750.332C-1024.89,751.273 -1024.62,751.229 -1023.67,749.806C-1022.76,748.44 -1022.31,748.345 -1019.87,749.01C-1015.71,750.145 -1015.2,750.865 -1015.2,755.527C-1015.2,757.841 -1015.19,760.373 -1015.18,761.154C-1015.16,761.934 -1016.08,763.546 -1017.22,764.735C-1019.16,766.755 -1019.59,766.875 -1023.82,766.545C-1026.32,766.35 -1029.96,765.958 -1031.91,765.674C-1034.1,765.356 -1035.48,765.441 -1035.48,765.894C-1035.48,766.3 -1036.49,766.661 -1037.73,766.696C-1039.44,766.744 -1039.98,766.429 -1039.98,765.364L-1039.98,765.364ZM-1063.57,699.251C-1064.75,698.933 -1065.98,698.831 -1066.29,699.024C-1066.93,699.419 -1068.31,695.272 -1068.3,692.985C-1068.3,692.16 -1068.39,684.248 -1068.52,675.403C-1068.68,663.59 -1068.5,659.244 -1067.86,659.028C-1067.37,658.867 -1066.98,658.113 -1066.98,657.352C-1066.98,655.59 -1065.27,655.254 -1060.76,656.127C-1058.35,656.592 -1056.58,656.555 -1055.39,656.016C-1053.07,654.954 -1051.78,656.038 -1050.49,660.148C-1049.81,662.344 -1049.74,663.605 -1050.28,664.273C-1050.7,664.802 -1051.29,668.185 -1051.58,671.79C-1052.11,678.346 -1052.11,678.346 -1049.61,678.05C-1048.23,677.887 -1046.68,678.1 -1046.16,678.523C-1045.52,679.05 -1044.93,679.05 -1044.29,678.523C-1043.77,678.1 -1042.23,677.887 -1040.85,678.05C-1038.34,678.346 -1038.34,678.346 -1038.88,671.79C-1039.17,668.185 -1039.75,664.802 -1040.18,664.273C-1040.71,663.605 -1040.65,662.344 -1039.96,660.148C-1038.68,656.04 -1037.39,654.954 -1035.06,656.016C-1033.88,656.555 -1032.1,656.592 -1029.7,656.127C-1025.18,655.254 -1023.48,655.59 -1023.48,657.352C-1023.48,658.113 -1023.08,658.867 -1022.6,659.028C-1021.95,659.244 -1021.78,663.59 -1021.94,675.403C-1022.06,684.248 -1022.16,692.16 -1022.16,692.985C-1022.14,696.307 -1023.47,699.037 -1025.17,699.183C-1032.98,699.852 -1038.94,699.357 -1042,697.787C-1045.23,696.124 -1045.23,696.124 -1048.41,697.73C-1051.85,699.46 -1059.8,700.258 -1063.57,699.251L-1063.57,699.251ZM-1054.67,626.508C-1054.91,626.108 -1055.51,625.921 -1055.98,626.092C-1056.46,626.263 -1058.03,625.96 -1059.48,625.42C-1060.92,624.879 -1063.58,624.058 -1065.38,623.596C-1067.18,623.133 -1069.04,622.449 -1069.5,622.074C-1077.91,615.341 -1084.19,608.158 -1084.23,605.235C-1084.27,601.937 -1085.01,601.709 -1092.93,602.527C-1097.01,602.949 -1101.37,603.122 -1102.6,602.912C-1103.84,602.702 -1105.27,602.491 -1105.79,602.445C-1106.31,602.398 -1106.73,602.067 -1106.73,601.709C-1106.73,601.35 -1107.38,601.408 -1108.19,601.838C-1109.41,602.492 -1109.95,602.213 -1111.56,600.106C-1112.62,598.724 -1113.48,597.245 -1113.48,596.818C-1113.48,596.392 -1113.97,595.631 -1114.58,595.127C-1116.71,593.356 -1114.8,583.574 -1110.65,575.047C-1108.55,570.736 -1107.23,570.208 -1104.62,572.639C-1103.36,573.811 -1102.98,575.028 -1102.98,577.854C-1102.98,579.881 -1102.57,582.426 -1102.08,583.509C-1101.22,585.394 -1100.99,585.461 -1096.64,585.073C-1094.15,584.85 -1091.34,584.651 -1090.41,584.631C-1088.78,584.595 -1088.73,584.358 -1088.73,577.128C-1088.73,568.9 -1089.17,568.11 -1093.81,568.11C-1096.02,568.11 -1099.15,565.611 -1097.9,564.843C-1097.53,564.615 -1097.29,563.147 -1097.36,561.581C-1097.43,560.016 -1097.32,558.425 -1097.11,558.046C-1096.9,557.667 -1096.61,555.642 -1096.46,553.546C-1096.07,548.175 -1094.88,545.479 -1093.01,545.759C-1090.29,546.167 -1088.64,549.414 -1088.49,554.665C-1088.39,558.122 -1088.03,559.629 -1087.23,559.995C-1085.32,560.858 -1084.23,560.663 -1084.23,559.461C-1084.23,558.829 -1083.57,558.068 -1082.77,557.771C-1081.33,557.238 -1078.97,555.474 -1074.28,551.422C-1072.97,550.288 -1071.48,549.36 -1070.98,549.36C-1069.39,549.36 -1068.88,547.64 -1068.79,541.86C-1068.63,533.111 -1067.79,528.447 -1066.2,527.598C-1062.24,525.475 -1059.57,528.324 -1059.66,534.577C-1059.72,538.531 -1059.34,539.292 -1057.77,538.366C-1055.43,536.99 -1046,527.927 -1045.99,527.047C-1045.98,526.532 -1045.64,526.11 -1045.23,526.11C-1044.82,526.11 -1044.47,526.532 -1044.47,527.047C-1044.45,527.927 -1035.03,536.99 -1032.69,538.366C-1031.11,539.292 -1030.73,538.531 -1030.79,534.577C-1030.89,528.324 -1028.22,525.475 -1024.25,527.598C-1022.66,528.447 -1021.82,533.111 -1021.67,541.86C-1021.57,547.64 -1021.07,549.36 -1019.48,549.36C-1018.97,549.36 -1017.49,550.288 -1016.18,551.422C-1011.49,555.474 -1009.13,557.238 -1007.69,557.771C-1006.89,558.068 -1006.23,558.829 -1006.23,559.461C-1006.23,560.663 -1005.13,560.858 -1003.23,559.995C-1002.42,559.629 -1002.06,558.122 -1001.96,554.665C-1001.81,549.414 -1000.16,546.167 -997.447,545.759C-995.579,545.479 -994.385,548.175 -993.997,553.546C-993.846,555.642 -993.552,557.667 -993.345,558.046C-993.137,558.425 -993.025,560.016 -993.096,561.581C-993.167,563.147 -992.922,564.615 -992.553,564.843C-991.309,565.611 -994.438,568.11 -996.643,568.11C-1001.28,568.11 -1001.73,568.9 -1001.73,577.128C-1001.73,584.358 -1001.68,584.594 -1000.04,584.631C-999.112,584.65 -996.31,584.85 -993.813,585.073C-989.467,585.461 -989.234,585.394 -988.375,583.509C-987.882,582.426 -987.478,579.881 -987.478,577.854C-987.478,575.028 -987.095,573.811 -985.836,572.639C-983.227,570.208 -981.905,570.736 -979.806,575.047C-975.656,583.574 -973.74,593.356 -975.874,595.127C-976.481,595.631 -976.978,596.392 -976.978,596.818C-976.978,597.245 -977.84,598.724 -978.894,600.106C-980.501,602.213 -981.046,602.492 -982.269,601.838C-983.071,601.408 -983.728,601.35 -983.728,601.709C-983.728,602.067 -984.15,602.398 -984.665,602.445C-985.181,602.491 -986.615,602.701 -987.853,602.912C-989.09,603.122 -993.444,602.949 -997.528,602.527C-1005.45,601.709 -1006.18,601.937 -1006.22,605.235C-1006.26,608.158 -1012.54,615.341 -1020.95,622.074C-1021.42,622.449 -1023.28,623.133 -1025.08,623.596C-1026.88,624.058 -1029.58,624.907 -1031.08,625.483C-1032.58,626.059 -1034.01,626.331 -1034.25,626.088C-1034.49,625.845 -1035.12,625.995 -1035.65,626.422C-1036.71,627.284 -1042.98,627.564 -1042.98,626.75C-1042.98,626.467 -1043.99,626.235 -1045.23,626.235C-1046.46,626.235 -1047.48,626.46 -1047.48,626.735C-1047.48,627.527 -1054.17,627.316 -1054.67,626.508L-1054.67,626.508ZM-1035.41,613.765C-1031.94,613.301 -1028.45,612.469 -1027.66,611.916C-1026.24,610.926 -1026.24,610.904 -1027.66,610.324C-1028.45,610 -1036.36,609.735 -1045.23,609.735C-1054.1,609.735 -1062,610 -1062.8,610.324C-1064.21,610.902 -1064.21,610.931 -1062.76,611.946C-1059.56,614.191 -1045.55,615.123 -1035.41,613.765L-1035.41,613.765ZM-1016.46,601.708C-1016.02,601.006 -1015.87,600.215 -1016.14,599.95C-1016.4,599.685 -1020.78,599.385 -1025.86,599.283C-1030.94,599.181 -1035.44,599.004 -1035.85,598.89C-1036.27,598.776 -1036.86,598.742 -1037.16,598.817C-1037.47,598.89 -1041.1,598.95 -1045.23,598.95C-1049.35,598.95 -1052.98,598.89 -1053.29,598.817C-1053.6,598.743 -1054.19,598.783 -1054.6,598.906C-1055.02,599.028 -1058.73,599.203 -1062.85,599.294C-1066.98,599.385 -1071.28,599.493 -1072.41,599.535C-1074.55,599.613 -1075.11,600.925 -1073.65,602.391C-1073.07,602.973 -1064.5,603.186 -1045.04,603.103C-1019.78,602.996 -1017.19,602.87 -1016.46,601.709L-1016.46,601.708ZM-1045.23,591.224C-1031.33,591.224 -1018.1,591.456 -1015.83,591.74C-1011.44,592.287 -1010.58,591.723 -1011.05,588.628C-1011.24,587.378 -1012.09,587.222 -1019.43,587.108C-1023.93,587.039 -1028.28,586.95 -1029.1,586.912C-1031.65,586.795 -1040.89,586.637 -1045.23,586.637C-1049.57,586.637 -1058.81,586.795 -1061.35,586.912C-1062.18,586.951 -1066.53,587.039 -1071.03,587.108C-1078.36,587.222 -1079.22,587.378 -1079.41,588.628C-1079.88,591.724 -1079.01,592.287 -1074.63,591.74C-1072.36,591.456 -1059.13,591.224 -1045.23,591.224ZM-1012.58,575.61C-1012.7,574.579 -1012.85,573.18 -1012.89,572.503C-1013.01,570.83 -1014.57,570.347 -1021.2,569.926C-1024.31,569.728 -1030.4,569.296 -1034.73,568.966C-1039.06,568.635 -1043.78,568.365 -1045.23,568.365C-1046.67,568.365 -1051.4,568.635 -1055.73,568.966C-1060.06,569.296 -1066.15,569.728 -1069.26,569.926C-1075.89,570.347 -1077.45,570.83 -1077.56,572.503C-1077.61,573.18 -1077.75,574.579 -1077.88,575.61C-1078.11,577.485 -1078.11,577.485 -1045.23,577.485C-1012.35,577.485 -1012.35,577.485 -1012.58,575.61ZM-1029.47,557.588C-1028.85,557.2 -1028.71,556.878 -1029.15,556.871C-1029.6,556.866 -1031.11,555.831 -1032.52,554.573C-1034.59,552.724 -1035.44,552.4 -1036.97,552.884C-1038,553.213 -1041.72,553.482 -1045.23,553.482C-1048.73,553.482 -1052.45,553.213 -1053.49,552.884C-1055.01,552.4 -1055.87,552.724 -1057.94,554.573C-1059.35,555.831 -1060.86,556.865 -1061.3,556.871C-1061.74,556.877 -1061.6,557.2 -1060.99,557.588C-1060.37,557.976 -1053.28,558.293 -1045.23,558.293C-1037.17,558.293 -1030.08,557.976 -1029.47,557.588ZM-1070.73,468.36C-1070.73,467.947 -1071.19,467.61 -1071.76,467.61C-1072.33,467.61 -1073,466.558 -1073.26,465.272C-1073.73,462.926 -1071.61,457.858 -1068.31,453.446C-1067.58,452.463 -1066.98,451.233 -1066.98,450.715C-1066.98,449.657 -1070.27,448.547 -1072.69,448.786C-1075.32,449.044 -1076.71,447.021 -1076.12,443.792C-1075.85,442.248 -1075.61,439.55 -1075.61,437.795C-1075.6,434.646 -1075.56,434.59 -1071.94,433.391C-1069.93,432.723 -1064.52,431.796 -1059.92,431.331C-1051.57,430.486 -1051.56,430.482 -1052.41,428.775C-1053.08,427.436 -1052.99,426.051 -1051.99,422.4C-1050.62,417.397 -1050.02,408.724 -1051,408.136C-1051.33,407.94 -1053.57,408.139 -1055.96,408.579C-1059.55,409.236 -1060.52,409.744 -1061.38,411.422C-1062.61,413.789 -1066.3,416.225 -1069.77,416.959C-1072.4,417.516 -1076.98,416.275 -1079.25,414.392C-1083.31,411.012 -1084.78,401.816 -1082.13,396.36C-1080.64,393.293 -1075.91,390.629 -1070.68,389.913C-1066.7,389.369 -1060.83,391.589 -1059.45,394.155C-1058.36,396.203 -1055.67,397.128 -1052.37,396.592C-1050.11,396.225 -1049.57,395.781 -1049.21,393.955C-1048.97,392.747 -1047.97,391.236 -1047,390.598C-1045.4,389.551 -1045.06,389.551 -1043.46,390.598C-1042.48,391.236 -1041.49,392.747 -1041.25,393.955C-1040.88,395.781 -1040.35,396.225 -1038.09,396.592C-1034.79,397.128 -1032.1,396.203 -1031,394.155C-1029.63,391.589 -1023.75,389.369 -1019.77,389.913C-1014.55,390.629 -1009.82,393.293 -1008.33,396.36C-1005.67,401.816 -1007.14,411.012 -1011.21,414.392C-1013.48,416.275 -1018.05,417.516 -1020.68,416.959C-1024.16,416.225 -1027.85,413.789 -1029.07,411.422C-1029.94,409.744 -1030.91,409.236 -1034.49,408.579C-1036.89,408.139 -1039.12,407.939 -1039.45,408.136C-1040.44,408.724 -1039.84,417.397 -1038.47,422.4C-1037.47,426.051 -1037.38,427.436 -1038.05,428.775C-1038.9,430.482 -1038.89,430.486 -1030.53,431.331C-1025.93,431.796 -1020.52,432.723 -1018.51,433.391C-1014.9,434.59 -1014.85,434.646 -1014.85,437.795C-1014.84,439.55 -1014.61,442.248 -1014.33,443.792C-1013.75,447.021 -1015.14,449.044 -1017.76,448.786C-1020.19,448.547 -1023.48,449.657 -1023.48,450.715C-1023.48,451.233 -1022.88,452.463 -1022.14,453.446C-1018.85,457.858 -1016.73,462.926 -1017.2,465.272C-1017.46,466.558 -1018.1,467.61 -1018.63,467.61C-1019.17,467.61 -1019.72,467.975 -1019.87,468.42C-1020.49,470.257 -1027.98,465.183 -1027.98,462.932C-1027.98,462.464 -1028.66,461.353 -1029.5,460.463C-1030.33,459.573 -1031.77,457.357 -1032.69,455.54C-1034.35,452.235 -1034.35,452.235 -1039.79,451.601C-1042.78,451.253 -1047.67,451.253 -1050.66,451.601C-1056.1,452.235 -1056.1,452.235 -1057.77,455.54C-1058.69,457.357 -1060.12,459.573 -1060.96,460.463C-1061.79,461.353 -1062.48,462.464 -1062.48,462.932C-1062.48,464.192 -1065.55,467.148 -1067.95,468.195C-1070.49,469.303 -1070.73,469.317 -1070.73,468.36L-1070.73,468.36ZM-1180.75,833.936C-1180.12,833.694 -1179.8,832.924 -1180,832.138C-1180.2,831.382 -1179.94,829.969 -1179.41,828.999C-1178.89,828.029 -1178.55,825.691 -1178.65,823.805C-1178.85,819.933 -1178.15,819.054 -1174.23,818.235C-1172.78,817.933 -1171.15,817.326 -1170.61,816.884C-1169.29,815.821 -1168.3,817.381 -1168.09,820.86C-1168,822.304 -1167.87,824.497 -1167.8,825.735C-1167.73,826.972 -1167.63,828.576 -1167.57,829.297C-1167.5,830.275 -1166.82,830.61 -1164.9,830.61C-1163.48,830.61 -1162.1,830.264 -1161.84,829.841C-1161.1,828.647 -1159.42,810.068 -1159.81,807.415C-1160.04,805.842 -1159.73,804.574 -1158.87,803.628C-1158.14,802.818 -1157.83,801.806 -1158.15,801.28C-1158.47,800.771 -1158.84,796.109 -1158.98,790.92C-1159.4,775.139 -1159.59,774.258 -1164.02,767.803C-1168.9,760.674 -1170.97,759.02 -1174.14,759.715C-1175.52,760.018 -1176.48,760.701 -1176.48,761.378C-1176.48,762.01 -1177.78,764.092 -1179.38,766.006C-1180.97,767.919 -1182.53,770.329 -1182.84,771.36C-1183.15,772.391 -1183.93,773.829 -1184.57,774.556C-1185.2,775.282 -1185.79,777.476 -1185.87,779.431C-1185.95,781.385 -1186.25,790.241 -1186.52,799.11C-1186.8,807.979 -1187.17,816.754 -1187.36,818.61C-1187.81,823.251 -1186.76,830.06 -1185.22,832.409C-1183.94,834.356 -1182.83,834.737 -1180.75,833.936L-1180.75,833.936ZM-1173,809.98C-1174.18,809.364 -1176.28,808.86 -1177.67,808.86C-1181,808.86 -1182.45,806.6 -1182.82,800.876C-1183.31,793.327 -1180.26,777.36 -1178.34,777.36C-1177.8,777.36 -1177.24,777.043 -1177.1,776.656C-1176.96,776.269 -1175.14,775.727 -1173.05,775.452C-1168.39,774.84 -1167.13,775.826 -1166.41,780.636C-1166.13,782.479 -1165.44,784.37 -1164.88,784.838C-1164.11,785.477 -1164.03,786.282 -1164.57,788.087C-1164.96,789.406 -1165.2,793.016 -1165.1,796.11C-1164.86,803.474 -1166.43,809.535 -1168.81,810.44C-1170.96,811.255 -1170.45,811.311 -1173,809.98ZM-904.681,831.414C-903.322,829.081 -903.196,827.623 -903.321,815.664C-903.396,808.415 -903.649,798.941 -903.881,794.61C-904.114,790.279 -904.421,784.269 -904.564,781.254C-904.727,777.802 -905.236,775.303 -905.937,774.504C-906.549,773.806 -907.304,772.391 -907.615,771.36C-907.926,770.329 -909.484,767.919 -911.079,766.006C-912.673,764.092 -913.978,762.01 -913.978,761.378C-913.978,760.701 -914.94,760.018 -916.317,759.715C-919.483,759.02 -921.552,760.674 -926.439,767.803C-930.863,774.258 -931.055,775.139 -931.478,790.92C-931.617,796.109 -931.988,800.771 -932.303,801.28C-932.628,801.806 -932.32,802.818 -931.587,803.628C-930.73,804.574 -930.415,805.842 -930.646,807.415C-931.035,810.068 -929.352,828.647 -928.614,829.841C-928.353,830.264 -926.978,830.61 -925.558,830.61C-923.637,830.61 -922.953,830.275 -922.881,829.297C-922.828,828.576 -922.727,826.972 -922.656,825.735C-922.585,824.497 -922.455,822.304 -922.366,820.86C-922.152,817.381 -921.164,815.821 -919.847,816.884C-919.3,817.326 -917.671,817.933 -916.228,818.235C-912.304,819.054 -911.607,819.933 -911.81,823.805C-911.908,825.691 -911.562,828.029 -911.041,828.999C-910.519,829.969 -910.256,831.388 -910.456,832.151C-911.3,835.381 -906.646,834.787 -904.681,831.414L-904.681,831.414ZM-921.877,810.39C-924.006,809.537 -925.579,803.078 -925.355,796.11C-925.256,793.016 -925.495,789.406 -925.888,788.087C-926.424,786.282 -926.347,785.477 -925.576,784.838C-925.012,784.37 -924.325,782.479 -924.049,780.636C-923.327,775.826 -922.064,774.84 -917.407,775.452C-915.315,775.727 -913.49,776.269 -913.353,776.656C-913.215,777.043 -912.66,777.36 -912.119,777.36C-910.192,777.36 -907.146,793.327 -907.632,800.876C-908.013,806.787 -909.431,808.86 -913.095,808.86C-914.653,808.86 -916.248,809.159 -916.64,809.526C-917.827,810.635 -920.263,811.037 -921.877,810.39ZM-1147.5,731.284C-1148.47,729.81 -1148.71,727.032 -1148.78,716.847C-1148.88,699.987 -1148.82,691.929 -1148.52,684.735C-1148.24,678.177 -1149.24,660.66 -1149.99,658.86C-1150.66,657.243 -1150.92,655.921 -1151.32,652.11C-1151.83,647.236 -1156.1,635.493 -1157.72,634.492C-1158.13,634.233 -1158.48,633.39 -1158.48,632.619C-1158.48,631.848 -1158.98,630.711 -1159.6,630.092C-1160.22,629.473 -1160.73,628.496 -1160.73,627.919C-1160.73,627.343 -1161.55,626.102 -1162.55,625.161C-1163.55,624.22 -1164.2,623.014 -1164,622.481C-1163.48,621.145 -1164.89,620.414 -1165.78,621.556C-1166.18,622.067 -1167.95,625.182 -1169.71,628.477C-1172.73,634.108 -1176.08,639.177 -1177.45,640.176C-1177.78,640.419 -1178.14,641.431 -1178.26,642.426C-1178.37,643.421 -1178.67,644.741 -1178.91,645.36C-1179.7,647.398 -1182.79,663.51 -1183.27,665.985C-1183.85,669.025 -1183.96,674.622 -1183.6,683.235C-1182.92,699.678 -1182.93,709.495 -1183.66,716.561C-1183.98,719.682 -1184.13,722.572 -1184,722.985C-1183.86,723.397 -1183.55,725.061 -1183.3,726.682C-1182.92,729.164 -1182.5,729.725 -1180.6,730.233C-1176.23,731.408 -1172.22,731.741 -1160.57,731.9C-1154.08,731.988 -1148.54,732.296 -1148.25,732.585C-1146.96,733.874 -1146.42,732.934 -1147.5,731.284ZM-929.728,731.946C-918.193,731.741 -914.182,731.395 -909.853,730.233C-907.958,729.725 -907.532,729.164 -907.155,726.682C-906.908,725.061 -906.596,723.397 -906.46,722.985C-906.325,722.572 -906.474,719.682 -906.796,716.561C-907.521,709.495 -907.538,699.678 -906.856,683.235C-906.498,674.622 -906.605,669.025 -907.187,665.985C-907.661,663.51 -908.508,658.954 -909.069,655.86C-910.104,650.16 -910.756,647.398 -911.549,645.36C-911.789,644.741 -912.081,643.421 -912.196,642.426C-912.312,641.431 -912.677,640.419 -913.009,640.176C-914.373,639.177 -917.724,634.108 -920.742,628.477C-922.509,625.182 -924.279,622.067 -924.676,621.556C-925.563,620.414 -926.971,621.145 -926.458,622.481C-926.253,623.014 -926.905,624.22 -927.907,625.161C-928.908,626.102 -929.728,627.343 -929.728,627.919C-929.728,628.496 -930.234,629.473 -930.853,630.092C-931.471,630.711 -931.978,631.848 -931.978,632.619C-931.978,633.39 -932.32,634.233 -932.739,634.492C-934.359,635.493 -938.621,647.236 -939.134,652.11C-939.535,655.921 -939.797,657.243 -940.469,658.86C-941.218,660.66 -942.213,678.177 -941.939,684.735C-941.639,691.929 -941.573,699.987 -941.679,716.847C-941.745,727.442 -941.965,729.775 -943.053,731.436C-944.313,733.358 -944.307,733.395 -942.851,732.783C-942.027,732.436 -936.121,732.059 -929.728,731.946L-929.728,731.946ZM-1121.06,503.548C-1118.54,501.864 -1116.48,500.071 -1116.48,499.564C-1116.48,499.057 -1115.79,497.899 -1114.94,496.991C-1113.14,495.064 -1111.14,488.97 -1111.76,487.342C-1112,486.725 -1111.75,483.861 -1111.2,480.978C-1110.4,476.718 -1110.39,475.625 -1111.18,475.142C-1111.79,474.764 -1111.94,473.933 -1111.61,472.864C-1111.31,471.939 -1111.41,470.462 -1111.83,469.583C-1112.25,468.704 -1112.78,467.394 -1113.01,466.672C-1113.54,465.018 -1115.57,464.985 -1117.36,466.601C-1118.63,467.756 -1118.73,467.756 -1118.73,466.601C-1118.73,465.919 -1119.07,465.36 -1119.48,465.36C-1119.89,465.36 -1120.23,467.315 -1120.23,469.724C-1120.23,473.594 -1120.5,474.392 -1122.67,476.783C-1125.45,479.867 -1129.37,481.714 -1132.62,481.476C-1137.37,481.127 -1140.86,480.063 -1143.78,478.07C-1146.3,476.357 -1146.96,475.368 -1147.61,472.366C-1148.37,468.867 -1148.49,468.739 -1150.91,468.856C-1155.35,469.07 -1155.64,469.945 -1154.34,479.266C-1153.04,488.637 -1152.37,491.049 -1149.4,496.968C-1146.19,503.398 -1140.19,506.463 -1130.63,506.56C-1126.01,506.606 -1125.32,506.386 -1121.06,503.548L-1121.06,503.548ZM-947.964,503.917C-941.368,500.544 -938.159,493.926 -936.166,479.591C-934.82,469.914 -935.086,469.071 -939.549,468.856C-941.967,468.739 -942.086,468.867 -942.845,472.366C-943.496,475.368 -944.16,476.357 -946.673,478.07C-949.595,480.063 -953.085,481.127 -957.838,481.476C-961.086,481.714 -965.001,479.867 -967.79,476.783C-969.952,474.392 -970.228,473.594 -970.228,469.724C-970.228,467.315 -970.564,465.36 -970.978,465.36C-971.39,465.36 -971.728,465.918 -971.728,466.601C-971.728,467.756 -971.823,467.756 -973.099,466.601C-974.885,464.985 -976.915,465.018 -977.444,466.672C-977.675,467.394 -978.206,468.704 -978.624,469.583C-979.043,470.462 -979.145,471.938 -978.851,472.864C-978.512,473.933 -978.668,474.764 -979.279,475.142C-980.061,475.625 -980.056,476.718 -979.254,480.978C-978.71,483.861 -978.459,486.725 -978.695,487.342C-979.32,488.97 -977.313,495.063 -975.518,496.991C-974.671,497.899 -973.979,499.057 -973.979,499.564C-973.979,500.071 -971.87,501.899 -969.291,503.625C-964.604,506.765 -964.604,506.765 -958.451,506.449C-953.512,506.195 -951.442,505.695 -947.965,503.917L-947.964,503.917ZM-1127.91,471.193C-1125.17,469.337 -1124.83,468.824 -1125.5,467.57C-1126.06,466.529 -1126.04,466.11 -1125.44,466.11C-1124.93,466.11 -1124.77,465.322 -1125.04,464.047C-1125.75,460.65 -1125.72,441.214 -1125,437.985C-1124.63,436.335 -1124.5,433.494 -1124.71,431.672C-1125.07,428.612 -1125.28,428.349 -1127.35,428.236C-1128.59,428.169 -1129.96,428.238 -1130.4,428.389C-1130.93,428.571 -1131.22,434.161 -1131.26,444.949C-1131.33,461.029 -1131.62,466.498 -1132.45,467.336C-1132.69,467.572 -1132.57,468.573 -1132.2,469.562C-1131.77,470.698 -1131.78,471.36 -1132.25,471.36C-1132.65,471.36 -1132.98,472.055 -1132.98,472.904C-1132.98,474.604 -1132.92,474.583 -1127.91,471.193L-1127.91,471.193ZM-958.104,471.526C-958.623,471.353 -958.67,470.649 -958.238,469.512C-957.872,468.551 -957.766,467.571 -958.002,467.336C-958.839,466.498 -959.13,461.028 -959.193,444.949C-959.235,434.161 -959.526,428.571 -960.054,428.389C-960.493,428.238 -961.865,428.169 -963.103,428.236C-965.18,428.349 -965.382,428.612 -965.74,431.671C-965.953,433.494 -965.826,436.335 -965.457,437.985C-964.735,441.214 -964.704,460.65 -965.415,464.047C-965.682,465.322 -965.527,466.11 -965.011,466.11C-964.413,466.11 -964.399,466.528 -964.963,467.582C-965.65,468.866 -965.246,469.395 -961.802,471.72C-958.424,474.001 -957.813,474.198 -957.58,473.089C-957.429,472.376 -957.666,471.672 -958.105,471.526L-958.104,471.526ZM-1138.57,471.412C-1138.81,471.028 -1138.66,470.501 -1138.24,470.241C-1137.77,469.95 -1137.73,469.284 -1138.14,468.502C-1138.51,467.805 -1138.67,466.054 -1138.51,464.61C-1138.35,463.166 -1138.06,455.741 -1137.86,448.11C-1137.66,440.479 -1137.41,433.054 -1137.3,431.61C-1137.13,429.386 -1137.36,428.948 -1138.79,428.745C-1139.72,428.613 -1140.5,428.782 -1140.54,429.12C-1140.57,429.458 -1140.73,430.41 -1140.9,431.235C-1141.07,432.06 -1141.4,435.941 -1141.64,439.86C-1141.88,443.779 -1142.37,449.169 -1142.72,451.838C-1143.08,454.595 -1143.07,457.225 -1142.69,457.927C-1142.33,458.607 -1142.15,459.291 -1142.3,459.449C-1142.44,459.606 -1142.75,461.853 -1142.99,464.441C-1143.22,467.029 -1143.62,469.476 -1143.86,469.878C-1144.11,470.281 -1143.54,470.615 -1142.58,470.621C-1141.63,470.627 -1140.35,470.96 -1139.73,471.36C-1138.31,472.279 -1138.03,472.291 -1138.57,471.412L-1138.57,471.412ZM-947.733,470.61C-946.856,470.61 -946.343,470.281 -946.591,469.878C-946.84,469.476 -947.235,467.029 -947.469,464.441C-947.703,461.853 -948.014,459.606 -948.16,459.449C-948.306,459.291 -948.127,458.607 -947.763,457.927C-947.388,457.225 -947.377,454.595 -947.738,451.838C-948.088,449.169 -948.57,443.779 -948.81,439.86C-949.05,435.941 -949.385,432.06 -949.555,431.235C-949.724,430.41 -949.889,429.458 -949.92,429.12C-949.952,428.782 -950.737,428.613 -951.665,428.745C-953.095,428.948 -953.322,429.386 -953.154,431.61C-953.044,433.054 -952.792,440.479 -952.593,448.11C-952.395,455.741 -952.101,463.166 -951.941,464.61C-951.781,466.054 -951.95,467.805 -952.316,468.502C-952.727,469.284 -952.689,469.95 -952.218,470.241C-951.797,470.501 -951.668,471.061 -951.931,471.487C-952.234,471.977 -951.845,471.958 -950.868,471.435C-950.02,470.981 -948.609,470.61 -947.733,470.61L-947.733,470.61ZM-1045.05,277.867C-1002.28,277.959 -1002.17,277.957 -997.312,277.19C-995.233,276.862 -993.657,276.793 -993.809,277.039C-994.404,278.001 -966.031,276.914 -965.054,275.937C-964.872,275.755 -964.683,270.677 -964.633,264.654C-964.548,254.287 -964.625,253.671 -966.073,253.098C-967.835,252.401 -975.011,244.906 -975.743,242.999C-976.014,242.294 -976.908,241.541 -977.731,241.326C-978.554,241.111 -979.228,240.668 -979.228,240.342C-979.228,239.224 -990.919,227.985 -993.532,226.592C-996.084,225.23 -996.204,225.231 -998.748,226.634C-1000.85,227.792 -1002,227.95 -1004.73,227.451C-1006.58,227.111 -1008.84,227.009 -1009.74,227.224C-1010.65,227.439 -1011.55,227.347 -1011.75,227.019C-1012.33,226.091 -1017.31,225.975 -1017.86,226.877C-1018.21,227.443 -1018.68,227.421 -1019.42,226.804C-1020.23,226.133 -1020.73,226.133 -1021.54,226.804C-1022.31,227.446 -1022.73,227.457 -1023.11,226.845C-1023.4,226.385 -1024.1,226.19 -1024.68,226.413C-1025.27,226.636 -1026.56,226.508 -1027.55,226.13C-1028.81,225.651 -1029.6,225.724 -1030.13,226.371C-1031.2,227.653 -1059,227.636 -1060.29,226.352C-1060.88,225.76 -1061.75,225.692 -1062.94,226.144C-1063.92,226.514 -1065.19,226.636 -1065.77,226.413C-1066.35,226.19 -1067.06,226.385 -1067.34,226.845C-1067.72,227.457 -1068.15,227.446 -1068.92,226.804C-1069.73,226.133 -1070.23,226.133 -1071.04,226.804C-1071.78,227.421 -1072.24,227.443 -1072.59,226.877C-1073.15,225.975 -1078.13,226.091 -1078.7,227.019C-1078.9,227.347 -1079.81,227.439 -1080.71,227.224C-1081.61,227.009 -1083.87,227.111 -1085.73,227.451C-1088.45,227.95 -1089.61,227.792 -1091.71,226.634C-1094.25,225.231 -1094.37,225.23 -1096.92,226.592C-1099.54,227.985 -1111.23,239.224 -1111.23,240.342C-1111.23,240.668 -1111.9,241.111 -1112.72,241.326C-1113.55,241.542 -1114.44,242.294 -1114.71,242.999C-1115.44,244.906 -1122.62,252.401 -1124.38,253.098C-1125.83,253.671 -1125.91,254.287 -1125.82,264.654C-1125.77,270.678 -1125.58,275.755 -1125.4,275.937C-1124.39,276.948 -1096.06,277.989 -1096.67,276.992C-1096.84,276.722 -1096.39,276.65 -1095.67,276.833C-1093.58,277.362 -1082.41,278.346 -1081.8,278.053C-1081.5,277.908 -1064.96,277.824 -1045.05,277.867L-1045.05,277.867ZM-1180.41,237.148C-1179.07,236.686 -1177.98,236.039 -1177.98,235.709C-1177.98,235.38 -1177.34,235.11 -1176.57,235.11C-1174.37,235.11 -1169.71,232.934 -1169.23,231.679C-1168.52,229.843 -1169.36,229.731 -1171.46,231.381C-1172.54,232.23 -1174.53,233.11 -1175.89,233.338C-1177.24,233.566 -1179.45,233.926 -1180.8,234.139C-1182.14,234.352 -1183.43,234.826 -1183.65,235.193C-1183.88,235.56 -1185.06,235.86 -1186.27,235.86C-1188.36,235.86 -1189.21,237.129 -1187.95,238.386C-1187.37,238.967 -1184.17,238.442 -1180.41,237.148ZM-902.119,237.164C-901.925,236.158 -902.385,235.86 -904.128,235.86C-905.372,235.86 -906.575,235.56 -906.801,235.193C-907.028,234.826 -908.314,234.352 -909.658,234.139C-911.003,233.926 -913.212,233.566 -914.569,233.338C-915.925,233.11 -917.917,232.23 -918.996,231.381C-921.094,229.731 -921.932,229.843 -921.228,231.679C-920.746,232.934 -916.089,235.11 -913.886,235.11C-913.111,235.11 -912.478,235.393 -912.478,235.74C-912.478,236.086 -911.043,236.802 -909.29,237.331C-907.537,237.86 -905.765,238.397 -905.353,238.525C-903.779,239.015 -902.36,238.418 -902.119,237.164L-902.119,237.164ZM-1166.43,230.157C-1166.16,229.454 -1165.49,229.137 -1164.82,229.395C-1163.66,229.838 -1161.04,228.705 -1159.62,227.147C-1159.2,226.687 -1157.67,225.674 -1156.23,224.897C-1154.78,224.121 -1152.78,222.642 -1151.78,221.611C-1149.63,219.401 -1144.23,211.201 -1144.23,210.142C-1144.23,209.738 -1143.38,208.618 -1142.34,207.653C-1141.29,206.688 -1140.45,205.721 -1140.46,205.504C-1140.53,203.945 -1140.37,203.609 -1139.54,203.603C-1139.02,203.599 -1137.94,202.08 -1137.12,200.228C-1136.31,198.376 -1135.37,196.86 -1135.04,196.86C-1134.71,196.86 -1134.03,195.932 -1133.53,194.797C-1133.03,193.663 -1131.88,191.93 -1130.99,190.945C-1129.48,189.271 -1128.78,188.037 -1126.69,183.36C-1126.23,182.329 -1125.66,181.316 -1125.42,181.11C-1125.18,180.904 -1123.7,178.541 -1122.15,175.86C-1120.59,173.179 -1119.06,170.816 -1118.74,170.61C-1118.43,170.404 -1117.45,168.652 -1116.58,166.718C-1115.7,164.784 -1114.64,162.992 -1114.23,162.736C-1113.82,162.481 -1113.48,161.788 -1113.48,161.197C-1113.48,160.606 -1112.41,159.108 -1111.12,157.866C-1109.82,156.625 -1109.03,155.61 -1109.36,155.61C-1109.69,155.61 -1109.16,154.917 -1108.18,154.069C-1107.2,153.222 -1105.87,151.72 -1105.23,150.731C-1103.76,148.503 -1097.69,142.251 -1095.04,140.235C-1093.95,139.41 -1092.51,138.144 -1091.85,137.422C-1091.19,136.701 -1090.27,136.11 -1089.8,136.11C-1089.34,136.11 -1088.35,135.435 -1087.6,134.61C-1086.86,133.785 -1085.92,133.11 -1085.53,133.11C-1085.14,133.11 -1083.32,132.097 -1081.49,130.86C-1079.65,129.622 -1077.8,128.61 -1077.37,128.61C-1076.93,128.61 -1073.85,127.429 -1070.52,125.985C-1067.19,124.541 -1064.02,123.36 -1063.47,123.36C-1062.92,123.36 -1062.48,123.054 -1062.48,122.68C-1062.48,122.306 -1061.8,122.177 -1060.98,122.392C-1060.15,122.608 -1058.61,122.216 -1057.55,121.52C-1055.31,120.052 -1051.06,119.727 -1050.64,120.992C-1050.25,122.171 -1040.21,122.171 -1039.81,120.992C-1039.39,119.727 -1035.14,120.052 -1032.9,121.52C-1031.84,122.216 -1030.3,122.608 -1029.48,122.392C-1028.65,122.177 -1027.98,122.306 -1027.98,122.68C-1027.98,123.054 -1027.53,123.36 -1026.99,123.36C-1026.44,123.36 -1023.27,124.541 -1019.93,125.985C-1016.6,127.429 -1013.52,128.61 -1013.09,128.61C-1012.66,128.61 -1010.8,129.622 -1008.97,130.86C-1007.13,132.097 -1005.31,133.11 -1004.92,133.11C-1004.53,133.11 -1003.6,133.785 -1002.85,134.61C-1002.11,135.435 -1001.12,136.11 -1000.65,136.11C-1000.19,136.11 -999.268,136.701 -998.605,137.422C-997.941,138.144 -996.508,139.41 -995.42,140.235C-992.762,142.251 -986.691,148.503 -985.23,150.731C-984.582,151.72 -983.252,153.222 -982.275,154.069C-981.297,154.917 -980.768,155.61 -981.099,155.61C-981.43,155.61 -980.637,156.625 -979.339,157.866C-978.04,159.108 -976.978,160.606 -976.978,161.197C-976.978,161.788 -976.639,162.481 -976.226,162.736C-975.812,162.992 -974.756,164.784 -973.88,166.718C-973.003,168.652 -972.028,170.404 -971.714,170.61C-971.4,170.816 -969.867,173.179 -968.309,175.86C-966.751,178.541 -965.279,180.904 -965.038,181.11C-964.797,181.316 -964.179,182.413 -963.664,183.547C-963.149,184.682 -962.358,186.408 -961.905,187.383C-961.453,188.358 -960.354,189.961 -959.462,190.945C-958.57,191.93 -957.428,193.663 -956.925,194.797C-956.422,195.932 -955.741,196.86 -955.412,196.86C-955.083,196.86 -954.147,198.376 -953.333,200.228C-952.519,202.08 -951.431,203.599 -950.915,203.603C-950.088,203.609 -949.925,203.945 -949.995,205.504C-950.004,205.721 -949.161,206.688 -948.12,207.653C-947.079,208.618 -946.228,209.738 -946.228,210.142C-946.228,211.201 -940.829,219.401 -938.677,221.611C-937.673,222.642 -935.671,224.12 -934.228,224.897C-932.784,225.674 -931.258,226.687 -930.838,227.147C-929.415,228.705 -926.793,229.838 -925.639,229.395C-924.967,229.137 -924.299,229.454 -924.029,230.157C-923.526,231.468 -922.228,231.808 -922.228,230.629C-922.228,230.227 -923.205,229.393 -924.399,228.776C-927.283,227.284 -935.233,219.48 -936.703,216.697C-937.346,215.48 -938.85,213.846 -940.046,213.065C-941.242,212.284 -943.038,210.452 -944.037,208.994C-945.035,207.536 -946.203,205.981 -946.631,205.539C-947.059,205.097 -948.206,203.432 -949.18,201.84C-950.154,200.248 -951.753,198.081 -952.733,197.024C-953.712,195.967 -954.731,194.235 -954.997,193.176C-955.263,192.117 -955.93,190.8 -956.479,190.251C-957.028,189.702 -957.478,188.669 -957.478,187.956C-957.478,187.243 -957.761,186.339 -958.107,185.947C-958.454,185.556 -959.184,184.054 -959.731,182.61C-960.277,181.166 -961.139,179.479 -961.645,178.86C-962.151,178.241 -963.472,175.449 -964.58,172.655C-965.688,169.86 -967.553,166.525 -968.724,165.243C-969.896,163.96 -970.677,162.449 -970.461,161.885C-970.228,161.28 -970.561,160.86 -971.272,160.86C-971.935,160.86 -972.482,160.269 -972.488,159.547C-972.494,158.826 -973.76,156.825 -975.301,155.101C-979.192,150.75 -980.14,149.565 -981.799,146.985C-983.553,144.256 -989.505,138.36 -990.506,138.36C-990.903,138.36 -991.228,138.022 -991.228,137.608C-991.228,136.204 -1001.43,127.86 -1003.14,127.86C-1003.48,127.86 -1004.36,127.185 -1005.1,126.36C-1005.85,125.535 -1007.34,124.858 -1008.41,124.855C-1009.48,124.853 -1011.3,124.359 -1012.45,123.758C-1013.6,123.158 -1015.79,122.44 -1017.32,122.163C-1018.85,121.886 -1021.04,121.185 -1022.19,120.604C-1023.33,120.024 -1024.55,119.723 -1024.9,119.937C-1025.25,120.15 -1026.09,119.706 -1026.77,118.951C-1027.69,117.935 -1029.23,117.541 -1032.68,117.439C-1038.28,117.274 -1039.77,117.072 -1040.46,116.382C-1040.74,116.095 -1042.89,115.86 -1045.23,115.86C-1047.57,115.86 -1049.71,116.095 -1050,116.382C-1050.69,117.072 -1052.17,117.274 -1057.77,117.439C-1061.22,117.541 -1062.77,117.935 -1063.68,118.951C-1064.37,119.706 -1065.21,120.15 -1065.56,119.937C-1065.9,119.723 -1067.12,120.024 -1068.27,120.604C-1069.41,121.185 -1071.6,121.886 -1073.13,122.163C-1074.66,122.44 -1076.86,123.158 -1078.01,123.758C-1079.16,124.359 -1080.98,124.853 -1082.05,124.855C-1083.12,124.858 -1084.61,125.535 -1085.35,126.36C-1086.1,127.185 -1086.98,127.86 -1087.31,127.86C-1089.03,127.86 -1099.23,136.204 -1099.23,137.608C-1099.23,138.022 -1099.55,138.36 -1099.95,138.36C-1100.95,138.36 -1106.9,144.256 -1108.66,146.985C-1110.32,149.565 -1111.26,150.75 -1115.15,155.101C-1116.7,156.825 -1117.96,158.826 -1117.97,159.547C-1117.97,160.269 -1118.52,160.86 -1119.18,160.86C-1119.89,160.86 -1120.23,161.28 -1120,161.885C-1119.78,162.449 -1120.56,163.96 -1121.73,165.243C-1122.9,166.525 -1124.77,169.86 -1125.88,172.655C-1126.98,175.449 -1128.3,178.241 -1128.81,178.86C-1129.32,179.479 -1130.18,181.166 -1130.72,182.61C-1131.27,184.054 -1132,185.556 -1132.35,185.947C-1132.69,186.339 -1132.98,187.243 -1132.98,187.956C-1132.98,188.669 -1133.43,189.702 -1133.98,190.251C-1134.53,190.8 -1135.19,192.117 -1135.46,193.176C-1135.72,194.235 -1136.74,195.967 -1137.72,197.024C-1138.7,198.081 -1140.3,200.248 -1141.28,201.84C-1142.25,203.432 -1143.4,205.097 -1143.82,205.539C-1144.25,205.981 -1145.42,207.536 -1146.42,208.994C-1147.42,210.452 -1149.21,212.284 -1150.41,213.065C-1151.61,213.846 -1153.11,215.48 -1153.75,216.697C-1155.22,219.48 -1163.17,227.284 -1166.06,228.776C-1167.25,229.393 -1168.23,230.227 -1168.23,230.629C-1168.23,231.808 -1166.93,231.468 -1166.43,230.157L-1166.43,230.157ZM-1044.49,205.812C-1035.37,205.816 -1026.32,206.023 -1024.38,206.273C-1021.26,206.676 -1011.79,205.672 -1010.97,204.852C-1010.8,204.683 -1010.52,202.562 -1010.34,200.139C-1010.16,197.717 -1009.65,194.216 -1009.2,192.36C-1008.11,187.814 -1007.12,175.411 -1007.57,171.894C-1007.8,170.074 -1008.47,168.763 -1009.44,168.247C-1010.27,167.804 -1012.42,166.082 -1014.22,164.42C-1017.19,161.683 -1017.47,161.567 -1017.17,163.191C-1016.99,164.178 -1016.78,165.154 -1016.71,165.36C-1016.47,166.06 -1016.81,171.729 -1017.16,172.946C-1017.44,173.883 -1016.81,174.252 -1014.39,174.576C-1011.06,175.024 -1008.73,176.692 -1009.56,178.038C-1009.84,178.49 -1012.12,178.86 -1014.63,178.86C-1017.86,178.86 -1019.43,179.195 -1020.03,180.009C-1020.72,180.962 -1021.29,181.01 -1023.35,180.293C-1025.4,179.577 -1026.33,179.654 -1028.74,180.739C-1030.34,181.46 -1032.51,181.886 -1033.56,181.684C-1034.62,181.483 -1035.48,181.545 -1035.48,181.822C-1035.48,182.099 -1039.87,182.325 -1045.23,182.325C-1050.59,182.325 -1054.98,182.099 -1054.98,181.822C-1054.98,181.545 -1055.84,181.483 -1056.89,181.684C-1057.95,181.886 -1060.12,181.46 -1061.72,180.739C-1064.12,179.654 -1065.05,179.577 -1067.11,180.293C-1069.16,181.01 -1069.73,180.961 -1070.43,180.009C-1071.02,179.195 -1072.6,178.86 -1075.83,178.86C-1078.34,178.86 -1080.62,178.49 -1080.9,178.038C-1081.73,176.692 -1079.4,175.024 -1076.06,174.576C-1073.65,174.252 -1073.02,173.883 -1073.29,172.946C-1073.65,171.729 -1073.98,166.06 -1073.75,165.36C-1073.67,165.154 -1073.47,164.178 -1073.29,163.191C-1072.99,161.567 -1073.27,161.683 -1076.23,164.42C-1078.04,166.082 -1080.19,167.804 -1081.02,168.247C-1081.98,168.763 -1082.65,170.074 -1082.89,171.894C-1083.34,175.411 -1082.35,187.814 -1081.25,192.36C-1080.81,194.216 -1080.3,197.717 -1080.12,200.139C-1079.94,202.562 -1079.64,204.694 -1079.46,204.878C-1078.58,205.762 -1071.29,206.482 -1066.46,206.163C-1063.5,205.966 -1053.61,205.809 -1044.49,205.812L-1044.49,205.812ZM-1056.14,174.922C-1055.28,168.55 -1055.19,166.065 -1055.82,165.679C-1056.17,165.463 -1056.28,163.886 -1056.06,162.176C-1055.85,160.465 -1055.87,158.192 -1056.1,157.125C-1056.47,155.416 -1056.93,155.166 -1059.91,155.037C-1062.73,154.914 -1063.14,155.058 -1062.31,155.884C-1061.21,156.986 -1061.02,171.137 -1062.07,174.163C-1062.51,175.454 -1062.33,175.943 -1061.25,176.28C-1060.48,176.521 -1059.35,177.011 -1058.73,177.37C-1056.84,178.465 -1056.59,178.225 -1056.14,174.922L-1056.14,174.922ZM-1040.43,176.413C-1039.83,175.454 -1039.86,174.715 -1040.57,173.582C-1041.1,172.739 -1041.37,171.799 -1041.18,171.493C-1041,171.187 -1040.65,167.067 -1040.42,162.336C-1040.19,157.605 -1039.95,153.566 -1039.88,153.36C-1039.44,152.137 -1039.65,148.86 -1040.15,148.86C-1040.49,148.86 -1040.57,148.101 -1040.34,147.172C-1039.25,142.834 -1039.49,138.099 -1040.86,136.732C-1041.61,135.977 -1042.71,135.36 -1043.29,135.36C-1043.88,135.36 -1044.55,134.938 -1044.79,134.422C-1045.14,133.672 -1045.32,133.672 -1045.66,134.422C-1045.91,134.938 -1046.58,135.36 -1047.16,135.36C-1047.75,135.36 -1048.85,135.977 -1049.6,136.732C-1050.97,138.099 -1051.2,142.834 -1050.12,147.172C-1049.89,148.101 -1049.97,148.86 -1050.3,148.86C-1050.81,148.86 -1051.01,152.125 -1050.58,153.36C-1050.51,153.566 -1050.28,157.447 -1050.06,161.985C-1049.84,166.522 -1049.5,170.797 -1049.29,171.484C-1049.09,172.172 -1049.27,172.951 -1049.7,173.216C-1050.7,173.838 -1050.7,176.085 -1049.7,177.09C-1048.37,178.414 -1041.37,177.903 -1040.43,176.413L-1040.43,176.413ZM-1031.9,177.415C-1031.19,177.032 -1029.97,176.522 -1029.2,176.281C-1028.13,175.943 -1027.94,175.454 -1028.39,174.163C-1029.43,171.137 -1029.25,156.986 -1028.14,155.884C-1027.32,155.057 -1027.72,154.914 -1030.54,155.037C-1033.52,155.166 -1033.98,155.416 -1034.36,157.125C-1034.59,158.192 -1034.61,160.465 -1034.39,162.176C-1034.18,163.886 -1034.29,165.463 -1034.64,165.679C-1035.26,166.065 -1035.17,168.55 -1034.32,174.922C-1033.85,178.396 -1033.81,178.433 -1031.9,177.415L-1031.9,177.415ZM-1066.6,164.642C-1066.64,159.297 -1066.86,154.732 -1067.09,154.499C-1067.32,154.265 -1067.95,154.6 -1068.48,155.242C-1069.27,156.194 -1069.28,156.744 -1068.49,158.206C-1067.94,159.235 -1067.74,160.906 -1068.01,162.118C-1068.27,163.282 -1068.69,166.513 -1068.94,169.297C-1069.36,173.939 -1069.28,174.36 -1067.97,174.36C-1066.63,174.36 -1066.54,173.726 -1066.6,164.642L-1066.6,164.642ZM-1021.51,169.297C-1021.76,166.513 -1022.18,163.282 -1022.45,162.118C-1022.72,160.906 -1022.51,159.235 -1021.96,158.206C-1021.18,156.744 -1021.18,156.194 -1021.97,155.242C-1022.5,154.6 -1023.13,154.265 -1023.37,154.499C-1023.6,154.732 -1023.82,159.297 -1023.85,164.642C-1023.91,173.726 -1023.82,174.36 -1022.48,174.36C-1021.17,174.36 -1021.09,173.939 -1021.51,169.297L-1021.51,169.297ZM-1020.48,52.531C-1015.65,51.855 -1014.91,51.52 -1015.82,50.414C-1016.6,49.465 -1017.05,47.081 -1016.71,45.735C-1016.18,43.625 -1016.45,29.61 -1017.02,29.61C-1017.39,29.61 -1019.42,28.144 -1021.52,26.351C-1025.36,23.083 -1028.73,20.93 -1028.73,21.74C-1028.73,21.978 -1030.25,21.283 -1032.1,20.195C-1033.96,19.107 -1035.48,18.486 -1035.48,18.814C-1035.48,19.142 -1035.88,19.005 -1036.38,18.51C-1036.87,18.015 -1038.01,17.61 -1038.91,17.61C-1039.81,17.61 -1040.96,17.104 -1041.48,16.485C-1042,15.85 -1043.64,15.36 -1045.23,15.36C-1046.82,15.36 -1048.45,15.85 -1048.98,16.485C-1049.49,17.104 -1050.65,17.61 -1051.54,17.61C-1052.44,17.61 -1053.58,18.015 -1054.08,18.51C-1054.57,19.005 -1054.98,19.142 -1054.98,18.814C-1054.98,18.486 -1056.5,19.107 -1058.35,20.195C-1060.21,21.283 -1061.73,21.978 -1061.73,21.74C-1061.73,20.93 -1065.09,23.083 -1068.93,26.351C-1071.04,28.144 -1073.07,29.61 -1073.43,29.61C-1074.01,29.61 -1074.28,43.625 -1073.75,45.735C-1073.41,47.05 -1073.85,49.456 -1074.59,50.356C-1075.65,51.653 -1074.59,52.009 -1068.03,52.547C-1064.77,52.814 -1061.93,53.196 -1061.73,53.396C-1061.22,53.888 -1024.7,53.123 -1020.48,52.531ZM-1078.64,51.181L-1078.69,30.941L-1088.07,24.037L-1088.29,51.261L-1078.64,51.181ZM-1002.19,51.224C-1003.32,49.396 -1003.6,27.962 -1002.52,25.948C-1000.94,22.982 -1003.27,23.498 -1007.81,27.116C-1012.35,30.735 -1012.35,30.735 -1011.87,35.235C-1011.61,37.71 -1011.29,42.435 -1011.16,45.735C-1011.03,49.035 -1010.88,51.819 -1010.83,51.922C-1010.77,52.026 -1008.68,52.11 -1006.18,52.11C-1002.88,52.11 -1001.79,51.868 -1002.19,51.224L-1002.19,51.224ZM-1074.74,25.672C-1072.41,23.066 -1067.84,19.11 -1067.16,19.11C-1066.82,19.11 -1065.38,18.111 -1063.95,16.89C-1062.52,15.67 -1060.68,14.652 -1059.85,14.629C-1057.94,14.576 -1056.1,13.432 -1057.01,12.868C-1057.39,12.632 -1057.79,10.656 -1057.89,8.476C-1058.01,5.72 -1058.5,4.108 -1059.49,3.186C-1061.05,1.733 -1063.62,1.428 -1064.35,2.61C-1064.61,3.022 -1065.39,3.365 -1066.08,3.372C-1066.78,3.378 -1069.21,5.045 -1071.48,7.076C-1073.75,9.108 -1077.88,12.61 -1080.66,14.859C-1085.44,18.724 -1085.62,18.975 -1083.86,19.416C-1082.84,19.673 -1081.49,20.722 -1080.86,21.747C-1080.24,22.772 -1078.59,25.485 -1078.59,25.485C-1078.59,25.485 -1076.66,27.816 -1074.74,25.672L-1074.74,25.672ZM-1010.8,23.633C-1009.74,21.732 -1008.14,20.07 -1006.93,19.614C-1004.87,18.835 -1004.87,18.835 -1009.86,14.803C-1012.61,12.584 -1016.71,9.108 -1018.98,7.076C-1021.25,5.045 -1023.67,3.378 -1024.37,3.372C-1025.07,3.366 -1025.85,3.022 -1026.1,2.61C-1026.83,1.428 -1029.4,1.733 -1030.96,3.186C-1031.95,4.108 -1032.44,5.72 -1032.57,8.476C-1032.67,10.656 -1033.06,12.632 -1033.44,12.868C-1034.36,13.432 -1032.51,14.576 -1030.6,14.629C-1029.78,14.652 -1027.93,15.67 -1026.51,16.89C-1025.08,18.111 -1023.63,19.11 -1023.3,19.11C-1022.62,19.11 -1018.04,23.069 -1015.7,25.686C-1013.74,27.884 -1012.99,27.571 -1010.8,23.633ZM-1050.69,7.842L-1039.76,7.842L-1039.91,-29.443L-1050.55,-29.443L-1050.69,7.842ZM-1137.13,-2.828C-1136.47,-3.454 -1118.61,-20.515 -1095.71,-30.678C-1076.14,-39.37 -1051.59,-41.436 -1045.23,-41.436C-1038.75,-41.436 -1016.98,-37.606 -997.051,-28.716C-974.485,-18.652 -953.879,-3.356 -953.322,-2.828C-951.776,-1.36 -951.477,-1.699 -951.998,-4.328C-952.248,-5.589 -971.911,-23.074 -993.279,-33.111C-1016.75,-44.133 -1042.16,-47.697 -1043.59,-46.803C-1044.97,-45.938 -1045.48,-45.938 -1046.87,-46.803C-1048.21,-47.642 -1076.24,-44.489 -1098.35,-34.188C-1121.23,-23.529 -1138.19,-5.674 -1138.46,-4.328C-1138.98,-1.699 -1138.68,-1.36 -1137.13,-2.828Z" style="fill-rule:nonzero;"/>
        </g>
    </g>
    <g transform="matrix(0.979218,0,0,1.06689,2.06758,-73.0902)">
        <g id="Ebene1">
            <path d="M246.392,1050.13C246.392,1040.38 237.764,1032.46 227.138,1032.46L196.769,1032.46C186.142,1032.46 177.515,1040.38 177.515,1050.13L177.515,1096.46C177.515,1106.22 186.142,1114.14 196.769,1114.14L227.138,1114.14C237.764,1114.14 246.392,1106.22 246.392,1096.46L246.392,1050.13Z"/>
        </g>
    </g>
    <g id="Ebene2">
        <g transform="matrix(1,0,0,0.790616,-0.515704,212.68)">
            <path d="M234.176,1045.03C234.176,1043.83 233.411,1042.87 232.469,1042.87L187.795,1042.87C186.852,1042.87 186.087,1043.83 186.087,1045.03L186.087,1049.35C186.087,1050.54 186.852,1051.51 187.795,1051.51L232.469,1051.51C233.411,1051.51 234.176,1050.54 234.176,1049.35L234.176,1045.03Z" style="fill:white;"/>
        </g>
        <g transform="matrix(1,0,0,0.790616,-0.515704,233.727)">
            <path d="M234.176,1045.03C234.176,1043.83 233.411,1042.87 232.469,1042.87L187.795,1042.87C186.852,1042.87 186.087,1043.83 186.087,1045.03L186.087,1049.35C186.087,1050.54 186.852,1051.51 187.795,1051.51L232.469,1051.51C233.411,1051.51 234.176,1050.54 234.176,1049.35L234.176,1045.03Z" style="fill:white;"/>
        </g>
        <g transform="matrix(1,0,0,0.790616,-0.515704,223.203)">
            <path d="M234.176,1045.03C234.176,1043.83 233.411,1042.87 232.469,1042.87L187.795,1042.87C186.852,1042.87 186.087,1043.83 186.087,1045.03L186.087,1049.35C186.087,1050.54 186.852,1051.51 187.795,1051.51L232.469,1051.51C233.411,1051.51 234.176,1050.54 234.176,1049.35L234.176,1045.03Z" style="fill:white;"/>
        </g>
        <g transform="matrix(1,0,0,0.790616,-0.515704,275.821)">
            <path d="M234.176,1045.03C234.176,1043.83 233.411,1042.87 232.469,1042.87L187.795,1042.87C186.852,1042.87 186.087,1043.83 186.087,1045.03L186.087,1049.35C186.087,1050.54 186.852,1051.51 187.795,1051.51L232.469,1051.51C233.411,1051.51 234.176,1050.54 234.176,1049.35L234.176,1045.03Z" style="fill:white;"/>
        </g>
        <g transform="matrix(1,0,0,0.790616,-0.515704,244.25)">
            <path d="M234.176,1045.03C234.176,1043.83 233.411,1042.87 232.469,1042.87L187.795,1042.87C186.852,1042.87 186.087,1043.83 186.087,1045.03L186.087,1049.35C186.087,1050.54 186.852,1051.51 187.795,1051.51L232.469,1051.51C233.411,1051.51 234.176,1050.54 234.176,1049.35L234.176,1045.03Z" style="fill:white;"/>
        </g>
        <g transform="matrix(1,0,0,0.790616,-0.515704,254.774)">
            <path d="M234.176,1045.03C234.176,1043.83 233.411,1042.87 232.469,1042.87L187.795,1042.87C186.852,1042.87 186.087,1043.83 186.087,1045.03L186.087,1049.35C186.087,1050.54 186.852,1051.51 187.795,1051.51L232.469,1051.51C233.411,1051.51 234.176,1050.54 234.176,1049.35L234.176,1045.03Z" style="fill:white;"/>
        </g>
        <g transform="matrix(1,0,0,0.790616,-0.515704,265.297)">
            <path d="M234.176,1045.03C234.176,1043.83 233.411,1042.87 232.469,1042.87L187.795,1042.87C186.852,1042.87 186.087,1043.83 186.087,1045.03L186.087,1049.35C186.087,1050.54 186.852,1051.51 187.795,1051.51L232.469,1051.51C233.411,1051.51 234.176,1050.54 234.176,1049.35L234.176,1045.03Z" style="fill:white;"/>
        </g>
        <g transform="matrix(1.01789,0,0,1.81278,8.20341,-1209.78)">
            <rect x="201.072" y="1488.06" width="4.912" height="41.952" style="fill:white;"/>
        </g>
        <g transform="matrix(1.01789,0,0,1.81278,-3.59787,-1209.78)">
            <rect x="201.072" y="1488.06" width="4.912" height="41.952" style="fill:white;"/>
        </g>
    </g>
</svg>
