<?xml version="1.0" encoding="UTF-8" standalone="no"?>
<!DOCTYPE svg PUBLIC "-//W3C//DTD SVG 1.1//EN" "http://www.w3.org/Graphics/SVG/1.1/DTD/svg11.dtd">
<svg width="100%" height="100%" viewBox="0 0 420 1714" version="1.1" xmlns="http://www.w3.org/2000/svg" xmlns:xlink="http://www.w3.org/1999/xlink" xml:space="preserve" xmlns:serif="http://www.serif.com/" style="fill-rule:evenodd;clip-rule:evenodd;stroke-linecap:round;stroke-linejoin:round;stroke-miterlimit:1.5;">
    <g id="layer1" transform="matrix(1,0,0,1,1254.67,191.64)">
        <g id="path125" transform="matrix(1,0,0,1,0.178162,-3.23904)">
            <path d="M-924.247,1503.92C-925.231,1505.95 -985.111,1521.76 -1045.05,1521.76C-1105.11,1521.76 -1165.22,1505.96 -1166.21,1503.92C-1168.97,1498.22 -1201.45,1217.05 -1202.43,1208.86C-1203.85,1196.99 -1204.06,1180.77 -1204.07,1082.61C-1204.08,924.202 -1204.93,379.519 -1205.25,321.36C-1205.4,293.929 -1205.28,264.566 -1204.98,256.11C-1204.49,242.429 -1187.35,119.797 -1187,117.735C-1185.67,109.832 -1151.93,-1.746 -1151.45,-3.765C-1151.35,-4.178 -1108.45,-106.391 -1107.84,-106.9C-1107.23,-107.408 -1101.73,-120.941 -1085.01,-125.179C-1079.91,-126.47 -1083.08,-131.26 -1084.4,-133.853C-1085.44,-135.902 -1065.22,-185.168 -1045.05,-185.162C-1025,-185.156 -1005.02,-135.89 -1006.06,-133.853C-1007.38,-131.26 -1010.72,-126.021 -1005.45,-125.179C-992.285,-123.076 -983.227,-107.408 -982.614,-106.9C-982.002,-106.391 -939.104,-4.178 -939.006,-3.765C-938.524,-1.746 -904.782,109.832 -903.456,117.735C-903.11,119.797 -885.962,242.429 -885.477,256.11C-885.178,264.566 -885.056,293.929 -885.207,321.36C-885.527,379.519 -886.372,924.202 -886.388,1082.61C-886.4,1180.77 -886.609,1196.99 -888.028,1208.86C-889.007,1217.05 -921.483,1498.21 -924.247,1503.92ZM-1063.11,1317.8L-1063.14,1288.94L-1027.44,1288.94L-1027.48,1317.78C-1027.48,1317.78 -1017.6,1316.68 -1012.05,1311.86C-1007.15,1307.6 -1006.5,1299.67 -1006.62,1297.88C-1007.01,1291.92 -1006.06,1279.27 -1015.95,1270.26C-1024.27,1262.68 -1033.97,1258.11 -1045.23,1258.11C-1058.1,1258.11 -1067.92,1263.24 -1077.24,1272.12C-1086.07,1280.52 -1083.48,1292.55 -1083.84,1297.88C-1083.96,1299.74 -1082.53,1309.26 -1077.56,1313.78C-1072.31,1318.56 -1063.49,1318.28 -1063.14,1317.8L-1063.11,1317.8ZM-1072.12,1235.27L-1018.52,1235.33L-978.532,1202.95L-976.655,1173.73L-914.085,1104.17L-916.79,1101.48L-981.411,1171.06L-983.409,1200.52L-1022.41,1231.53L-1068.04,1231.53L-1107.49,1198.87L-1109.06,1170.79C-1109.06,1170.79 -1169.53,1100.86 -1170.45,1100.86C-1170.65,1100.86 -1173.48,1104.67 -1173.48,1104.67L-1113.8,1173.73L-1112.83,1199.09L-1072.12,1235.27ZM-1045.68,1103.53C-1044.48,1103.55 -1025.41,1101.92 -1009.77,1092.85C-994.092,1083.77 -981.848,1067.23 -981.432,1066.38C-980.925,1065.34 -978.135,1059.84 -981.833,1053.81C-988.711,1042.6 -1004.66,1028.24 -1005.29,1028.04C-1005.59,1027.94 -1007.54,1034.28 -1012.88,1040.17C-1018.25,1046.09 -1027,1051.58 -1028.2,1052.17C-1030.24,1053.18 -1037.73,1056.1 -1045.23,1056.1C-1052.72,1056.1 -1060.22,1053.18 -1062.25,1052.17C-1063.48,1051.57 -1071.41,1048.34 -1076.89,1042.29C-1082.09,1036.55 -1084.88,1027.94 -1085.16,1028.04C-1086.13,1028.35 -1108.53,1059.08 -1109.24,1060.57C-1110.48,1063.17 -1110.47,1063.4 -1109.02,1066.38C-1108.19,1068.09 -1106.58,1070.44 -1105.43,1071.61C-1102.57,1074.52 -1089.72,1086.49 -1075.59,1093.88C-1062.11,1100.93 -1047.31,1103.49 -1045.68,1103.53ZM-1060.23,1040.76C-1059.16,1041.17 -1052.17,1043.99 -1045.23,1044.03C-1038.62,1044.07 -1032.06,1041.35 -1030.68,1040.89C-1026.81,1039.6 -1014.09,1026.43 -1012.7,1012.35C-1011.29,998.053 -1021.26,982.837 -1022.91,981.97C-1030.33,978.078 -1033.98,977.316 -1045.23,977.316C-1056.47,977.316 -1060.13,978.078 -1067.54,981.97C-1069.2,982.841 -1078.33,997.114 -1077.01,1011.41C-1075.73,1025.34 -1064.09,1039.3 -1060.23,1040.76ZM-1082.66,848.98C-1082.66,848.98 -1087.09,924.854 -1086.25,925.469C-1085.52,926.005 -1085.4,931.31 -1087.04,931.964C-1094.29,934.855 -1098.26,937.358 -1100.56,940.5C-1102.86,943.634 -1085.02,986.076 -1085,986.797C-1084.96,988.869 -1081.11,979.133 -1080.55,977.786C-1080.06,976.604 -1062.64,967.7 -1045.23,967.7C-1027.81,967.7 -1010.39,976.604 -1009.9,977.786C-1009.34,979.133 -1005.49,988.869 -1005.45,986.797C-1005.44,986.076 -987.596,943.634 -989.894,940.5C-992.198,937.358 -996.163,934.855 -1003.42,931.964C-1005.06,931.31 -1004.94,926.005 -1004.2,925.469M-1004.2,925.469C-1005.29,900.532 -1007.47,850.659 -1007.79,848.98C-1008.19,846.914 -1008.46,842.189 -1008.39,838.48C-1008.33,834.77 -1008.66,828.529 -1009.12,824.61C-1010.28,814.652 -1010.24,814.259 -1007.78,811.802C-1005.98,809.997 -1004.97,809.61 -1002.04,809.61C-999.053,809.61 -997.887,809.142 -994.672,806.652C-992.571,805.025 -985.72,797.978 -985.477,792.524C-985.289,788.317 -985.468,785.549 -985.95,785.252C-986.378,784.988 -986.728,785.061 -986.728,785.415C-986.728,785.77 -989.442,787.85 -992.759,790.038C-999.373,794.402 -1003.04,795.237 -1005.79,793.007C-1007.26,791.82 -1007.36,790.942 -1007.46,778.738C-1007.72,747.088 -1008.44,711.564 -1008.87,708.995C-1009.13,707.454 -1009.49,692.759 -1009.66,676.339C-1009.83,659.919 -1010.04,640.885 -1010.13,634.04C-1010.28,621.844 -1010.25,621.547 -1008.44,619.259C-1007.95,618.628 -1005.36,615.961 -1002.54,616.025C-999.624,616.092 -996.478,618.913 -996.478,619.566C-996.478,620.14 -996.14,620.644 -995.728,620.685C-993.176,620.94 -986.697,620.786 -979.094,620.29C-970.335,619.719 -970.335,619.719 -970.172,609.477C-969.969,596.729 -968.717,587.751 -968.977,582.624C-969.441,573.471 -971.06,560.783 -974.505,556.075C-976.18,553.786 -979.155,550.412 -981.116,548.575C-988.014,542.114 -994.785,535.141 -996.168,533.074C-996.99,531.845 -998.856,530.331 -999.284,523.527C-1000.71,500.82 -998.982,451.42 -998.69,431.985C-998.271,404.009 -998.66,386.817 -999.912,377.985C-1000.09,376.716 -1000.34,370.914 -995.985,368.309C-991.72,365.757 -982.91,366.388 -977.728,366.406C-965.408,366.448 -951.665,368.836 -949.603,369.069C-945.853,369.493 -945.853,369.493 -945.842,355.926C-945.836,348.465 -944.586,315.211 -944.376,305.405C-943.993,287.576 -943.993,287.576 -955.423,288.035C-961.709,288.287 -988.887,289.923 -1045.23,289.923C-1101.57,289.923 -1119.27,289.741 -1121.35,289.141C-1122.59,288.785 -1128.75,288.287 -1135.03,288.035C-1146.46,287.576 -1146.46,287.576 -1146.08,305.405C-1145.87,315.211 -1144.62,348.465 -1144.61,355.926C-1144.6,369.493 -1144.6,369.493 -1140.85,369.069C-1138.79,368.836 -1125.05,366.448 -1112.73,366.406C-1106.98,366.387 -1098.99,365.914 -1094.6,368.796C-1090.98,371.17 -1090.38,376.85 -1090.54,377.985C-1091.8,386.817 -1092.18,404.009 -1091.77,431.985C-1091.39,457.244 -1091.02,518.899 -1090.78,521.543C-1090.34,526.495 -1090.72,527.743 -1094.29,533.074C-1095.67,535.141 -1102.44,542.114 -1109.34,548.575C-1111.3,550.412 -1114.28,553.786 -1115.95,556.075C-1119.39,560.783 -1121.02,573.471 -1121.48,582.624C-1121.74,587.751 -1121.68,592.574 -1121.35,593.341C-1120.6,595.077 -1120.49,596.729 -1120.28,609.477C-1120.12,619.719 -1120.12,619.719 -1111.36,620.29C-1103.76,620.786 -1097.28,620.94 -1094.73,620.685C-1094.32,620.644 -1093.98,620.14 -1093.98,619.566C-1093.98,618.921 -1091.32,615.674 -1088.44,615.6C-1085.59,615.527 -1082.52,618.62 -1082.01,619.259C-1080.21,621.547 -1080.17,621.844 -1080.33,634.04C-1080.42,640.885 -1080.63,659.919 -1080.8,676.339C-1080.97,692.759 -1081.32,707.454 -1081.58,708.995C-1082.02,711.564 -1082.74,747.088 -1083,778.738C-1083.1,790.942 -1083.2,791.82 -1084.66,793.007C-1087.42,795.237 -1091.08,794.402 -1097.7,790.038C-1101.01,787.85 -1103.73,785.77 -1103.73,785.415C-1103.73,785.061 -1104.08,784.988 -1104.51,785.252C-1104.99,785.549 -1105.17,788.317 -1104.98,792.524C-1104.74,797.978 -1098.87,803.987 -1098.19,804.791C-1097.51,805.595 -1091.4,809.61 -1088.41,809.61C-1085.49,809.61 -1084.48,809.997 -1082.67,811.802C-1080.21,814.259 -1080.17,814.652 -1081.34,824.61C-1081.8,828.529 -1082.12,834.77 -1082.06,838.48C-1082,842.189 -1082.27,846.914 -1082.66,848.98M-1020.95,622.074C-1021.19,622.261 -1033.16,626.961 -1045.18,626.961C-1057.2,626.961 -1069.27,622.261 -1069.5,622.074C-1077.91,615.341 -1084.19,608.158 -1084.23,605.235C-1084.27,601.937 -1085.01,601.709 -1092.93,602.527C-1094.98,602.739 -1100.57,603.474 -1104.52,603.075C-1108.45,602.68 -1110.76,601.156 -1111.56,600.106C-1112.18,599.292 -1114.92,595.952 -1114.8,589.749C-1114.71,585.425 -1112.35,578.55 -1110.65,575.047C-1108.55,570.736 -1107.23,570.208 -1104.62,572.639C-1103.36,573.811 -1102.98,575.028 -1102.98,577.854C-1102.98,579.881 -1102.57,582.426 -1102.08,583.509C-1101.22,585.394 -1100.99,585.461 -1096.64,585.073C-1094.15,584.85 -1091.34,584.651 -1090.41,584.631C-1088.78,584.595 -1088.73,584.358 -1088.73,577.128C-1088.73,568.9 -1089.17,568.11 -1093.81,568.11C-1096.02,568.11 -1097.29,563.147 -1097.36,561.581C-1097.43,560.016 -1096.61,555.642 -1096.46,553.546C-1096.07,548.175 -1094.88,545.479 -1093.01,545.759C-1090.29,546.167 -1088.64,549.414 -1088.49,554.665C-1088.39,558.122 -1088.03,559.629 -1087.23,559.995C-1086.59,560.285 -1085.09,561.128 -1083.67,560.293C-1080.88,558.646 -1077.39,554.111 -1074.28,551.422C-1072.97,550.288 -1068.88,547.64 -1068.79,541.86C-1068.63,533.111 -1067.79,528.447 -1066.2,527.598C-1062.24,525.475 -1059.57,528.324 -1059.66,534.577C-1059.72,538.531 -1059.34,539.292 -1057.77,538.366C-1056.6,537.676 -1050.93,524.457 -1045.23,524.459C-1039.56,524.461 -1033.85,537.68 -1032.69,538.366C-1031.11,539.292 -1030.73,538.531 -1030.79,534.577C-1030.89,528.324 -1028.22,525.475 -1024.25,527.598C-1022.66,528.447 -1021.82,533.111 -1021.67,541.86C-1021.63,544.431 -1019.24,549.173 -1015.45,552.794C-1010.71,557.313 -1004.28,560.474 -1003.23,559.995C-1002.42,559.629 -1002.06,558.122 -1001.96,554.665C-1001.81,549.414 -1000.16,546.167 -997.447,545.759C-995.579,545.479 -994.385,548.175 -993.997,553.546C-993.846,555.642 -993.552,557.667 -993.345,558.046C-993.215,558.282 -992.16,562.968 -993.059,565.838C-993.6,567.566 -995.814,568.11 -996.643,568.11C-1001.28,568.11 -1001.73,568.9 -1001.73,577.128C-1001.73,584.358 -1001.68,584.594 -1000.04,584.631C-999.112,584.65 -996.31,584.85 -993.813,585.073C-989.467,585.461 -989.234,585.394 -988.375,583.509C-987.882,582.426 -987.478,579.881 -987.478,577.854C-987.478,575.028 -987.095,573.811 -985.836,572.639C-983.227,570.208 -981.905,570.736 -979.806,575.047C-977.901,578.962 -975.508,589.423 -976.298,594.818C-976.809,598.314 -980.185,601.409 -985.38,602.53C-989.635,603.448 -995.689,602.717 -997.528,602.527C-1005.45,601.709 -1006.18,601.937 -1006.22,605.235C-1006.26,608.158 -1012.54,615.341 -1020.95,622.074ZM-1035.41,613.765C-1031.94,613.301 -1028.45,612.469 -1027.66,611.916C-1026.24,610.926 -1026.24,610.904 -1027.66,610.324C-1028.45,610 -1036.36,609.735 -1045.23,609.735C-1054.1,609.735 -1062,610 -1062.8,610.324C-1064.21,610.902 -1064.21,610.931 -1062.76,611.946C-1059.56,614.191 -1045.55,615.123 -1035.41,613.765L-1035.41,613.765ZM-1016.46,601.708C-1016.02,601.006 -1015.87,600.215 -1016.14,599.95C-1016.4,599.685 -1020.78,599.385 -1025.86,599.283C-1030.94,599.181 -1058.73,599.203 -1062.85,599.294C-1066.98,599.385 -1071.28,599.493 -1072.41,599.535C-1074.55,599.613 -1075.11,600.925 -1073.65,602.391C-1073.07,602.973 -1064.5,603.186 -1045.04,603.103C-1019.78,602.996 -1017.19,602.87 -1016.46,601.709L-1016.46,601.708ZM-1045.23,591.224C-1031.33,591.224 -1018.1,591.456 -1015.83,591.74C-1011.44,592.287 -1010.58,591.723 -1011.05,588.628C-1011.24,587.378 -1012.09,587.222 -1019.43,587.108C-1023.93,587.039 -1028.28,586.95 -1029.1,586.912C-1031.65,586.795 -1040.89,586.637 -1045.23,586.637C-1049.57,586.637 -1058.81,586.795 -1061.35,586.912C-1062.18,586.951 -1066.53,587.039 -1071.03,587.108C-1078.36,587.222 -1079.22,587.378 -1079.41,588.628C-1079.88,591.724 -1079.01,592.287 -1074.63,591.74C-1072.36,591.456 -1059.13,591.224 -1045.23,591.224ZM-1012.58,575.61C-1012.7,574.579 -1012.85,573.18 -1012.89,572.503C-1013.01,570.83 -1014.57,570.347 -1021.2,569.926C-1024.31,569.728 -1030.4,569.296 -1034.73,568.966C-1039.06,568.635 -1043.78,568.365 -1045.23,568.365C-1046.67,568.365 -1051.4,568.635 -1055.73,568.966C-1060.06,569.296 -1066.15,569.728 -1069.26,569.926C-1075.89,570.347 -1077.45,570.83 -1077.56,572.503C-1077.61,573.18 -1077.75,574.579 -1077.88,575.61C-1078.11,577.485 -1078.11,577.485 -1045.23,577.485C-1012.35,577.485 -1012.35,577.485 -1012.58,575.61ZM-1029.47,557.588C-1028.85,557.2 -1028.71,556.878 -1029.15,556.871C-1029.6,556.866 -1031.11,555.831 -1032.52,554.573C-1034.59,552.724 -1055.87,552.724 -1057.94,554.573C-1059.35,555.831 -1060.86,556.865 -1061.3,556.871C-1061.74,556.877 -1061.6,557.2 -1060.99,557.588C-1060.37,557.976 -1053.28,558.293 -1045.23,558.293C-1037.17,558.293 -1030.08,557.976 -1029.47,557.588ZM-1057.77,455.54C-1058.69,457.357 -1065.3,468.259 -1068.05,468.844C-1070.62,469.389 -1073.13,465.892 -1073.26,465.272C-1073.73,462.926 -1071.61,457.858 -1068.31,453.446C-1067.58,452.463 -1066.98,451.233 -1066.98,450.715C-1066.98,449.657 -1070.27,448.547 -1072.69,448.786C-1075.32,449.044 -1076.71,447.021 -1076.12,443.792C-1075.85,442.248 -1075.61,439.55 -1075.61,437.795C-1075.6,434.646 -1075.56,434.59 -1071.94,433.391C-1069.93,432.723 -1064.52,431.796 -1059.92,431.331C-1051.57,430.486 -1051.56,430.482 -1052.41,428.775C-1053.08,427.436 -1052.99,426.051 -1051.99,422.4C-1050.62,417.397 -1050.02,408.724 -1051,408.136C-1051.33,407.94 -1053.57,408.139 -1055.96,408.579C-1059.55,409.236 -1060.52,409.744 -1061.38,411.422C-1062.61,413.789 -1066.3,416.225 -1069.77,416.959C-1072.4,417.516 -1076.98,416.275 -1079.25,414.392C-1083.31,411.012 -1084.78,401.816 -1082.13,396.36C-1080.64,393.293 -1075.91,390.629 -1070.68,389.913C-1066.7,389.369 -1060.83,391.589 -1059.45,394.155C-1058.36,396.203 -1055.67,397.128 -1052.37,396.592C-1050.11,396.225 -1049.57,395.781 -1049.21,393.955C-1048.97,392.747 -1047.97,391.236 -1047,390.598C-1045.4,389.551 -1045.06,389.551 -1043.46,390.598C-1042.48,391.236 -1041.49,392.747 -1041.25,393.955C-1040.88,395.781 -1040.35,396.225 -1038.09,396.592C-1034.79,397.128 -1032.1,396.203 -1031,394.155C-1029.63,391.589 -1023.75,389.369 -1019.77,389.913C-1014.55,390.629 -1009.82,393.293 -1008.33,396.36C-1005.67,401.816 -1007.14,411.012 -1011.21,414.392C-1013.48,416.275 -1018.05,417.516 -1020.68,416.959C-1024.16,416.225 -1027.85,413.789 -1029.07,411.422C-1029.94,409.744 -1030.91,409.236 -1034.49,408.579C-1036.89,408.139 -1039.12,407.939 -1039.45,408.136C-1040.44,408.724 -1039.84,417.397 -1038.47,422.4C-1037.47,426.051 -1037.38,427.436 -1038.05,428.775C-1038.9,430.482 -1038.89,430.486 -1030.53,431.331C-1025.93,431.796 -1020.52,432.723 -1018.51,433.391C-1014.9,434.59 -1014.85,434.646 -1014.85,437.795C-1014.84,439.55 -1014.61,442.248 -1014.33,443.792C-1013.75,447.021 -1015.14,449.044 -1017.76,448.786C-1020.19,448.547 -1023.48,449.657 -1023.48,450.715C-1023.48,451.233 -1022.88,452.463 -1022.14,453.446C-1018.85,457.858 -1016.73,462.926 -1017.2,465.272C-1017.32,465.899 -1020.26,469.769 -1022.4,470.198C-1024.66,470.649 -1026.16,467.602 -1027.79,465.833C-1030.63,462.756 -1032.25,456.396 -1032.69,455.54C-1034.35,452.235 -1034.35,452.235 -1039.79,451.601C-1042.78,451.253 -1047.67,451.253 -1050.66,451.601C-1056.1,452.235 -1056.1,452.235 -1057.77,455.54ZM-1125.4,275.937C-1124.39,276.948 -966.031,276.914 -965.054,275.937C-964.872,275.755 -964.683,270.677 -964.633,264.654C-964.548,254.287 -993.532,226.592 -993.532,226.592L-1091.71,226.634C-1091.71,226.634 -1125.91,254.287 -1125.82,264.654C-1125.77,270.678 -1125.58,275.755 -1125.4,275.937ZM-1137.13,-2.828C-1136.47,-3.454 -1118.61,-20.515 -1095.71,-30.678C-1076.14,-39.37 -1051.59,-41.436 -1045.23,-41.436C-1038.75,-41.436 -1016.98,-37.606 -997.051,-28.716C-974.485,-18.652 -953.879,-3.356 -953.322,-2.828C-951.776,-1.36 -951.477,-1.699 -951.998,-4.328C-952.248,-5.589 -971.911,-23.074 -993.279,-33.111C-1004.8,-38.524 -1027.72,-45.817 -1045.23,-45.997C-1062.74,-46.176 -1088.11,-38.959 -1098.35,-34.188C-1121.23,-23.529 -1138.19,-5.674 -1138.46,-4.328C-1138.98,-1.699 -1138.68,-1.36 -1137.13,-2.828Z" style="fill-rule:nonzero;"/>
        </g>
        <g transform="matrix(-1,0,0,1,-833.524,-180.64)">
            <path d="M185.54,220.044L174.652,255.622L162.966,255.622L172.931,222.946L173.868,214.059L201.526,211.291L185.54,220.044Z" style="fill:white;"/>
        </g>
        <g transform="matrix(1,0,0,1,-1256.58,-180.64)">
            <path d="M185.54,220.044L174.652,255.622L162.966,255.622L172.931,222.946L173.868,214.059L201.526,211.291L185.54,220.044Z" style="fill:white;"/>
        </g>
        <g transform="matrix(1,0,0,1,-1254.67,-178.64)">
            <path d="M179.546,207.004L199.616,204.323L199.616,190.276L179.546,207.004Z" style="fill:white;"/>
        </g>
        <g transform="matrix(-1,0,0,1,-835.434,-178.64)">
            <path d="M179.546,207.004L199.616,204.323L199.616,190.276L179.546,207.004Z" style="fill:white;"/>
        </g>
        <g transform="matrix(1,0,0,1,-1254.62,-175.669)">
            <path d="M215.198,157.075L215.198,205.137L209.616,201.923L203.936,205.137L203.936,157.075C203.936,157.075 205.474,153.857 209.567,153.857C213.66,153.857 215.198,157.075 215.198,157.075Z" style="fill:white;"/>
        </g>
        <g transform="matrix(1,0,0,0.895672,-1254.67,-140.387)">
            <path d="M239.685,240.455L179.546,240.455L189.282,203.973L209.616,190.415L229.949,203.973L239.685,240.455Z" style="fill:white;"/>
        </g>
        <g transform="matrix(0.85161,0,0,1.15312,-1226.56,-321.771)">
            <path d="M209.616,904.17L209.616,930.86C209.616,930.86 193.041,931.154 189.126,930.369C184.716,929.486 186.856,924.494 186.856,924.494C186.856,924.494 197.481,924.54 200.066,921.423C202.65,918.306 199.269,911.243 202.361,905.793C203.552,903.695 209.616,904.17 209.616,904.17Z" style="fill:rgb(8,6,5);"/>
        </g>
        <g transform="matrix(0.85161,0,0,1.15312,-1200.74,-370.618)">
            <path d="M182.02,924.735C182.02,924.735 197.481,924.54 200.066,921.423C202.65,918.306 199.269,911.243 202.361,905.793C203.552,903.695 209.616,904.17 209.616,904.17C209.616,904.17 214.205,921.179 209.616,925.657C205.027,930.135 182.084,931.037 182.084,931.037L182.02,924.735ZM156.012,904.17C156.012,904.17 162.076,903.695 163.267,905.793C166.359,911.243 162.978,918.306 165.563,921.423C168.147,924.54 182.02,924.735 182.02,924.735L182.084,931.037C182.084,931.037 160.358,930.135 156.012,925.657C151.667,921.179 156.012,904.17 156.012,904.17Z" style="fill:rgb(8,6,5);"/>
        </g>
        <g transform="matrix(-0.85161,0,0,1.15312,-863.539,-321.771)">
            <path d="M209.616,904.17L209.616,930.86C209.616,930.86 193.041,931.154 189.126,930.369C184.716,929.486 186.856,924.494 186.856,924.494C186.856,924.494 197.481,924.54 200.066,921.423C202.65,918.306 199.269,911.243 202.361,905.793C203.552,903.695 209.616,904.17 209.616,904.17Z" style="fill:rgb(8,6,5);"/>
        </g>
        <g transform="matrix(9.28952e-17,1.51709,-1.19467,7.31522e-17,129.848,514.643)">
            <path d="M185.854,956.928C185.854,956.928 190.365,958.629 193.043,962.029C195.721,965.43 197.06,970.06 197.06,975.919L197.06,990.96C197.06,996.837 195.721,1001.48 193.043,1004.88C190.365,1008.28 185.854,1009.98 185.854,1009.98L183.877,1004.38C186.788,1003.94 190.88,997.892 190.88,994.596L190.921,972.309C190.921,968.996 186.815,962.945 183.877,962.526L185.854,956.928Z" style="fill-rule:nonzero;"/>
        </g>
        <g transform="matrix(1.26641,0,0,0.6865,-1198.95,98.6517)">
            <path d="M11.495,1041.44L11.495,973.434C11.495,968.123 12.25,963.563 13.76,959.755C15.271,955.946 17.079,954.042 19.185,954.042L26.912,954.042C29.018,954.042 30.826,955.954 32.336,959.777C33.847,963.601 34.602,968.153 34.602,973.434L34.602,1041.44L26.912,1041.44L26.912,1017.13L19.185,1017.13L19.185,1041.44L11.495,1041.44ZM19.185,1007.48L26.912,1007.48L26.912,979.26C26.912,976.62 26.529,974.352 25.765,972.455C25.001,970.558 24.095,969.61 23.048,969.61C21.989,969.61 21.081,970.558 20.322,972.455C19.564,974.352 19.185,976.62 19.185,979.26L19.185,1007.48Z" style="fill:white;fill-rule:nonzero;"/>
        </g>
        <g transform="matrix(1.26641,0,0,0.6865,-949.19,98.6517)">
            <path d="M11.495,1041.44L11.495,973.434C11.495,968.123 12.25,963.563 13.76,959.755C15.271,955.946 17.079,954.042 19.185,954.042L26.912,954.042C29.018,954.042 30.826,955.954 32.336,959.777C33.847,963.601 34.602,968.153 34.602,973.434L34.602,1041.44L26.912,1041.44L26.912,1017.13L19.185,1017.13L19.185,1041.44L11.495,1041.44ZM19.185,1007.48L26.912,1007.48L26.912,979.26C26.912,976.62 26.529,974.352 25.765,972.455C25.001,970.558 24.095,969.61 23.048,969.61C21.989,969.61 21.081,970.558 20.322,972.455C19.564,974.352 19.185,976.62 19.185,979.26L19.185,1007.48Z" style="fill:white;fill-rule:nonzero;"/>
        </g>
        <g transform="matrix(0.737142,0.818679,-0.743145,0.669131,-253.712,161.469)">
            <rect x="113.993" y="1277.19" width="63.935" height="13.549" style="fill:white;"/>
        </g>
        <g transform="matrix(0.737142,0.818679,-0.743145,0.669131,-239.758,149.418)">
            <rect x="113.993" y="1277.19" width="63.935" height="13.549" style="fill:white;"/>
        </g>
        <g>
            <g transform="matrix(0.346361,0.554293,-0.425905,0.266135,-653.662,550.441)">
                <rect x="113.993" y="1277.19" width="63.935" height="13.549" style="fill:white;"/>
            </g>
            <g transform="matrix(0.346361,0.554293,-0.425905,0.266135,-665.097,557.586)">
                <rect x="113.993" y="1277.19" width="63.935" height="13.549" style="fill:white;"/>
            </g>
        </g>
        <g transform="matrix(0.710287,-0.788853,0.743145,0.669131,-2047.92,397.06)">
            <rect x="113.993" y="1277.19" width="63.935" height="13.549" style="fill:white;"/>
        </g>
        <g transform="matrix(0.710287,-0.788853,0.743145,0.669131,-2061.38,384.453)">
            <rect x="113.993" y="1277.19" width="63.935" height="13.549" style="fill:white;"/>
        </g>
        <g transform="matrix(1,0,0,1,-1253.07,-204.615)">
            <path d="M65.172,856.701L65.172,917.144L101.433,917.144L101.433,856.701C101.433,856.701 95.379,822.206 82.898,822.206C70.418,822.206 65.172,856.701 65.172,856.701Z" style="fill:white;"/>
        </g>
        <g transform="matrix(1,0,0,1,-1003.3,-204.615)">
            <path d="M65.172,856.701L65.172,917.144L101.433,917.144L101.433,856.701C101.433,856.701 95.379,822.206 82.898,822.206C70.418,822.206 65.172,856.701 65.172,856.701Z" style="fill:white;"/>
        </g>
        <g transform="matrix(-0.611433,0.382066,-0.382066,-0.611433,-614.177,1694.45)">
            <path d="M131.2,1207.21L87.335,1207.21C85.112,1204.18 83.942,1200.73 83.942,1197.22C83.942,1186.19 95.29,1177.24 109.267,1177.24C123.245,1177.24 134.593,1186.19 134.593,1197.22C134.593,1200.73 133.422,1204.18 131.2,1207.21Z" style="fill:white;"/>
        </g>
        <g transform="matrix(-1,0,0,1,-2090.92,0)">
            <g transform="matrix(0.346361,0.554293,-0.425905,0.266135,-653.662,550.441)">
                <rect x="113.993" y="1277.19" width="63.935" height="13.549" style="fill:white;"/>
            </g>
            <g transform="matrix(0.346361,0.554293,-0.425905,0.266135,-665.097,557.586)">
                <rect x="113.993" y="1277.19" width="63.935" height="13.549" style="fill:white;"/>
            </g>
        </g>
        <g transform="matrix(0.611433,0.382066,0.382066,-0.611433,-1476.74,1694.45)">
            <path d="M131.2,1207.21L87.335,1207.21C85.112,1204.18 83.942,1200.73 83.942,1197.22C83.942,1186.19 95.29,1177.24 109.267,1177.24C123.245,1177.24 134.593,1186.19 134.593,1197.22C134.593,1200.73 133.422,1204.18 131.2,1207.21Z" style="fill:white;"/>
        </g>
        <g transform="matrix(-0.965926,0.258819,0.258819,0.965926,-2303.52,-191.157)">
            <g transform="matrix(0.346361,0.554293,-0.425905,0.266135,-653.662,550.441)">
                <rect x="113.993" y="1277.19" width="63.935" height="13.549" style="fill:white;"/>
            </g>
            <g transform="matrix(0.346361,0.554293,-0.425905,0.266135,-665.097,557.586)">
                <rect x="113.993" y="1277.19" width="63.935" height="13.549" style="fill:white;"/>
            </g>
        </g>
        <g transform="matrix(0.689485,0.210797,0.210797,-0.689485,-1271.71,1286.59)">
            <path d="M131.2,1207.21L87.335,1207.21C85.112,1204.18 83.942,1200.73 83.942,1197.22C83.942,1186.19 95.29,1177.24 109.267,1177.24C123.245,1177.24 134.593,1186.19 134.593,1197.22C134.593,1200.73 133.422,1204.18 131.2,1207.21Z" style="fill:white;"/>
        </g>
        <g transform="matrix(-9.25505e-19,0.782045,0.502217,-3.40634e-17,-1689.88,35.4146)">
            <rect x="113.993" y="1277.19" width="63.935" height="13.549" style="fill:white;"/>
        </g>
        <g transform="matrix(-3.80294e-18,0.625636,0.369022,-2.92562e-17,-1528.76,63.2442)">
            <rect x="113.993" y="1277.19" width="63.935" height="13.549" style="fill:white;"/>
        </g>
        <g transform="matrix(2.79753e-20,0.563073,0.369022,-2.4071e-17,-1537.76,74.376)">
            <rect x="113.993" y="1277.19" width="63.935" height="13.549" style="fill:white;"/>
        </g>
        <g transform="matrix(-3.80294e-18,0.625636,0.369022,-2.92562e-17,-1508.96,63.2442)">
            <rect x="113.993" y="1277.19" width="63.935" height="13.549" style="fill:white;"/>
        </g>
        <g transform="matrix(2.79753e-20,0.563073,0.369022,-2.4071e-17,-1499.96,74.376)">
            <rect x="113.993" y="1277.19" width="63.935" height="13.549" style="fill:white;"/>
        </g>
        <g transform="matrix(1.18733,-5.15596e-17,-1.15887e-16,-0.987502,-1174.79,1372.32)">
            <path d="M131.2,1207.21L87.335,1207.21C85.112,1204.18 83.942,1200.73 83.942,1197.22C83.942,1186.19 95.29,1177.24 109.267,1177.24C123.245,1177.24 134.593,1186.19 134.593,1197.22C134.593,1200.73 133.422,1204.18 131.2,1207.21Z" style="fill:white;"/>
        </g>
        <g transform="matrix(0.965926,0.258819,-0.258819,0.965926,213.112,-183.606)">
            <g transform="matrix(0.346361,0.554293,-0.425905,0.266135,-653.662,550.441)">
                <rect x="113.993" y="1277.19" width="63.935" height="13.549" style="fill:white;"/>
            </g>
            <g transform="matrix(0.346361,0.554293,-0.425905,0.266135,-665.097,557.586)">
                <rect x="113.993" y="1277.19" width="63.935" height="13.549" style="fill:white;"/>
            </g>
        </g>
        <g transform="matrix(-0.689485,0.210797,-0.210797,-0.689485,-818.693,1294.14)">
            <path d="M131.2,1207.21L87.335,1207.21C85.112,1204.18 83.942,1200.73 83.942,1197.22C83.942,1186.19 95.29,1177.24 109.267,1177.24C123.245,1177.24 134.593,1186.19 134.593,1197.22C134.593,1200.73 133.422,1204.18 131.2,1207.21Z" style="fill:white;"/>
        </g>
        <g transform="matrix(1,0,0,1,-1254.67,-191.64)">
            <path d="M354.904,1077.93C358.818,1077.71 346.204,1061.48 339.09,1056.49C326.771,1047.84 307.93,1045.42 301.149,1038.98C295.847,1033.95 298.74,826.272 298.74,826.272C298.74,826.272 300.379,803.389 304.354,795.089C308.945,785.505 312.873,776.116 321.771,764.679C334.29,748.587 351.853,735.026 351.853,735.026L352.609,721.609C352.609,721.609 339.575,730.394 334.123,735.979C327.455,742.809 318.281,752.697 312.603,762.592C309.515,767.973 303.703,780.203 299.74,789.444C294.61,801.404 293.578,812.01 293.281,823.591C292.156,867.309 292.993,1051.75 292.993,1051.75C292.993,1051.75 296.729,1050.2 302.149,1050.97C309.316,1051.99 318.163,1055.4 327.727,1059.63C340.671,1065.35 351.446,1078.12 354.904,1077.93Z" style="fill:white;"/>
        </g>
        <g transform="matrix(-1,0,0,1,-835.742,-191.64)">
            <path d="M354.904,1077.93C358.818,1077.71 346.204,1061.48 339.09,1056.49C326.771,1047.84 307.93,1045.42 301.149,1038.98C295.847,1033.95 298.74,826.272 298.74,826.272C298.74,826.272 300.379,803.389 304.354,795.089C308.945,785.505 312.873,776.116 321.771,764.679C334.29,748.587 351.853,735.026 351.853,735.026L352.609,721.609C352.609,721.609 339.575,730.394 334.123,735.979C327.455,742.809 318.281,752.697 312.603,762.592C309.515,767.973 303.703,780.203 299.74,789.444C294.61,801.404 293.578,812.01 293.281,823.591C292.156,867.309 292.993,1051.75 292.993,1051.75C292.993,1051.75 296.729,1050.2 302.149,1050.97C309.316,1051.99 318.163,1055.4 327.727,1059.63C340.671,1065.35 351.446,1078.12 354.904,1077.93Z" style="fill:white;"/>
        </g>
        <g transform="matrix(1,0,0,1,-1254.67,-200.64)">
            <path d="M67.975,425.611C67.975,425.611 89.055,422.113 103.72,407.43C110.789,400.352 117.727,389.057 123.486,377.83C131.939,361.353 145.565,336.796 163.773,322.203C179.197,309.841 199.093,306.003 209.616,306.003C220.617,306.003 243.412,312.996 256.75,322.203C275.404,335.078 284.568,353.862 296.498,377.83C301.395,387.669 307.113,398.399 317.906,407.43C332.186,419.377 350.953,424.836 350.953,424.836" style="fill:none;stroke:white;stroke-width:5px;"/>
        </g>
    </g>
    <g transform="matrix(0.979218,0,0,1.06689,2.06758,-73.0902)">
        <g id="Ebene1">
            <path d="M246.392,1050.13C246.392,1040.38 237.764,1032.46 227.138,1032.46L196.769,1032.46C186.142,1032.46 177.515,1040.38 177.515,1050.13L177.515,1096.46C177.515,1106.22 186.142,1114.14 196.769,1114.14L227.138,1114.14C237.764,1114.14 246.392,1106.22 246.392,1096.46L246.392,1050.13Z"/>
        </g>
    </g>
    <g id="Ebene2">
        <g transform="matrix(1,0,0,0.790616,-0.515704,212.68)">
            <path d="M234.176,1045.03C234.176,1043.83 233.411,1042.87 232.469,1042.87L187.795,1042.87C186.852,1042.87 186.087,1043.83 186.087,1045.03L186.087,1049.35C186.087,1050.54 186.852,1051.51 187.795,1051.51L232.469,1051.51C233.411,1051.51 234.176,1050.54 234.176,1049.35L234.176,1045.03Z" style="fill:white;"/>
        </g>
        <g transform="matrix(1,0,0,0.790616,-0.515704,233.727)">
            <path d="M234.176,1045.03C234.176,1043.83 233.411,1042.87 232.469,1042.87L187.795,1042.87C186.852,1042.87 186.087,1043.83 186.087,1045.03L186.087,1049.35C186.087,1050.54 186.852,1051.51 187.795,1051.51L232.469,1051.51C233.411,1051.51 234.176,1050.54 234.176,1049.35L234.176,1045.03Z" style="fill:white;"/>
        </g>
        <g transform="matrix(1,0,0,0.790616,-0.515704,223.203)">
            <path d="M234.176,1045.03C234.176,1043.83 233.411,1042.87 232.469,1042.87L187.795,1042.87C186.852,1042.87 186.087,1043.83 186.087,1045.03L186.087,1049.35C186.087,1050.54 186.852,1051.51 187.795,1051.51L232.469,1051.51C233.411,1051.51 234.176,1050.54 234.176,1049.35L234.176,1045.03Z" style="fill:white;"/>
        </g>
        <g transform="matrix(1,0,0,0.790616,-0.515704,275.821)">
            <path d="M234.176,1045.03C234.176,1043.83 233.411,1042.87 232.469,1042.87L187.795,1042.87C186.852,1042.87 186.087,1043.83 186.087,1045.03L186.087,1049.35C186.087,1050.54 186.852,1051.51 187.795,1051.51L232.469,1051.51C233.411,1051.51 234.176,1050.54 234.176,1049.35L234.176,1045.03Z" style="fill:white;"/>
        </g>
        <g transform="matrix(1,0,0,0.790616,-0.515704,244.25)">
            <path d="M234.176,1045.03C234.176,1043.83 233.411,1042.87 232.469,1042.87L187.795,1042.87C186.852,1042.87 186.087,1043.83 186.087,1045.03L186.087,1049.35C186.087,1050.54 186.852,1051.51 187.795,1051.51L232.469,1051.51C233.411,1051.51 234.176,1050.54 234.176,1049.35L234.176,1045.03Z" style="fill:white;"/>
        </g>
        <g transform="matrix(1,0,0,0.790616,-0.515704,254.774)">
            <path d="M234.176,1045.03C234.176,1043.83 233.411,1042.87 232.469,1042.87L187.795,1042.87C186.852,1042.87 186.087,1043.83 186.087,1045.03L186.087,1049.35C186.087,1050.54 186.852,1051.51 187.795,1051.51L232.469,1051.51C233.411,1051.51 234.176,1050.54 234.176,1049.35L234.176,1045.03Z" style="fill:white;"/>
        </g>
        <g transform="matrix(1,0,0,0.790616,-0.515704,265.297)">
            <path d="M234.176,1045.03C234.176,1043.83 233.411,1042.87 232.469,1042.87L187.795,1042.87C186.852,1042.87 186.087,1043.83 186.087,1045.03L186.087,1049.35C186.087,1050.54 186.852,1051.51 187.795,1051.51L232.469,1051.51C233.411,1051.51 234.176,1050.54 234.176,1049.35L234.176,1045.03Z" style="fill:white;"/>
        </g>
        <g transform="matrix(1.01789,0,0,1.81278,8.20341,-1209.78)">
            <rect x="201.072" y="1488.06" width="4.912" height="41.952" style="fill:white;"/>
        </g>
        <g transform="matrix(1.01789,0,0,1.81278,-3.59787,-1209.78)">
            <rect x="201.072" y="1488.06" width="4.912" height="41.952" style="fill:white;"/>
        </g>
        <path d="M51.403,428.35L148.054,428.35" style="fill:none;stroke:white;stroke-width:3px;stroke-linecap:butt;"/>
        <g transform="matrix(0.972457,0,0,0.972457,223.818,11.7983)">
            <path d="M51.403,428.35L148.054,428.35" style="fill:none;stroke:white;stroke-width:3.08px;stroke-linecap:butt;"/>
        </g>
        <path d="M50.385,856.701L66.771,856.701" style="fill:none;stroke:white;stroke-width:3px;stroke-linecap:butt;"/>
        <path d="M103.032,856.701L66.771,856.701" style="fill:none;stroke:rgb(8,6,5);stroke-width:3px;stroke-linecap:butt;"/>
        <path d="M120.566,856.701L103.032,856.701" style="fill:none;stroke:white;stroke-width:3px;stroke-linecap:butt;"/>
        <path d="M126.23,856.701L120.566,856.701" style="fill:none;stroke:rgb(8,6,5);stroke-width:3px;stroke-linecap:butt;"/>
        <g transform="matrix(1.0077,0,0,1,-0.971952,0)">
            <path d="M173.94,856.701L126.23,856.701" style="fill:none;stroke:white;stroke-width:2.99px;stroke-linecap:butt;"/>
        </g>
        <g transform="matrix(1.00829,0,0,1,-2.26139,0)">
            <path d="M245.287,856.701L292.694,856.701" style="fill:none;stroke:white;stroke-width:2.99px;stroke-linecap:butt;"/>
        </g>
        <path d="M298.445,856.701L292.86,856.701" style="fill:none;stroke:rgb(8,6,5);stroke-width:3px;stroke-linecap:butt;"/>
        <path d="M316.533,856.701L298.445,856.701" style="fill:none;stroke:white;stroke-width:3px;stroke-linecap:butt;"/>
        <path d="M352.794,856.701L316.533,856.701" style="fill:none;stroke:rgb(8,6,5);stroke-width:3px;stroke-linecap:butt;"/>
        <path d="M368.943,856.701L352.794,856.701" style="fill:none;stroke:white;stroke-width:3px;stroke-linecap:butt;"/>
        <g transform="matrix(1.00633,0,0,1,-0.321293,0)">
            <path d="M50.784,1285.05L183.575,1285.05" style="fill:none;stroke:white;stroke-width:2.99px;stroke-linecap:butt;"/>
        </g>
        <g transform="matrix(0.990768,0,0,1,187.063,0)">
            <path d="M50.784,1285.05L183.575,1285.05" style="fill:none;stroke:white;stroke-width:3.01px;stroke-linecap:butt;"/>
        </g>
    </g>
</svg>
