<?xml version="1.0" encoding="UTF-8" standalone="no"?>
<!DOCTYPE svg PUBLIC "-//W3C//DTD SVG 1.1//EN" "http://www.w3.org/Graphics/SVG/1.1/DTD/svg11.dtd">
<svg width="100%" height="100%" viewBox="0 0 1034 1038" version="1.1" xmlns="http://www.w3.org/2000/svg" xmlns:xlink="http://www.w3.org/1999/xlink" xml:space="preserve" xmlns:serif="http://www.serif.com/" style="fill-rule:evenodd;clip-rule:evenodd;stroke-linejoin:round;stroke-miterlimit:2;">
    <g id="R">
        <g transform="matrix(4.16667,0,0,4.16667,0,0)">
            <path d="M78.944,125.314C78.944,147.064 94.467,165.182 115.037,169.212L115.037,81.417C94.467,85.447 78.944,103.564 78.944,125.314Z" style="fill:rgb(8,6,5);fill-rule:nonzero;"/>
        </g>
        <g transform="matrix(4.16667,0,0,4.16667,0,0)">
            <path d="M52.333,125.314C52.333,161.791 79.712,191.855 115.037,196.126L115.037,174.685C91.475,170.586 73.555,150.049 73.555,125.314C73.555,100.58 91.475,80.044 115.037,75.944L115.037,54.503C79.712,58.774 52.333,88.838 52.333,125.314Z" style="fill:rgb(8,6,5);fill-rule:nonzero;"/>
        </g>
        <g transform="matrix(4.16667,0,0,4.16667,0,0)">
            <path d="M24.925,125.314C24.925,176.943 64.544,219.311 115.037,223.692L115.037,202.098C76.43,197.797 46.407,165.069 46.407,125.314C46.407,85.561 76.43,52.832 115.037,48.531L115.037,26.937C64.544,31.318 24.925,73.686 24.925,125.314Z" style="fill:rgb(8,6,5);fill-rule:nonzero;"/>
        </g>
        <g transform="matrix(4.16667,0,0,4.16667,0,0)">
            <path d="M0,124.814C0,190.323 50.723,243.98 115.037,248.663L115.037,229.041C61.536,224.406 19.555,179.517 19.555,124.814C19.555,70.113 61.536,25.223 115.037,20.588L115.037,0.966C50.723,5.649 0,59.306 0,124.814Z" style="fill:rgb(8,6,5);fill-rule:nonzero;"/>
        </g>
        <g transform="matrix(4.16667,0,0,4.16667,0,0)">
            <path d="M146.963,23.571C146.96,23.571 146.963,120.58 146.963,120.583C146.963,123.666 148.291,124.266 151.028,124.252C166.638,124.171 182.248,124.284 197.858,124.227C216.571,124.16 228.745,107.244 222.614,89.674C213.747,64.262 196.788,45.703 173.357,32.825C165.353,28.425 156.346,25.403 146.963,23.571ZM146.963,166.549C146.87,168.217 146.963,246.782 146.963,246.782C146.963,246.782 145.806,247.077 142.133,247.632C134.185,248.832 132.148,248.906 127.23,248.951C121.891,249.047 121.556,248.972 121.556,248.972L121.523,0.683C121.523,0.683 123.564,0.601 127.38,0.67C185.573,1.717 233.556,42.296 246.222,100.63C247.548,106.924 249,126.963 234.363,138.229C225.708,144.162 216.082,147.259 205.504,147.241C194.134,147.222 168.753,147.275 166.795,147.275C167.596,148.943 167.972,149.964 168.537,150.865C181.251,171.143 209.059,215.471 209.059,215.471C209.059,215.471 208.46,216.121 205.555,218.604C200.544,222.886 195.348,226.56 189.051,230.611C175.202,208.691 161.956,187.726 148.431,166.318C148.022,165.682 146.963,165.878 146.963,166.549Z" style="fill:rgb(8,6,5);fill-rule:nonzero;"/>
        </g>
    </g>
</svg>
